<mxfile modified="2022-04-20T08:53:10.878Z" host="drawio-plugin" agent="5.0 (Macintosh; Intel Mac OS X 10_15_7) AppleWebKit/537.36 (KHTML, like Gecko) Chrome/97.0.4692.45 Safari/537.36" etag="t74V1zHyqr_HJ_xMMIj7" version="15.5.4" type="embed"><diagram id="uJstG1Psin1HkdkV2jEI" name="Diagram"><mxGraphModel dx="1448" dy="404" grid="1" gridSize="10" guides="1" tooltips="1" connect="1" arrows="1" fold="1" page="0" pageScale="1" pageWidth="827" pageHeight="1169" math="0" shadow="0"><root><mxCell id="0"/><mxCell id="1" parent="0"/><mxCell id="MEFubywyqh85JGEaS31g-13" value="" style="endArrow=classic;html=1;rounded=0;fontSize=10;entryX=0.582;entryY=1.005;entryDx=0;entryDy=0;entryPerimeter=0;exitX=0.75;exitY=0;exitDx=0;exitDy=0;" parent="1" source="UID2tYNRAP9tnTUfMCMo-16" target="fKm2lqC4MkwiA_qFB0BJ-2" edge="1"><mxGeometry width="50" height="50" relative="1" as="geometry"><mxPoint x="300" y="480" as="sourcePoint"/><mxPoint x="230.00000000000009" y="500" as="targetPoint"/></mxGeometry></mxCell><mxCell id="MEFubywyqh85JGEaS31g-12" value="" style="endArrow=classic;html=1;rounded=0;fontSize=10;exitX=0.25;exitY=1;exitDx=0;exitDy=0;entryX=0.295;entryY=0;entryDx=0;entryDy=0;entryPerimeter=0;" parent="1" source="fKm2lqC4MkwiA_qFB0BJ-2" target="UID2tYNRAP9tnTUfMCMo-16" edge="1"><mxGeometry width="50" height="50" relative="1" as="geometry"><mxPoint x="160" y="490" as="sourcePoint"/><mxPoint x="210" y="440" as="targetPoint"/></mxGeometry></mxCell><mxCell id="fKm2lqC4MkwiA_qFB0BJ-22" value="" style="edgeStyle=orthogonalEdgeStyle;rounded=0;html=1;jettySize=auto;orthogonalLoop=1;exitX=0.5;exitY=1;exitDx=0;exitDy=0;" parent="1" source="UID2tYNRAP9tnTUfMCMo-24" target="fKm2lqC4MkwiA_qFB0BJ-2" edge="1"><mxGeometry relative="1" as="geometry"><Array as="points"><mxPoint x="332" y="230"/><mxPoint x="331" y="230"/></Array><mxPoint x="331.0153846153846" y="210" as="sourcePoint"/></mxGeometry></mxCell><mxCell id="fKm2lqC4MkwiA_qFB0BJ-19" value="" style="edgeStyle=orthogonalEdgeStyle;rounded=0;html=1;jettySize=auto;orthogonalLoop=1;" parent="1" source="fKm2lqC4MkwiA_qFB0BJ-4" target="fKm2lqC4MkwiA_qFB0BJ-7" edge="1"><mxGeometry relative="1" as="geometry"><Array as="points"><mxPoint x="170" y="630"/><mxPoint x="170" y="630"/></Array></mxGeometry></mxCell><mxCell id="fKm2lqC4MkwiA_qFB0BJ-7" value="" style="shape=cylinder;whiteSpace=wrap;html=1;boundedLbl=1;backgroundOutline=1;" parent="1" vertex="1"><mxGeometry x="135" y="650" width="130" height="80" as="geometry"/></mxCell><mxCell id="UID2tYNRAP9tnTUfMCMo-1" value="" style="shape=image;verticalLabelPosition=bottom;labelBackgroundColor=#ffffff;verticalAlign=top;aspect=fixed;imageAspect=0;image=data:image/png,iVBORw0KGgoAAAANSUhEUgAAAfgAAAIICAYAAACCUvz7AAAgAElEQVR4XuxdBXQV1/P+IMSFJAQLwd3dCVac4g6FtlA0uEOxAi1aNLi7u2vQ4KV4obgTLISEhAj9n9nfC/8Akbez+2Tfu3POOw+5c+/cb/ft7L135ptkECIQEAgIBAQChkAgGQBP3ScVAC8A9E0fd93HDYALgJS6jxMARwD0bQsgBQCbBIyLBvBR94kA8B5AKIAQAO90H/rza93nFYCXAOj7DYBgAP8ZYuKiT/NAgG5AIQIBgYBAQCAgDwF6dpLDTg8gM4AsAHwAZND9nf6N/pxcXrdGbR0J4CGA+7oP/Zk+dwE8AvAEQJRRLRKDqYqAcPCqwik6EwgIBCwMAVptk7POBSAngNwACgLIA8DOwub69XRiANwC8BeAG7rPNQB3ANDugRAzR0A4eDO/QMI8gYBAwCgI2APIDiA/gAIACgMopVuhG8UADQ1Cq3py+mcB/A3gIoB/AIRraA5WYapw8FZxmcUkBQICgTgIkDOnLfW8AEoAqASgjO68WwDFQ+ATgBMADgE4BeAKgOe8roSWWggIB68WkqIfgYB5I0BOjQK6nHVBXfRNgVwOAOj/YgO66MyYArtIKACLtmljg7lo5UbntvRNwV0fdKs2CvCK/dC/mdv2bVrdqpyceTWdQ6f5CjEsAnSWv0Xn9C8ACDLscKL3rxEQDt5y7gm6lvRwjhvUQw9oerOmjxDLRYCirtMB8NZ9MgLIpPtkBUAfitI2htA9R9HZTwE8063i6MFOAVu0oqMI7tgobor0NkQkNwW3FQNQEUBDADmMMXExRpII0Lb+GgABuq19enkUYkAEhIM3ILiMrukh7KFLo6EI3dS6T2xqTezfqZ2r7qFNKTa0AktKaOVFqy56qFLqDKXU0MOV0mYoZeat7hP799h/i30Ik74Q0yJAq05y3hToRefERQGU1jlwrf6WaTfgpi6Ai1Z893SR3BTNTS8EdB8mlcpFOxMlAVQG0FwXEGfaKyVGTwoB2ulZAWCHbkufrrMQlRHQ6kNBZRiM1h09oNPoVlm04qJIXArqoa1DitI1121DesC+0D2EKZiG0mroQUwrNPr32JcBsVOg7q1EK1FafVKwV3Xd1rKlR25/jSC9jFIwF53rUkAX3Xe0O0DHC8UBtAZQT5yfq3vjmaC3jQCWADite56YwATLG1I4eMNdUyKyoLxYekBTAE8V3YPacCOatmc6d6UHMD2MKcDmti6XllZhtAsgJGkE6H6hFKw6OsdFJClCBALWhsBWAHMBnNQR91jb/FWbr3Dw6kBJQUl0zklRueTIaUVBKTdC/ocAMWkd1f1gLwN4oDuTpW06axYKcKMdnBoAOuvyra0ZDzF3gUBcBOiMnhw9rexp8SDO7GXeH8LBywRM15wC2cihFwHQGEBTKyC94CGVuBY5+326bbl/dWevlr7ap/gJOi9uA6BtIjSkhsBb9CkQ0CoCFJMxFsB23bGgVudhVLuFg9cfbjrzo+32ugC6687R9dcWLfVFgM74N+tSa2LPWyk4UMtCQZCFAPTQOXZzpi/VMs7CdutAYDmASQCuiwyhxC+4cPCJ40PRubRK7wDgBzPnlbbUnzYF+B0GQEE4FIBD2/sU8a8FoRdCCgIbKe4dLVwu09iYIkUK2Nragr5jP8mTJ0fsx8bmy1oz//33Hz59+vT5ExMTg+joaERFRUnfkZGRoDZWILQY6K87/qMiO0K+QkA4+G9vCcopJqfeS5dyIzAyv58NBfDRW/x+HS82nfGbyxON0hbLAvhTFzBnfugJiwyKgKOjI1xcXKRPypQp4erqivTp0yNDhgzSx8fHR/pkypQJadOmhZ2duokR5Pxfv36Np0+f4sGDB9KH/vz48WM8fPgQ7969Q0hIiPR5//699EKgcSGK3EG6HHviWBCiQ0A4r/8BQThkA9ASwDAdu5e4SbSDAKXtLdSd55Pzp/x+Ywvlp/8MYJTufjL2+GI8IyFAK2oPDw94enoiTZo0yJUrF/Lnz4/ixYujWLFikkPXitBK/9GjRzh37hzOnj2Ly5cv48mTJ3j58iXevHmjNedPL/m0dT9DF8SrlctgMDut3cHT2Sjl0k7REYYYDGjRsVEROKe7poG6XH1Dlbyk3w9xmtMW/I9GnaEYzOAI0HY5rcDJkefMmRPly5fHd999h5IlS0rb55YutPV/4cIF7N69GydPnsTt27clp08rfzMXcvT0TJ+gI/Iyc3MNZ561OnjKL6az0fE6bm7DISx6NjUCtP+4WLfCp9W9GlH69Luh8/XZOm5zU89RjK8QAScnJ8mRZ8yYUXLi9erVkxx5smTW+ohMGFDa4l+7di02b96Mf/75B69evcKHD2ab8UpHZVbr6K3t7iX2uCG6aGZrm7vCR6DFqBMRz2QAtLonEh45ubV0zxC/AW0B1rYYRKxsIhTQ5uXlJTnz77//Hq1bt0b27IK2gnsb0Db/+fPnMW/ePBw9ehTPnz9HaKhZxbzRin40gGkmOr7jQqtYz1qcXHrdWxzlHQsRCMQiQKt5esNfq8vBTywdj87YpwNopBX4aIuZAr4cHBxAK9TYb3JuqVKlkj6xwWD0TW3I+cVGbUdEREiR2fSw/vjx4+fArODgYCmIiz4UoEXtYj/Ujv5MgV7mIoQBBbPR+fjPP/+M2rVrf56judhoSXaQwz99+jSmTp0qfT979kyK7jcDoaO6njoO/DAzsMfgJli6g6c0Nwp66mNwJA0wAJ3zxU2foT/HPoDpIezm5gZ3d3fY29tLkbj0iW1PP6jYDz2E6UEdGzlLD2A6X6NPbGpN3Pb071YotJXvr/sQ13mss6eo+F8BDDZHTOg+IAfm7OwMb29vlChRAr6+vtInSxYKDzC+0AP+3r17UuAWneFeunRJ2sqlbdzw8HDpBcCQ9xi92NDvomjRoujfvz9q1CCiQCGmQoCu9e+//46FCxciKChIelk0sVAQbgNd/XrzeRM1ACiW6uCp1vVAAMPNOaKZHkTknGnlRJ/ChQujQIEC0kqDPvSANsUZIK3Y6IF89erVzw9nCrChf6cHNP1A6aXBnFZpKv826EdP9JjHdd9m8TuhFziK0KZUq2rVqqFly5ZS5LYWA77I6e/atQuHDh2S7jW6t+gFgLvSox0I2nLv1q0bOnXqpHrqmcr3l1V3t2zZMowZM0aK1qeXPRMK1cwg4rJHJrTBoEObxYNLxRkSJzzVf15lTtSx5KRphUUP59y5c6NKlSpo2LAhChYsaBIHrgbe5NyvXbuG/fv3IzAwEBcvXpQe0mFhYWa3RavGfE3RB63MaSVKK1A/Pz9pdW6KFz5jzp22dFevXo09e/ZIRwCUp52Q06cI9zJlymDcuHHSal2I9hBYtGiRdP0oP592E00k8wD0BWC2kYJcXCzJwVNUMxGfEEe8SYUezPTwoSjcNm3aoFmzZppcZXFBpC25U6dOYceOHQgICJB+vLGrfwte9XPh+qwXm19N2+sjRoxAkSLEtyRk3759mD9/vnRP0Qsk/a7mzp2LHDnoJy/EEhCg58LIkSOxYMECKQffBM8JOpOvDyDAjEizFF9aS3DwVEOdoiO7KUaD2QE9mGmFTsE7v/76q7QyFxI/Ajt37sSqVatAD23a7rfwrf4kbwPaXqfjmc6dO0vnlHRkI0QgYM0IEONekyZNpF1BE6zqqeplLQAmPTtQ6/pr3cEX0AVKUIUuowo9iLNmzYqxY8dKN6MQPgK0xU8pNuT8aYVm6VzatM1OTr1r166SU1ebqpR/JYSmQMC8EJg0aZL0jDUyuQ6F/LcAsEXrq3mtOnhata/Xnbcb7Y4kp07bprSNJFbphoOdtudolU/bsvQWT0F93OArw1kpv2e6fyg4bt26ddKOjxCBgEBAPwQoNoOCSum4z4iFdKicdRkAxHWvSdGigydGigsAjLJqp7QzCoxbsmSJFOQkxDQIULrVxIkTpa19WuVryeFToNyKFSskUhUhAgGBAB8BSrMjlkF6Hhgy1TKOhbGreSphrTnRmoOnSEciJjG40GqLtk/79etn8LHEAPIRoDSroUOHStHWRnyjl2UoBYHRg4j4CoQIBOJDIDg0HK/fheH1+w94HfIB78M+4t2HCLwLjUBoeCQioqIRERmFj5E6ophkgKOdLRzsbOFolwIpnR3g7uoINycHeLg4wCulM7zcnZHKzRkpbCyXL59e8im7hI73jCRHAFQx0liqDaMlB0/bJQaPXsuTJw/27t2LzJkzqway6MjwCNA1GzhwIK5codRW0wpFwRNlp6WntJkWZfMcnV42n715j5uPXuLq3ee4dPcZrt57jugY8+BTsbe1QYEs6VA8jw8KZ0uPvJnSwM3ZwTzB1MMq4k6oXr26sRw98e/mBkBEWJoQLTh42op/CMCgyyBKZaNzX9qSF6JtBCg6f/To0Zg+fboUqW8soSIlBw8eNNZwYhwTIRBDHBD3X+DcP49w8K/b+Pex5ZQgpx2B2qXzoErhbCiaMwOSJ9eCi4BU475SpUoSMZeBhXjtiUSN6lmYvZj71asOYC8Ag+01dejQQQqaE6sts79X2QYeOXIEPXv2NNjqntgH6cGiRUY5NqhWoEir8RsPgrDv/E3sPP2PtG1ujUJOonguH7SpVgQVCmY162clUSRXrFgRlGpnYKEd5cIGHkNx9+bs4IkX3E/xDBPogAholi9fLh7KhgLYTPu9f/8+evToIaXkKZV06dLhxo0bEtucEMtAIPxjFPrM2oHztwzuIDQNGG31d6hTCs0rF4KLo/lxNxw7dgw1a9Y0NBUukeNQhVKzKp0X98YyVwdPq3aqEKG6fcT3TvSqqVOnNus3UU3/+jVgPOXav3jxAr169cKWLZTuqr/QMQ6lutWvX19UJdMfNs20pJV7WHgkxq8NwN6ztzRjt6kMJWdPTr5vM19UL57LbLb16TdO7Hjjx483JDRUpOo7HR+LIcdh9a26A2VZ8aXSRd3Wh6q2UWnMAwcOSAVdxFaqClfJgrogtixKv+nTpw82bNiQ6Mzatm0r5edT6VVzl9APH3HvxVvcffIKl+89x5W7zxEUHIpP//2H//6DlH1An0+6P8fOh/4vWZxfHx1f0V+l72S6b93fXZ3skMM7FfJkTotcGbyQPpUbMqVNCWcH81vVyb1ehA1Fsc/ZegqrD/8tV90q29P94WBri7L5MqFPc1+k9zRo6FSSGNM1pPLGFHFPNesNJHQuPwVAfwP1z+5WVSfKtuL/Ff8FQHnuqto1e/ZsdOzYEVS9TUsS+iECD1++w5NX7/DwRTDuPH2DO09fI+jt+88PZbqz6GktfeuEHtAk8T2kCVl6XFMKTXpPV2RM4w6f1CmRNb0nvFO5Iq2HK1K7u1h0ik1i9wA5++fPn0vUsZSCFyuenp64fPmyVMnNnIQeYHRPHPn7DrYH3gClXVEQWFTMJ3wiz20iSZ4sGWxsksMmeTLYJE+OLOncUalwdpTM4yNFbqewsTGRZfKHJYwjo2OwdN95LNh5Vn4HVqxhZ2sD71RuGNu+JnJnNN2uKZFnxW7b08reAEI/NnoLLGaAvtldqupI2Vb8TzEIgJeazp0qTFGAlbnmIUfFxODavRc4f/MRjl66h4dBwdLDOSbmE2I+0crKhA/o5MmQInlyabuNHtYOdilQMk9GlMmXCbl9vJAlnSfsbLX1wiTn/pQe6pGRuHnzJjZv3oxhw4aZxQvi2/cfsPfcLazY/xdCPkQgMirGpPeJHEzjtrW1SY4UKWyQ0tkezSoVQtViOeDjldKsj82keyIqBrO2BWL1IbGil3vt7VLYSE7+jw41kd7LKDxl35hIrJj08k4law0g9MCmc3lXA/TN6tJcHPwTAN6sGSSgRClvzZs3N4uHMpkYFR2DU9cfYH3AZdx++hoUzBMWYZA3STVhTLQvcvpEuGGXIrm0C1C9RE4Uy+GDbN6eZv2gNhpAKgwUGR2NfWdvYcne83jz/oNEfmKpQg7AxdFO2uZvU60oKhTIAicHO7ObLjn6d2ERmLDmCA5coE1HIXIRcHdxRNOKBfFL3VJG3y2k1fzZs2dRtWpVQ6XRhuiC74yXo5vABTAHB6+qc6cCMMePHzf5Viqtrnad/gerDv6FsIgovP/wUe5vQLPtacXv5PA/tq0MXm5oVKEASufNKG39C0kagVfvwuC/NRCBV+8jODRCkyv0pGeZdAt6OLk42cPT1RHta5dE1aI54GhvPjwV5OiDgsPQZ9Z23LKgXPikr4x6LWgnJ72XG/7oUAt5MqVRr2M9eiI2PMqm2rZtmx6tZTehB34uHYeLbGW1FEzt4B8B8FFrMpTrTHzlpii5Seed524+wvTNJ/D89XuEWJFD1/f6UbSts4OdRKtJ6TWVCmdDGg8XsdqnahYfo/DnhmPSWTo5dSHfIkAxJXTv0A6RX8NyEhObOfBXkKN/8OIt2k/cKB2bCOEhQKv6bg3KokH5fFLchjGEVvOHDh1CrVq1DFGDPgZARQBG49P9GjNTOnhipyPnrtgG+pFT6httuRgzQp7Oy/eevYlZWwMRHPa/81Ah8hCwt00hbctm9/ZE6++KonTeTLBNoZ0ALHmz/bb1yav3MW51AILe/i+6XYj+CNC94+7igB9rFEeDCvlBfzel0PMg8OoD9Jm9w5RmaH5sJ3tbVCueE4NaVoa9nXGu6cuXL0EU0xRzo7IQR3EjANtV7lev7hQ7V71G+bZRAIDKTN0v1Dw8PEClBHPlot0Q48iNBy8wfnWAlIL0ISLKOINaySi0ve+V0gmebk5oWqkgqhXLaZZEGkouBzmC6RtPYO+5m3jz3uTHdEqmYja6dH6fztMVLaoURkMTO3s6n5+y4Zh0RCeEjwAdx/gWzIIhravA1cnwaakREREYMmQIpk2bxjc6fk16c/8ZgEEi+xIz1hQOfiaA7mogWKpUKWnlnjKl4SMyP0ZFY/m+C9h8/CpevqNASSHGQiCVmxM8XZ3QrHIh1CyRE85myJylDxbhEVEYNH8XLvz7BB/Fbo8+kLHaUGpW5jTu6FKvDCoWzmaybXxKbW03bi1CNR5My7oIKirRjl65fJkw6qcacHUyLL8CbdkHBARIBWwMUKWSSpNSvrzRxNgOviOA+WrMrlu3bpgyZYrBz9tfh4Rh9PKDuHDrCSJiSzaqMQHRBwsBumFTpXSWcmt/rFkc5fJnNvst/Q8Rkeg2fSuu338htuFZV52v5Opoj2I5vTGwZWWk9TR+9hKlvG46fhWT1h75gquCPyPr1aQYnspFsmNom6pSLI8h5dGjRyhTpgyePlW9cNxYAMMNaXvcvo3p4AvpiAAUjzlu3DgMGDDAoDShj4KCMXzJPqnYBOWkCzFPBCgKl6Lzy+TNJDn8DKkNv5ujLxKRUdHoNWs7Ltx8Ihy7vqAZqB0d/aRP5SpF49crl0/idjCmUIxFpykb8fglZVAJUYIAbd0TdwIF5Bmy5j2Vom3Xrh02bdqkxNz4dEcDGKl2p/H1Z6y7nPKjXgJQfJBCq3biDzdUMB39EEcu3S9to5qSCcwYF98Sx0jr4YLMaT3Q6rsiKJsvs0EfAAnhR8Fyi3adxfL9FxAudn3M7jaj456aJXOhS/0yBl8Jxp08PU82Hr2MSeuOitW8CndFGncXDGxZSVrVG0qI2ZLO5AcOpAqxqsogABNV7TGezozh4Ckk+gEAxRyfRDlLLESGcO6UpkTEFVQaMiqaAh+FaB0BisYlZ1+vXF58XyavUUhTLt95iuFL9uPJK7FSM/f7h6Lui+fKgMGtqsDby3ic6XQ27zd9C569eW/uEGnCvnyZ02B8pzrSsZ0hhM7id+zYgQYNGqjdfS8AM9TuNG5/xnDwqwC0VjqJhQsX4ueff1bduVNm0qZjlzFn+2mJnUqIZSJAW3lEpDGndyODkKVQEGbf2Ttw5gZROwjREgLEl18wW3oMbFEJuTKmNorp0TGfMGf7KSzbd8Eo41n6IJRF0di3APo09ZVqIBhCLly4IJ3LR0dHq9k9xaUtVLNDYzr4ugAUF96ePn06unfvrrpzf/o6BP3m7MS/goXKUPeX2fTraJcCSwc1R/YMVO5APaEXxMBr9zF88T5BbqQerCbpiY7liSudVvQFslKZb8MLxfh0nLxRqlonRDkClCo5+qcaKJZL8YZxvMbcv38fxYoVw9u3b5Ub+78eKMCrHoBdanVoLAfvDuA5AEV5DVTCc9KkSaoG1NGWC705L95zDh8+ijx2Q9xY5tQnpdnM79tYWqWpKRRE9+uifQj4+46a3Yq+TIwAOfriOX3Qr7kvcvoYfkX/+l0Y+s3diav3Xph45pYxPBXIqlc2r0SUY4iCWK9fv5ac/MOHxNWmitDbXWkAf6nSW5xODLVFT+fuZCxFzrOldevWWLp0KWxt1eOfpoIdA+buwqU7z9h2CUXtIEDbrzN7NESpvBlVNfrus9fo7b8dT1+Lc1RVgTWjzijSnu6b4T98Z/AUOwrMXLr3nHRUKAgN1bkJKK5i/C+1kS9LWnU6jNML8diXLVsWV65cUavvDwDy6eLV1OpTOU1sApb0BfCnEivprIMIBxwcFAfefzbj+JV7GLX0gDhrV3JhNKb7Z5e6qKRilC3t/qw9fAnTNh0X6ZMauxe45lIqJlGnDmlTBU72hs2/vvjvE/SYuU1wbnAv1ld6dO2aVy6MXk0qSKWv1RRivqtWrRpOnjypVrdUMr2wbudblT7VnfH/TKJ9UKoQx+7by8sLdNbh7OysyiTpjdh/ywmsOHhRpL6pgqg2OiFCDAq8UUsio2MwdMEeHLl0V60uRT8aQoCyMtrWKIaOdWk31XDy/M179PLfhjtP3xhuECvrOZePF6Z3r696RUuqL1+/fn2JUVUluQ2gKIBQNfpjO+EEBqe99L91Ww0s+6hwzJ07d0BlX9WQ6JgYDF+8X9RtVgNMDfXxc60SEhGGWtXGQsIi0GPmVly7Ty/ZQqwZgRwZUmFo66oolF3dmI64mFJ8x6hlB7H//C1rhlrVuVNhopHtqsG3UDZV+6Wo+po1a+Lw4cNq9bsbQH0AiquXqe3gfwGwQMks9+3bhxo1aijp4rNuWEQkuk/fgisieEUVPLXSSfUSOTG2fU3VSk4+efUOXaZsFnnLWrkBjGAnnc9XLZYdo9pVh4MBa9SvOngR0zedEEyIKl1Tum5UkKhvM1/VXv7JNHLyVM30+PHjKlkqcdYTd70iUdPBU7gpEfey6/v17t1b4pdXY9X1MjgUXaZukeo0C7EeBApnT4+ZPRuCtlPVkMt3n6GX/3a8//BRje5EHxaGAJU67tW4PBr5FjTYzAKv3segBXtAZFxC1EGACI6mdqunKvkVsd6VK1cO58+fV8dI4AcAxCPDFjUd/AYATbmWZM+eHdevX4ednfIglqev3qHDpI2i6hv3YmhUj8rMrh7WWqo8p4YEXnsg8SRERSveKVPDHNGHGSNQMrcPxnWsDXcXR4NYef/5G/hN34oXb1U5mjWIjVrrlGoTzOrZEJnSeqhmOlWjy5s3L27dUuVohR48FQCc5hqoloPPDUBR8eMXL14gTZo03Hl81nv2JgQdJm5AULAo6aoYTA11QLs+iwc2Q0GVCEpOXLknOXdRaEhDN4GJTSW+hQHNK6JxRcOs5mlX0m/GVtwVwXeqXemUzg74vUNNlMmXWbU+IyMj4e3tDcqXV0EURdar4eBpS/6SksC65cuXo23btoqxoB/ATxPWi7dcxUhqr4NBrSpLFabUkKOX7qD/3F0iH1kNMK2wj/IFMuOPX2obpJANbdP3mb0D528+tkJkDTNlorml50eD8vlVGyAkJATp0qVDeHi4Gn2eAFCFjvrldqaGg68NgKL+WFKwYEFcvHhRMVMdRTn/OH4dHr18x7JDKGkXgVolc2F0+5qqlAA9eOFfDFm4Rzh37d4OZmE51S4f26EWqqjIwRA7MdoGHr38EHaevmEWc7UEI4i9sHO9MvilTinVpkO15LNlywZKpVNBqJzdJLn9KHXwrgDuA/CUO3Bse9rG8PRkq0vdREfH4Mfx63HzMVWkFWJNCBBb1aqhreDqpIgRWYLs5NX76DNrh4hYtqYbyMBzrVs6N0b+VEOVl8+4phK3x4zNx7HiwEUDz8C6um9ZpTD6t6ik2qSJ6Y5obVUoUEMlTksAkHXBlTr4zgDmctGYPHky+vVTnAmAwQv2gFZeQqwLAbp5VwxtKVWJUypU9KPD5A2IjBIBdUqxFPpfIpA1nQdm9GiA9AYoZzpvx2ks2HVWQK4iAnXL5MGoH6urks1FZm3YsAEtWrQAsWAqlJs6Ehy99/2VOPiUurQ4VsgyBdQ9efIEKVKws+okrKhgzOxtpxTiJtS1iEDvJhXwQ/Viik1/FBQsxW6IcsGKoRQdJIAAPWhH/VwddUrlUc1xxA5FhbP8t54Ux0oq3n1VimbHhI51VKO3HTVqFH777Tc1LBwMYIK+HSlx8N0BzNR3oK/bPXjwAJkyZeKqS3pnbzxEj5nbEfOJdi+EWBMCeTOlkaLmKXJZibx9/wHtJ24QsRtKQBS6eiPQrFJBDGhRSfXS15uPX8H41UfE8ZLeVyLphr4Fs+LPrnVVu1YNGjTA9u3bkx448RaRAHIC0KuUHdfB09k7lYJlrd6JqY4Y65TIm5APaDF6Fd6G6r1boWQ4oWtGCFDRiI0jf1Ccv0p0oN2mb8Xft4mfSYhAwDgIFMqWDlO61VM9Z3574DWMXXFYOHkVL2OFAlmka6VWoZp8+fLhxg3FwZErALTTZ5pcB98cwDp9BoivDUUVKiG0obMMWnVduUfvGEKsDYGejcujXY3iiqZN99CkdUex/shlRf0IZYEABwEPFwcsHtgcGdO4c9QT1Flz6CKmbDwututVRLVKkWyY2LmuKkcrb9++lXauQ0MVExZRadkk3xQ4Dp7ClR8AYBXZ7dChAxYuXKgI/iV7zmGWOHdXhKFWlanQx/LBLWBnqyx2Y/eZfzBiiWoVoJ7f66IAACAASURBVLQKp7DbxAjM6N4AZfNnUsV5xE6F+OupnLHymC4Tg2NGw9culRujf64JSqdTIpTiePToUVSvXh0xMYoCeonClqhsExWOuVUBHEqq4/j+397eHlRDV4lQQFTLMavxMUp2zr+SYYWumSCwaVRbZE6njFry9pNXaPvHWkTFiNgNM7msVm1G/+YVpZrlam0DE5jk5KduVK3wiVVfn9jJE5EWEeJwhRw6OXhbW1t069YNc+bM4XZFehSSnx3AvcQ6kevgk+tY61hFtimScOTIkexJ0bYqOfc7T1WhAGTbIRRNg0CH2iXQtUE5RYMTIVK78evwWBAiKcJRKKuLQIvKhdCnWUWksKFHrDoyf+cZ0EeIeghQCer2tUvK7pDy4G1sbL7YqUmfPj2eP1d0zDwRwCA1HTwdfLJK5aixet907ArGrQ6QDa5Q0D4CxBm9bexPoOpdXKEXxGGL92HfOVUKQXDNEHoCgXgRqFkyF0a0qwZ7hcdPcTufsCYAG45eEYirhACVmx3boSZqlMilV4/0zKFVe/Lkyb85hjl16hR8fX2VbNXTdrgPgARXvHJX8GsAtNRrZl816tWrF6ZNm8ZRlXSIg/n7oUtErjIbQW0rzuhRH+XyZ1E0iR2nbuC3ZQcU9SGUBQKGRMAQZUyHLNiDA4IITLXLRrssC/o31auwVaxzT2hwyig7cEDRM8kPwOyE+pfj4NMBeMZBic4cKHJeSZ33gfN24fDFO5zhhY7GEcifOS2WDGqu6Izyyat3UlplRKSI3dD47WDx5ufwToXZvRvB042VhfwNPsQT0nvWDpy6RrHRQtRAwMEuBbaMbofU7i6KuiOq9gwZMijhq78GIMEjczkOnk1LW7duXezcuZMNxNNXIWg8cjmiRVAUG0MtK276rS0yK6jZTA+4LlM246LId9fybWBVtnuldMaywc2R1oMoR5QLvdh2nrIJ1+6/UN6Z6EFCwNPVETvHtQdVo1MiKqziCwOIN99XXwdPkR93AcgumktnD8HBwXB15d+oP05Yh2v3xI2p5CbSqm5j3wIY2oYSN/iy/sglTFx7lN+B0BQImAABDxdHrPq1FdJ4KFslxppOrI1tx63F8zeKc7BNgIZ5Dlk0pzfm922iaHf63r17yJkzp5Kz+BEAxsSHkL4Ont4Q/uZAnCVLFtAEuHL36Wu0GLNK5HRyAdSwHqUN7Z/4iyLGr2evQ9B01EqRVqnh+8CaTaeg0jXDWqtWqOb+8zf4ecIGvA9XpYSpNV+az3NvV6MYejauoAiL/Pnz4/r169w+qNJavFF/+jp4IrenerSyhM7cz5w5g5Il5acVxA5E56YiLU4W7BbTuFfj8mirgLGOIlj9pm/F2X8eWQwmYiLWh4CjvS1W/9pKNda7v249gd+MrYiKVkS0Yn0XIoEZkxOd168xiuWkgHaeUMW55s2JIJYthQB8ky6hj4Mn5joKw3eWO7SXlxdevuTXaCfH3nL0KimjX4h1IUDnWgcmdYSzgrS4PWf+wXDBVmddN46FztaJnPyw1vBJTUU8lQtF1VN0vRB1EKCiV8emdVFU/MrT0xNEZcuU3gCmf62rj4MvA4BVj3Xw4MEYN24c016g7R9rcOMh/wWBPbBQNDkCg1pWRrPK9FLKE2I6bDxiOV68FeeNPASFlrkhQNv160f8oNqZvP+Wk1i674K5TVOz9hCPwe8darHtr1ixIo4fZ7MPHgRQnePgZwDoIddqSo0jWloKsuPIq+Aw1B26GDGfxPqdg5+WdaTV++SOcHbgk9qIh5eW7wBhe0IIUOT22uFtVEmhoyOsnjO34dR1vSqPiouSBAI2yZPhyNQuoCMVjhw6dAjVqlXjqJJOFACKZP8iuCKpFbwjgDcAHOSOSlGBt27xGcM6/bkRf/0rynjKxd0S2lPUPEXPcyXobSjqD1sq0iq5AAo9s0bA28sNywY1h4er8jz5sIhI6Rj02Zv3Zj1nrRhXoWAWTPOrzzbXw8NDyjpjCvF4f7HbnpSDp9cJFs3Opk2b0LhxY5adlO9esdccRIogEBZ+WlYilqiDkzvCxZFCP3gyaP5uHPrrNk9ZaAkENIBAdm9PLBrQTNHvJHaa95+/lY5DwwUJlCpX/tycHuy0uVKlSuHcuXNcO/oA+IIuNikHT417yR3N0dERHz58kKv2uf2Svecxa2sgW18oaheBvk0roHW1YuwJ3Hz4Em3+IEZlIQIBy0agTL5MmNKtnmKiFUKJWO56zNxm2YAZaXZzejdCyTwZWaNRMbbRo0ezdAFsBdAornJiDp7oeYKIsEfuaHnz5lWS04dq/RcgODRc7rCivcYRoJvxyLQu7LN3OlPsMGkDLt9VVKFJ4ygK860JgYbl82NImyqwYcY6xcVKxK2oc+ek9XDBrnHtWZ39+++/yJVLv0I28QxA2W6pdaVkpf9OzMEXAXCRY6WS7fmXwaGoPXgxZ1iho3EEWlYtjP7NK7FnEXj1Pnr6b2frC0WBgBYRoBKmP9cqwd4Wjp0zFUZpO24dbj4SmUtK74Pzc3uyu0iVKhXevKHQN5ZQjXhinU3SwVOVGn+5QygtC9vLfxtOXhVFEeTibgnt6ezd3YXiOuULrd6JhvMfkVYpHzyhoXkEfv2hKhqWL4BkSR26JjHTV+/C0Gj4coRHUlC2EC4CW8a0Q8bU7iz1woUL4/LleKnl9emvCYDN+jh4Iu+uqE+PcdtkzJgRDx/y0i7++w+o3GcuKLJTiHUhUChbeiwe2Iw96RNX7qP3LLF6ZwMoFDWPAP1+6HekVE5ff4DuM8R5vBIc65TKjdHta7K6aNasGTZu3MjSBTAUwGfymYTe96i6AStvYtSoUaBAAY78+/gVWo1dzVEVOhpHYOcfPyGdpxtrFmL1zoJNKFkYAsQfsf33n0CV6JSK/9ZALN17Xmk3Vq3P3aZfvHgxOnTowMVuBYB2Sa3gfQEckzsCkdq8e/cOLi686kci910u4pbR3tnBFgFTOrNJkc7eeIhu0ymAVIhAwLoRyJQmJdYMawN7uxSKgKBU5QbDlgomSAUoch38nTt3kCNHDu7IZwAQ+6wkCa3gqbAMFZiRJd7e3njy5IksnbiNaXs+NFxsz7MB1Kji1G714FsoK8t6Wr3/MnkjLt15xtIXSgIBS0OgWvGc+KNDTfYLcyweT169Q6MRy/FJsImybpGzs3uAKmJyhFLNiQmWIRRJ75WUg6fVO63iZYmvry+OHZO98JfGeP72Pb4fskTWeKKxZSBARRqcmLS01++/QLvx6ywDCDELgYBKCHStXwbta5dUHFm/PfA6Ri8nmnMhchFY2L8JiuTIIFdNap8hQwY8fcpmcqWKRCHUT3yvFxTGzGKpWblyJdq0acOaUL85O3H00ufoflYfQkl7CDSvXAgDW1ZmG955yiZcuMXfNWIPLBQFAmaOgH/PBiiTL7MiK2mHjOKibj+hhaEQOQi0qVYEfZrKjlOXhlBYH74wACkMPz4HT8Xbz8qZCLW1sbFBZGQke1uoQs/ZiBBUiXJh13x7Jat3IkOqPmABKPtCiEBAIPAlAna2Ntgzrj1SMlNPY3sLCg6Vdlc/iR+arFvMxyslKF0uGSN3sXz58ggMZLO5Ehn+joQcPFHwLJI1E92WwuPHj+WqSe3pjKe030zxoGahp10lCq6j6kucHwDNesSSfdh95qZ2ARCWCwQMjEC+TGmwZHBzxUx3gkSKd6G45/AKU+U6A5ifkINfC6CF3OmUKVMGp06xysZj28lrGLPikNwhRXuNIzCje32UK5CFPYvv+s3HuzBWIAp7TKEoENAaAj/VLI7ujcorMpu26luMWYW7T9kMa4rG16ryKX8/2KYg1nd5MmTIEIwfP16e0v+3HgFgTEIO/gWANHJ79vf3h58fkd/JF2JOevSSXSJP/oBCwywQODmzG+xteek8m45dwbjVAWYxD2GEQMDcEZja7Xv4FsqmyMzXIWGoOVD25q6iMbWufGJGNzgwUhYXLlyIjh07cqdPDLQ94nPwVAKHRUNH+e9ubjyikvI9ZuNjVDR3MkJPgwjkz5wWy4bI3ij6PNM2v6/GzUevNDhzYbJAwPgI2Nva4MCkjuxslViL95+7iaGL9hl/AhodkRtjdODAAdSoUYM761UAfojPwdcBsEtur1SkXgE5Pkp2nSHO3+WCrvH223//Ed6pKJtDvjx/E4Lvhy6Vryg0BAJWjECxnBkwvx9RlfOFAu3qDF6EV+9YiVb8gTWqeWRqZ7g42su2/tq1ayhQoIBsPZ3CbgB143Pw/QBMltsrse5QmTuOnLhyD71nSQF/QqwIAe7ZFEE0fPFe7Dl7y4rQElMVCKiDgF9DqjxHiVJ8efY6BPV+FS/Y+iDIpeCmBTNVlWPKiVgem6/T5FYCkJ3IXr9+fWzbxitO0H/OThwR+e/M66hNtXL5M2N69/rs6Plag2gFEabNyQurBQImRCB5smTYNvZHpE/FO04l0yngbu6O01i0+5wJZ6KNoZcMbIaCjAJAhDGlntM3Q6jMezHS+9rBXweQV26H8+bNQ6dOneSqSe0r9RbV41jAaVhp17ifkdbDlTWDo5fuoN8c2adIrLGEkkDAEhHIkyk1Vg5tpWhqFDPl23M2BItt4jBO6VYPFZk03FR6nbhlGELbm7m/dvAUzky9ySbPffToEXx8fBh2AGW7z0JUdAxLVyhpEwEl2/M/T1iPK/eea3PiwmqBgJkg0KpqEfRrzmNZi53CPw+D8MMflFUtJCEERrb7DvXK5WcB5OrqitDQUI4uUXtKDjmuM88FQDZriJOTE8LCeNultP1QqutMsDYhONMWOiZHoHyBLJjmV4+1PU+ESL69KONCvBCa/EIKAzSNAJGrrRneBjm82ee80vZxyzGrcEfkxid4L/Rr7otWVYuy7hV3d3epOitDKOfc42sHT9Xp98rtLH369GxS/As3H6Pz1M1yhxTtNYyAku35zcev4o9VhzU8e2G6QMB8EMiZwQtrhrdWZFDQ21DUGbJYUR+WrNy9YTn8VKsEa4oUZMfMTqMVt1SzPe4KvguAOXItyZMnD27cuCFXTWo/YU0ANhy9wtIVStpEgFsjmWbb9o+1uPEwSJsTF1YLBMwQgc7fl0bH70uzLaNV/KR1R7H+iFTbRMhXCHSsWwqd630uzy4Ln9SpU+PVKxbXRxQAu68d/DQAvWRZAKBBgwbYunWrXDWpfe1Bi/BSREOzsNOiUsY0KbFl9I8s02M+fYJvzzmIFPEaLPyEkkAgPgRsbZJj9/j28HB1YgMUFhEpBUsL+RYBEzl4OvVO/rWDp+T42nIv0qRJk9C/f3+5alJ7emCHR9LLhhBrQGBmzwYoyyxfufHoFYxfI6hpreE+EXM0LgKl8mTE7N6NFA166K/bGDSfXIiQuAiYyMF/9u1xt+iJqSaH3Mtz5MgRVKpUSa6a1L5sd39ERX9i6Qol7SFwbk4PVnAdzfSnCetw9R6VSRAiEBAIqI3AH7/UQo0SFGfNk5iYTyjXczboW8j/I9Dp+9KgD0cUbNFTFLJU5CPWwVO5m49U1l2uIRRBT5H0HBEUtRzUtKvDPX+ncz7aAvzwUez2aPfqC8vNGYFUbk7YM749kieXdnZZcv3+C7Qbv46la6lKPRqVx481i7Om5+npibdv33J0qbCLbVwHzyoyQ3l6ISEhHAPwKCgYjUYsZ+kKJe0h0KxSQQxqVYVleMDfdzBgriC3YYEnlAQCeiLQxLcAhrSpqmfrb5sRT321fvMR8oHWikIIgUEtK6NZ5UIsMFKmTMn1r+EApFV37AqeyInPyrUiQ4YMePz4sVw1qf2mY5cxbvURlq5Q0h4CAVM6w9VJftEFmmm3aVtw9p9H2pu0sFggoCEEUtgkx64/fkaqlM5sqx+/DEbD4WLhFgvgbz9WR92ysslhJXUXFxcux8w3efD1AGyXe1Xz5s2L69eJ3Va+DFm4BwfO8wrUyB9NaJgSAbsUNgj092ObILjn2dAJRYGALATK5MsE/54NZenEbUyr+HpDluBFMIuBjT2uuSpO6fY9KhbKxjJPAVUtBSulo0FjV/BUWX6+XCtKly6N06dPy1WT2tcdshgv3oqbgAWexpRSu7tI53scuf/8LZqOWsFRFToCAYGATASoGM28vo1RNGcGmZr/3/zJq3doMGwZW9+SFJcOao4CWSVfK0sUFpu5DyBrXAc/HMBoWRZQTl3t2ti9m5caUaLLDLnDifYaRaBXkwpoW10qbiRbiLmOGOyECAQEAsZBIEeGVFg7XHZR0c/G0Sqe4quevGTRrBpnkkYahSr3ZfBKKXs0oqglqlqm0AOzYFwHPxtAV7md+fn5wd/fX66a1F44eBZsmlQ6MaMrHOykoE7Z0mDYUjx5xQvklD2YUBAICAQkBAa3qoymlXjBYaT/NjQc1fsvsHo0D0/pBDcnB9k43L17F9mzZ5etp1OgbfWycR38FgCyD14mT56Mfv36sYwQDp4Fm+aUlJy/0zZV+Z6zESmKy2juuguDtY2AV0pn6VgtGVWlYUrNQYvw2sqZSo9O7QJnR4k1VpYEBgaifPnysnTiND4EoFpcB38SQDm5vW3atAmNGzeWqya1Fw6eBZvmlFK704OiA8vuk9fuo9dM2bGfrLGEkkBAIPAlAkpY2Kinp6/eob6Vn8Ufm94VTvbydy/JtzZt2pR7S26LXbDHvp5RmVjZNEbnz59H8eK8JH7h4LnXTlt6XeqXwS91SrGM7jN7O45fpngRIQIBgYCxEXBzdsCBib/AxoZPflOh52xERBLvinUK93iSjr579OjBBY2iktvFXcFTyRrZhYGfPn0KKhcrV2jLtVyPWXLVRHsNInDoz45I6ezIsvz7oUvw/M17lq5QEggIBJQj0LJqYfRvzqMip9Gv3nuOnyasV26IRnsInOkHO1vZBLEYMGAA6AicKTMB9Ix18LSKJw5QWVbQ2UxUVBRsbGSpSfY+eP4WTUTqE/PaaUeNiDNOz+rOMlg6f+8xW1SPY6EnlAQC6iBA5FQHJnUE/Za54ttzNsKtdBVPzz8Odi1atMD69ewXozEARsQ6eKItkp2Q7uDggPBwYsSTL4FX76OnvzhblY+ctjTo7InOoDhy4dZjdJ6ymaMqdAQCAgEVEWj9XRH0bVaR3eO6gEtSzXhrlLNzeoC4BeRKxYoVcfz4cblqse37AKDy7xLRTRoAsst0EU9ucDAx4smXLSeu4veVh+UrCg1NIVClSHZM6lKXZfNvyw5gx6kbLF2hJBAQCKiHgBqr+LJ+/oiyskpz6TxdsPMPHsEXxbb99ddf3Iv4A4BVsQ6eGG/uyu2JStkFBQXJVZPaL9h1BvN2nGHpCiXtIDC9e32UL5CFZXDjEcvxMIj3AskaUCgJBAQCCSLQonIhDGhZmY3Q0IV7sf/8Lba+FhWrFMmGSV2+Z5meO3du3LrFxqsmgP2xDj4/xULItUJJoZlxawKw6egVuUOK9hpCgHalTvt3Z0fgVuk7D+9FVSoNXXFhqiUjQKv4Q392Ym03Ey5h4R9Rpe98EMudtUi3BmXRvjbVcZMv5F8piJ0plNomLf9pi55VSS5r1qwgth2ODJy3C4cv3uGoCh2NIKCE4Cb4fTiqDRAsWBq51MJMK0Gge8Ny+KlWCfZsGw5fhsdWRF9LnP7Fc/mw8HJzc8P79+wMIiokIL0dkIOnHAjZdVtz5szJ3kLoOm0zzv3DKzPLQksoGR0BF0c7HJnahTWuiNFgwSaUBAIGRSCVmxP2TfyFPcblu8/QfuIGtr7WFE/O6AZ7uxSyzY6OjgZVkvv06ZNsXQAxAKguN31LDr567H69nN6UlIptO24tbjzgnd/LsVG0NR0C3xXLjgmdeAF2ftO34syNh6YzXowsEBAIxIsABc1S8CxXyveYhY9WQj19fq6Uii5bbty4gXz58snW0yk8A+Adq0wOnp7CO+X2VqBAAVy5wjtHbzxyOR6+EAFUcjHXUvsJnWrju2I5WSaLAjMs2ISSQMDgCGRJ64GNv7VljzN6+UFsD7zO1teSItfBb9y4Ec2aNeNO9QIxwcd18EQmv0lub4ULF8bff/8tV01qX3vQIry08iIELOA0okRvjccVVJCr3GcuQsMjNTJbYaZAwHoQoJzuzaPbwic1r5Rp+McoVO4zDzG87WdNAc118KNGjcJvv/3GnetWAI3iOnh6VZBNmVO0aFF2nh6VEaRygkIsEwFHO1vJwXPkXVgEvus3n6MqdAQCAgEjIFAuf2bM6NGAPdL3Qxfj+RvZ3Grs8UyhqCTImAq4bdlCBV5ZMgNAr7gOviWANXK7KlasGC5coN0A+SJWaPIx05KGp6sj9k/qyDJ556kbGLXsAEtXKAkEBAKGR8DZwRYBU7ogeXL5DG1knTUE0ZbKkxGze39eSMu6KCVLlgQVcmPKAACfSezpCrUBsFJuZyVKlMC5c+fkqkntrSnQggWQxpWyp/fEupFEpiRfBs/fjYN/3ZavKDQEAgIBoyEwsGUlNK9cmDWeNdSZ6NmoPNrV5FVapQy127fZz0Dakd8Ye2HIwVPExHK5V0qJgy/XfZYoIiIXcA21b/VdEfRjclfXGbwYQcGWvX2noUspTBUIxIuAkl066tDSA2nXj2iDbN6yC7RKWHt5eeH169fcO48C7D5vrbNX8GKLnou/5evN7FEfZfPzKGoFg53l3x9ihtpHgILt9k5oD083qlUmXzYcvYQJayy3AA03wI4qtDo6OiImRkpjlytEE0hvFW/jruBZW/TCwcvF3nraUwU5qiTHkbLdZyEqmnVzc4YTOgIBgQATgVqlcmNse6I9ly8URU/loKMttAAN18HT2TudwTOFlv1ecXVpBc8KsitSpAguXrzIsqPGgAV4815E0bPAM3MlJdGjb0I+oMbAhWY+Q2GeQEC7CFBtcvpQgJxNMvoGbJLbSP9GTpfOx2M+0ef///zp03+SI/6aR97NyR6Hp3Rmg2HJfoDr4OfMmYNu3bpxMT0JoMLXDr4FgLVyeyxUqBAuXbokV01qX+/XJXj2ms2zyxpTKBkHASpKEcD80e89exPDFu8zjqFiFIGABSJgZ2sDLzcn5MjghTQeLnBztEfOjKmR28cLPqlTIjl5dKZ8jIrGo6Bg3Hn6Gvefv8WHj1Ho2bg8bJh9/rpwL/ZZYIU5d2cHHPyzEwvltm3bYuVK2THvsWPR6uiL9CVawVMs/2a51uTPnx9Xr8ouQicN0/y3lbj77I3cIUV7DSCQOqUz9kzowLL095WHpRQaIQIBgUDSCJBj9UnthsLZvZEpjTtoyzydp2vSimbS4tajl2j9u+wMbTOxPmEzGlbIj2E/fMeyU2GKXF8AU+MOTA6eCtbukGtNnjx5QJy5HPlpwjpcvfeCoyp0zByBglnTYcmg5iwrm/22EvfM4MWPti+JrCe9pysypnGHu4sjHO1TwN42BWiHgv5ub2uDZFQT9z+AVjYhHz4iODQcEZHRILaup69DpJUOlbyNFDEFrPtBKH2LgKO9LYhopkRuHzQolw92tvKLmZgTrnQOT78fSxLKf6c8eI5Qldb79+9zVEmHFuvEZPdZyMHXACB7X1RJNbnu07fitCgmwr2IZq3X+rsi6MtMkas5cCFeh3ww6vwcbFMgg5cbsqb3RBoPV1Qpkg1FcmQA+W615PaTV9h68pq0vXnpznOEhn9Uq2vRjxUgQOfjRbJ7o3bp3KhXLh+7Jrs5QmWK37yhcTg3p8f/Xv5lCsU/UJnY0FB2mnBRAF/wx5MVVQAclmkLlNSDH7ZoL/aeuyV3SNFeAwiM7VATtUrmZllaqfdchEUYloM+pbMD8mVOg+wZUqFpxYJsTm3WBHVK95+/wZI953Hy2n0Eh0Yo6UroWjACdK9WL54TvZpUAK3cLVG6Tt2Mczctq3Q4N8Du0aNHyJQpE/cyU4ocFQgI+XoFT1F3x+X2miFDBjx+zLswf64/ijWHeQF6cu0U7Y2LwJbR7aRtbY6U8fNXPW3G1iY5cvl4oUC29GhbvZjZnVFe/PcJFu89h7M3HknRy0IEAhSd3rRSQXSuV4YdwKYVFJfvv4AZmyn423KE6+Dnz5+Pzp3ZWQnkjL85F6AVfLG4zDf6wpwmTRq8eME7R1+85yxmbzut71CinUYQIPKLs3N6sKwNC/+ISn3msXS/VqJUvcLZ06NK0exoUrGgJh6SoR8+YvSKQzh66Y5w9KrcBdrrhF5G65fPhwEtKiGFjY32JsCw+NT1B+gxYxtD0zxVsqRzx8ZR7VjGKSwys0sXT/fF2OTg8wKQXaDXw8MDb97wIuG3nriKsStlnwqwQBNKxkOAgtBOzuTlcJ6/+QhdprIrKEl5vDl9vKQtzTbVimrCqcd3ZV4Gh6HvnB248SDIeBdOjGRyBPJmSiNVaPNwdTS5LcY0gOJSGo2QzZRuTBNljdWtQVm0r80jqqHA9Zs3b8oaL07j8QCGfK1MDp44Re/J7dXZ2ZkdDHD2xkN0m/5FsJ/c4UV7M0RASQ788n0XMGOLvK06unkzpE4J34JZ0KNRec1HFMe9pNtOXsOUDccNHpNghreRVZlEGRs9GpZD2xq8wiRaB+vBi7doMnKF1qfx2f5d435GWg9eqiLtir98+ZKLBdWU+SaBnp6RaQDI3msnwoTo6GhWtODTV+9Qf9gy7kSEnpkioKQAxaD5u3FIzypylKJWLGcGDGpV2SRBcsaCP/rTJ3SctBFX7j031pBiHCMiQKv15YNbIn0qnkMwoqkGG+rI33fQfy7tLmtfbJInw5nZvCNK8qXEQU/fTCkF4JvyruTgaU+IlZsUFBSE1KlTs+wp0YXq0guxJATSerhg17j2rCk1HL4Mj1++S1SX+qcI/a4Nykpb8tYif64/hnUBl76hCrWW+VviPHNk8MTSQS3gYGeZ0fH6XrMZm05g+YG/9G1u1u0c7FLgxAzeEeXRo0dRuXJl7vzijaCnzmKT9ShX81+KlwAAIABJREFUx15u72fOnEGpUvTiIF+Eg5ePmblrFMiaDkuZJDe1Bi3Cq3dh8U7RO5Urujcqjxolcpk7BAazb/2RS9KWvaUW5zAYcGbYMWV1LB/SwmoC6RK7BJPWHcG6gMtmeJXkm5TBKyW2jf1RviKAAQMGYPLkySxdAA90R+3f6Mc6+EcAfOT2vmrVKrRu3VqumtReOHgWbGatRMxaw9tVY9n4Xb/5eBf2ZU541nQeGNextsSrLQQIuHgbQxftE9X2NHwzZE/viTXD20jFXoQAc7adwqI93+wsaxKaLvXK4Je6vAUv1Xa5cuUKd94biAE+PuXYu+wsANmhf8OGDcOYMWNYRgkHz4LNrJV6NS7PDhaq2HsOPkRESfPLlt4T4zvVkb6FfInA8cv3MGDeLrGS1+CNQdTHW8b8aFXHS0ldJkty8EoC7Ly9vfHs2bOk4Ero/wcCmJSYg6eQ9gZye2/SpAk2btwoV02s4FmImb/SpC51UaVIdpahVAc+jbszJnaug9wZKe5TSEIIbDp2BePXHJFKewrRBgLODnY4MLkjiKPBWELlXaOjP+HDx0iEhEXgffhHhIVHIjwyWqqR8Ox1CF6+C8P7sAh81NVLIG77lLp6CxT85+bkAHu7FKDzZWLTo3nEfigOhgreKNmNsBQHT1icntWddWk/ffokBdhFRrJZPOsA2JOYg58JQLZ1ZcqUwalTp1iTajxiGR4GJR5UxepYKJkMgdW/tkKujLygy/3nb1n1GbvcizZ+9WFsPCYq78nFzVTtD/3ZCUQ9ayihlz3KuiDqY8pSotLLW05cM8pOT4mcGTC3XxPW1GZvO4XFFrBFTy8/x6d3ZWFAsWzkS5lCb/nZAMRboSZ2i75/Qkv8xAbNmzcvrl+XzZEjdTl+dQA2HmOfOTCxEGqGRODotM5wdpAdq2lIkxT3TYvk//AfPn363ycyOlp6aNKHVkjE3kerGNsUyaU8fJtkyaQVDafYhFxjf56wXqTQyQXNBO2pdCiVEFVbyKnTsdbdZ6/hvzUQF249UXsIvfpzcbTDkald9Gr7dSPKEFlz+Iv6KKx+TK2kpIpmnz59MG3aNO4U3gJI8Cwz1sFTpNwquSOkT58eT58+lasmtT926S76ztnJ0hVK5oeAEppac5kNOezIqBi8Cw1HUHAobjwMkurT//v4tSwTabvuxxrFJarc9Knc4Opor2gbM6HBIyKjUGPAQnz4+L/YBSHmh0AqVyfsm/SLqobFfPqEJy/f4fdVh03m1ONOyM3ZHof/5HGoj1p6ADtP88qOqwqqws5G/VQN35fJx+olf/787IUygHgpamMNiXXwlQAckWsdnRuEhYWxVisRH6NQodccuUOK9maKAJ0tBvr7mal18ZtFZ1+h4ZF49iYE+8/9ixUH/jJYrjllA5TNl0k6v1Rzdb/j1HX8tuygpnC3JmPPzempWulh2kG6+eglus/Y+k3GiSkxdXdxwMHJnVgm9J+zE0cu3WXpmpMS1eCgRQ5HFDLYDQPwe0LjxlqUA8C/HOOePHkCigDkSOluM0VhDQ5wZqijhOTBWNOhLU1a/bx9Hw6igp234wyMHaZWsVBWjPm5BpxUdPRdpm7GeQsruWmse8KQ49Qrlxcj21VXZQgKiuswaQPuPuPV/1DFiAQ6SeXmhH0TebsUv0zagL/vsKPHDTktvftWsrgh5jp7e3vQYoMp3+tW8fGqxzp4OjglNjvZ9GAbNmxA06ZNWbaV6zFL2hIVon0EaGV6dBrvHM6Qs5eCj2I+4fGrdxi15ACuPZDNymwQ8/o280WLKoVVKYpD0dANhi0z2O6DQQCwgk65ZUPjQkP377aT1zF25SGzRUwJg2X9oUvw9M17s52bPoYpOaJYu3YtWrVqpc8w8bWh9QmViE0w+CLungIVnKHCM7Kkd+/emDp1qiyd2MYVe80R54cs5MxPSclNbojZ0Er9+Zv3GLpwL67dNw+n/vU8ietk/6SOUnS10m37kUv2Y9eZfwwBpeiTgQCVKR7SugpD8/9VaEu+z+wdOHk13gDp+FdsyQCq6uju7CAVYqpUOBtK5vZB5nSeUooelSW+fO8Zdp+5ict3n+H1uzB8VLjIypLWHRt/45VIrT14EaiCopalbbWi6NXUlzWFunXrYvfu3SxdAERQlykx5bgOnkapLXek0qVL4/RpXm335r+tNMstJ7kYiPaAh4ujlOdrSqHVDp2przl0EfN3EXeTNmTz6HbImDqlIif//kMEqvVfII68zOCSU1bFmdmys46/sJyce4fJG3DlbtKFhqjICa2iezf1RdWidNoqT56/CcEvkzdJL8Qc8S2UFVO71eOoosaABXjzPpylay5Ku8e3Rxp3F5Y5WbJkwYMHxDTLksUAOujr4GkZ3lvuMDly5MC//7KO72FJhQbk4mZp7ZWcw6mBxZuQD9IZ5aMkCtaoMZYh+tg97mekYZaZjLVn4LxdOHzxjiHME33KQCC3jxdWDeNReMcO02/2Dhy9nHQVb6o9TjXI1ZCFu85g7o4zsruijJEejcvL1iOFKn3nSaQ7WhVHO1scn8HLf6c5U9n1Dx9Ytd5InbZNEq21G3cFT1bOlgs0RQC+eMHbAr347xN0/HOT3CFFezNEIHVKZ+yZkOjLpEGsPn39IXrP2m4UQg+DTCBOpwFTOsPVic8jQPnQzX+Tne1q6GlZXf/7J/4CTzcn9rxXHvgL0zadSFS/fIHMmObXQLUI/djB9Knq+LVhY9vXRK1SuVnzrdBzNiIi2SVSWWOqqZTa3Rl7xvOee7TzXbasopezYgAuJjafuA6etudlHwZQBGBExJdFQuQAKDjp5aBlvm2VBNrInRVtxS/bfwH+WwLlqipqn8bDBb+2roLyBbMm2g/Zd/bGQ0zecBz3n73RO1Lf2d4Oh6Z0UsRV3mXKZpy/9VjRPIUyHwEH2xQ4MZNXMpRGJW6DSr3nJnrUMrVrPfgWTvwe5M5g+b4LmLHlpCx1OmLKlMZdlk5s49Ld/KXMFq1K04oFMZgZa9G2bVusXLmSO3UCjUq9J8pvG9fB5wXAoqW7ffs2smfncZCX8fO3iNUX9ypZil46T1fs/ONng06HHOfMLSexfL9x60fXK5cPI5lV8mIBISpeylf/GJX4auWnWiXQvWE5No57z93EsEX72PpCURkCFQpmxTQ/3nk0jdx81ArcfU7kZPFL1/pl0KEOr2KZPjMbvyYAG4/qzzBKqd+U68+RDxGRqNh7LkfVbHSUvNwoLDBDvDVJRnHGdfD0NsA6DJg3bx46deIRHfj2nC0VPxCibQSoMMWO3w3n4JfuPS/RcRpT6OG1bngbZPNOpeqw9X5dgmevEw5oUlKViqh1fXtpe9tTVbCN3NnaYa2Rw4dX3vhB0Fs0GZHokSr2TugAr5TOBpkVvUBX6TMPoRH6Fz1Rwn9B3A3E4aBVUTJ3mrPC8/dBACYmhd3X1DsPdXl1Sel98f+Ux7d69WpZOrGNKfI3OFTbUZSsiVuYEm3R0dus2nLjQRA6T9lkknTKEzO6wsHOVu0pgZzwwxdv0fS3FdKfv5byBbJgevf67HFFsB0bOkWKSqPnW49djVuPXyVqw5lZ3WFjI5uuRK95nb/5CF2mbtGrbWwjN2cHHP6Tt7hbeeACpm2SdxwgyzgDN6YXLXrh4sitW7eQOzcvbkE3XlUAAUmN/bWDJ3L4ukkpff3/+fLlw7Vr1+SqSe3HLD+IbYGskwHWeELJMAhk9/bEuhE/qNb5x8hoyQEmttJVbbB4OvJO5Ybtv/9kyCFAc6w1aJFUxvNr2fH7TxKPPUd2nrqOUYK+lgOdIh0ne1scY1YUo9Vz+Z6zkyT+2jqmHXxS8867E5tcVHQMqvabh/CP8nZTlQSZDVmwBwcu8DKwFF0olZRbVC6MAS2J5V2++Pn5YfZs2THtcQeibaIki2R87eD/ADBErrl0lkCUtRwJvHYfPWdu56gKHTNCIEs6D2wc1VYVi8atDsCW41dNysxmqB2JrwGKjIpG5b7zvnmwNyiXD8OZ5/7hHyPh20vbZ5uq3EhG7qRcgcyY0b0Ba9T1AZcwcd3RJHUbVyiAoT/Q4k1dIaa8rSfkL9KK5fTG/H48JtOkjqrUnaH6vVHMEcUeccTHx4ftMwFQneiC+oz7tYOnJ/RyfRTjtqGzhNDQULlqUnsidCjVjcrRC9EyAtnSeWL9KGUr+LDwSNCPPsQM8mI9XZ2wX+UqYAld34QCm6gEJ5Xi5Ei7cWtx/UEQR1XoMBH4vX1N1GSmi8kh/ZrTuxFK5iGGUnVEn7S8hEbqWLcUOtfj1TKvPmCBVBdCi6Jkt4bmq/D8fRyAofrg9rWDJ7aCxBMwE+iVcuEpJ54jZf38ERWj3VQJzpwtTSe9pyt2KIiiX7T7HObtPC298JmLbB3zI3xSpzS4OVSe9rv+C74ZZ9ngFsifJS1r/PGrA7DxmP7R0KxBhNIXCByZ0hkuTB6Dqv3mIyRMv3Rj2xQ2mNe3MQplS6/4CqwLuIRJeuwcJDTQ3D6NUSK3D8sOSgcMkxHQxxrEQEpKsoZu3ryJPHnyKLGsDoA9+nTwtYOnp0nS3Ijx9Lx8+XJQXh9HfHvNQbioac2Bzmx0lOTB95ixFaeuU3yneUmVItkwqQsVazK8lOw645uAO9+CWTDVjxdsd/jibQycJ5vWwvATtdARbFMkxyl/Hj0tpU6W7yHvPDaFTXKMaFcNdUrzHAW9SA9btBf7FZ6BKwn603IOfM9G5dCuZgnW3dy5c2fMnz+fpatTojcqvc7E4ytgS2GcsvOCWrZsiTVr1rCMbjZqBe4lkvvJ6lQoGRUBJUx2jUcsx8OgYKPaq89gxPFNZTDdXSiD1HBy5sZD+E3f+s0A9OMMmNoZLo7y2e3evP+AGgMWGs5o0fMXCCippqjkZSxnBi8sGtBUKj+sr1y6/RR95uxASJgyilglaWJPX71D/WHL9DXZrNrR7/LkTD/Y2dqw7FKY/05c1HoXHIjPwRNLRg25ltOWw40bN+SqSe3nbDuFRXvOsXSFknkg4OnqKFVG4whxyF8y05rQBbKkxdLBLTjT0lun/q9L8fR1SLzt1wxrjZzMvOq6QxbjxVtebIzexouGEgLuLg44OJmXLjZhzRFsOHqZjSSt5snRT+pSVyo6E19lQqo3fuHWEwxfsh+v3qlTvY0q1h1kpshtO3kNY1aYbwncxC6Gm5M9Dk/pzL5ejo6OSthf/wTQX9/B43PwowEM17eD2Hbp0qXDs2fP5KpJ7f95GIQf/ljL0hVK5oEAlTw9xPyxD5q/G4f+um0eE4nHinpl82Lkj9UNYl/g1fvo5b89QTrbX9tURSPfAqyxe87chsBr7EpVrDGtVckrpRP2TviFNf22f6zFjYfqBESS86H8bNp9IqJ6Sr+LjvmEF29CER4ZxbIvISUlx3K/LtqLfeduqWqPsTorksMbC/vzMgcCAwNRvjyvMI9ufnRmuEvfucbn4JsA2KhvB7HtlHDS001Yqpu/dDMK0SYCFO1NUd8cmbzuCNYG8FcwnDHl6NCPpFO9MqCIYTWFgqpqDlyYaIBpufyZMaMHL/Vq1tZALNl7Xk2TRV8JIKDE2Wl1p4VK007sTPFe8iWxXSv5vRlXY2aPBiibPzNr0AYNGmD7dkVp4Xqfv5OB8Tn4ogBYZN9EdkOkNxwp12NWkiQPnH6FjnEQcLS3xXEmycfSfeeNXjhGLiq07flDtSLo1cRXrmq87alEJpHcJMVNT+xogTO7sdjLTly5h96zdqhir+gkcQQypk6JLWN+ZMFUe9AivFRp25xlAFNpSOsqaFJRr3Tsb0ao1n8+gkP1yxpgmmcQNXrOHZvWJd5jEH0GTJ06NV69SpytMJF+iKhA1nZefA6e8oJYEU+TJk1C//56Hw98MY/KvefK4kDWB0zRxngIUMBJ4Ew/1oC7Tt/AyKUHWLrGViqdN5NEI0vnnlw5cP4Whi3el2jFsLh9c7np6SWC6m0LMTwCBbOmw5JBzVkD1Ri4EG9CWGVAWOOppbRldDtkZFaR02qZ2MxpPbDpN162WExMDGinm76ZQiR04+XoxufgSZ/FSV+5cmUEBCRJjxuvfeZ+DisHVGtsS/zYlDLDkTM3HsBv+jaOqkl0qGY7rV5qlMgla3wqBUrn4n/9+1SW3tJBzVEgazpZOrGNGwxbiiev4g/gY3UolOJFoEDWtFg6iBeMScc0rzXm4OmM//Ss7qyVLKXole42U+8yyuZ0y3WuVxod65ZmmURF2bp04R1j6gakMpOn5AyekIOniDfZd2vWrFlx9+5dOeN/bnvk77voP5eo8IVoEQElZSNvP3mFlmN4xYpMiRXR8zbxLSBtU9rZpojXFAorefwqGL8tPYC/mZkC/ZpXRKuqRVhT7T93F478TZk1QgyJQN5MqbFiaCvWEFp08EqY3C7deYoOk2SHebGwVVOJnnEUZ0QpkRzJmDEjHj9+zFElHQpQ8wDwTk4HCTn43gCmyumI2qZMmRLBwazdfVCxg3I9ZotAO7mgm1H7Y9O7wMle/s2v9Zxt+uFnT59KopVNnpy27v8DEfJR9PLdp68VV8IrkcsHc/s2Zl3p+TvPgD5CDItAdu9UWDeiDWuQWoMW4tU7bW3Re7g64gAzLXbh7rOYu/00CytTKqVxd8bu8bzqcWQ3bc9HRupfiveruepV//1rfBJy8DUB7OWA+fLlS3h58eohV+o9B2ER6qZycOYgdHgIbBnTDhkZla4+URZFV1GPICHUaTuUiDU45/4Bf9/BgLl6Z9XwLrzQkoqOUPERjtQZshhBGuMrSJ/KFTt+5823y5RNOH9LLyI2DpwG06lePCfGdazN6l+F8rAE9lK5gyfk4Ikph1XHb9GiRWjfvr1cO6T2FFWsFgkDywChpAgBYtQqnN2b1QcVHDInHnrWJAyotGd8B1BpTrny+GUwGg6XXT9K7jBW317J6k6LKWNVi2bHxM6yK4tL90mdwYsQFKwO2Y4xb7wVQ1oib2ZevZVWrVph7VpFXC+UrkBV5GRJQg6eOPjoCsjmyKxZsyb27mUt/qUAJEHMIev6mVVjyoml3FiOlO3uj6hoUXAoIexWDm2JPJnkP1xod4QyVD6IWg+c21JvHSVMjn7TtuDMP4/0HsscGvZpWgFtqhVjmfJdv/l4p2dhHdYABlCiwNoABex1Li4uCAtjv9SQojuAaLlTS8jBUz9UnLii3A7Tp0+Pp0/lRQnHjqGldCm5uFhD+8GtKqNppUKsqWo1bYY1WYbS2PY1UYtZirT9xPW4fJdVQ4phqXWqKHEAk9cfxdrDlzQF3ML+TVAkRwaWzVr8rVMWC2WzcIRogm1tbUHfTKGiEiwe8MQc/O/61pyNa7SrqytCQnhpOVRRjirLCdEmAh2/L4XO3/NqQ1fsPQcfRPxFghf++zJ5MeonHl3u6OUHsT3wujZvKo1Y7WiXAsdndGNZu//8LQxdyNv1ZA2ogtKJGV3hYGcru6f/sZbO/KZyouyOjKwwqXMdVGHuTk6bNg19+vRRYjHFxO3ndJCYg6ew3U1yOyXGr4iICNjZyY+mprFE6Vi5iJtP+5ZVCqN/i0osgyr3mYvQcHaEKWtMLSnRGe+uce1ZecfL91/AjM0ntTRdzdlKAZCUF86R52/e4/uhSziqJtGxt7WRgj45QlklzUev4qiaTIeq5h2b3hXJKV2GIT4+PnjyRFFQIZFgvGAMHS9VbWw/tNfK2jfatGkTGjfmpfVoMWWEA7wl6tQplRuj29PLpnyp2m+e4vKV8kfVlgZRZMopCxo7u+NX7qGPoKw1+MWmM1raqueIlmJQlBSW2nriKsauPMyByGQ6xHexcRSPvY6MpsVuVBQ7O+wiAF6wQwJc9LFAUhFsOtyX/dpCzp2cPEfoQUQPJCHaQ6B8gcyY3p1XGKVa/wUIDg3X3qSNaPH2sT/C24uYpOXJ45fv0HC4Nmtvy5upaVtP86uHCgWzsoyoMWAB3rzXxv2fxt0Fu8fzMqXGLD+IbRo7LhrQohJaVCnMuq7Hjx9HxYqyQ9nijtUVwFzW4Ho4byrxJbuagJJAO+LpHqKx8ygu+JamVyhbOiweyAtEqTFgIYjwRkjCCCwb3AL5s6SVDVHMp0+o2GsOPkaxObBlj2mNCm2rF0OvJhVYU28ycjkevOCRhLEGVKCUKY07No9ux+qh9djVuPWYXWyFNaYSJXvbFAiY0ilBpsqk+i5atCj+/vvvpJol9v9UXIaKzLAkqdX5LACyI0eUBtpRwJWoHMu6niZVyu7tiXUjfmDZII5mkoZtzM81ULt0nqQbxtOi+W8rcffZG5auUNIPASX3f/85O3HkEo/mWz/r1GuVy8cLq4e1ZnWotVibnD5eWMOcKwHk6OgoxaQx5TUAOn+XnR4XO15SDp7IlWWThFOg3fv37+HsLJ+Ygwyj1YbI22XeEiZU807liu1MdqvagxfhpQbJL4wJd2PfAhjapipryL6zd+DYZXH0xQJPTyUlJZN3n/kHI5awAqX1tE69ZhULZcWUbvVYHWotiLpn4/JoV6M4a663b99Gzpw5Wbo6pT8A/Kqkg6QcPLs2/OrVq0HsPRzRan1kzlwtSSeth4sU6c2RukMW44XG6Do581SikzW9JzaM5O2QTNlwDKsPKdoqVGK6VejapkiOU/68SPrQ8I+o0meeJiqsNa9cCANbVmZd0/I9ZuNjFHtByhqTq0TX89DkTqzAVhqzRo0aOHBAURls8r+KfrRJOXhaglNSu+zi13Xq1MGuXTwO7CHzd+PAX7e510XomQgBJcE3lCZE6UJCEkaAfqyB/n6wTUFEk/Jk/ZFLmLiWuKuEGBKBU8zrQzZV7TsPIR8+GtI8VfpWsqot232WVFhMC5IjQyqsHc4rIETzo51sBUIguQJQFHmpjwXnAcjeo1ASaHf88j30mb1DATZC1RQIEFc6caZzRNQt1w+1PePbI7W7i36N47QKvHofPf23y9YTCvIQmNipDqoW49E1Nx21Avefv5U3oAlaK2FVLOPnL1VZ1IJ0a1AW7WuXZJlKRdfSpJFPLR1nsDUAeIEOcTrRx8GzGO2Ie5fO4TlCUb/0pieKj3DQM52OV0pn7J3Ac/BaebiZDt3/jbzq11bInTG1bDMevHiLJiNXyNYTCvIQqFAgC6Z1ry9PSdd68rqjWBvAoh5hjcdVmtWzAUrny8xS10pRKVub5Dj4Zyd27fcffvgBq1YpIvShMxDFW276OPhaAPbIvZq0PfHq1St4enrKVZXaV+k7D+81sF3FmpyFKqVyc8K+ib+wZqe19BnWJFVQ8u/ZAGUYD1c696TzTyGGRcDJ3lZiPeOIVljelFRVK9l1hiYypHJ4p8LaESbbnv8PANVcV5z2oo+DzwXgJueG9ff3h58fj9Kw8YjleBikjbxQDjaWqKPEwf84fh2u3WexMVoilAnOaVCrymjGLOhTrf98BIeyU3asCmfuZJVQ1tKYWkgj2/77T/BO5SYbIuKhL9l1pmw9Uyj0alwebZnR88HBwfDw8FBiNlH9faekg1hdfRy8g47RTnagXdmyZREYGMiyc/rmE1ix/y+WrlAyDQKebk7Yz1zBt5+4AZfvPjON4RoalZw7OXmOiF0SDmrydXb+8RPSecp3gDRSs1ErcM/Mz+EP/dkJRFcrV6iYFHGcmLtQ9PzhPzvB0Z5XT6Vr166YO5dNPkfwNASwTQ2c9HHwNM4pALLLhKVOnRpBQUEsO4mUg8g5hGgHAeHgDX+tSuXJiNm9G7EG6jNrO45fuc/SFUr6I6AkjWzxnnOYvY0et+Yrx6d3BeX8y5XXIWGoOXCRXDWjt8+ZwQtrhvPj2xRGz9N8vQGostrR18FTsv1YuUjb29sjPDycnS6gNVIEufhYWnslDv6XyRvx9+2nlgaJ6vNJ6+6CXUwe8PGrA7Dx2BXVbRIdfomAi4MdjkzrwoKF4o6+6zcfn8yYyvPMrO6wsZG9oYtnr0NQ79elLFyMqTSgeSW0qMrjnqfAcjc33u6Nbo6U907576qIvg6+CgBWCaCLFy+iSJEiLGPr/7oUT1/zasuzBhRKihBQ4uA7T9mEC7cUlVRUZLuWlE/P8kMKG/m58At3ncXcHae1NFVN2qr0HL7O4EUI+j/2vgLKqqPZeofBBndP8ASCEwjuFtwtuDsEd3d3txDcIbi7uwR3d9cR8tY+35A32Mw91efaTNda/Hn/N13d1fvce+t0ddUuF2Z1lDr4O49eoFQ313bwjEyQe17y/WKOQcOGDTFt2jSVz20VAAtVJvCva6uDZ02EKLbXtGlTjB9PSnvz0mLMCuw7c8O8otZwCgLawTsGduY5EGuzsnTnKQyct82smh4vQGBRz+pIEldWQdR56jpsOnJRsKpjVHaPaYKwoc2H6B8+e4WinWY4xkjhKipXYGwJy9awivI9gFuKc/ynbquDZzzmOQDTDBvRo0c3yuUksmb/WfT8U4nqT7Ks1hEioOLgGwxbgmM6RG8T8kt6VUeiOOadx7Zjl9B+8lqb1tCD1BDIkToRRgvr4a/dfYIKLpx/tH1kI0TwNN/3/vmrtyjQbqoasHbWHtq4OPKlTypa5fr160iUKJFI10+J92dpVSb4XNdWB0+9xQAqmF08bNiwxj28RN55eSN3q0kufR8l2VdQ1dFlco55srM6VUKqRGwyZU6Y48BcBy2OQeDwpJbihVy5N8OagXUQOypZVM0JGezIZOeqEiVCWGwe1lBkHsPzFStWxNKlS0X6fkpkSLKUwtWMg68DwHR8hRmFbJcnDV0Ubj8VT17KXhBUkNa65hGIETkc1g/WRDfmkTOnwSx6hhLNyo37T1FOs9mZhU08XoWXvuv09dhw6IJ4bXsqsn0q26hKJFPjMRI1h+gUzJgMgxoWE63l5eUFJpUrCrltHyrO8Ym6GQdPUt6DksVVOsvp2l0J4s7RiRk5PNYJqWrL9/wL1+9rYiMEDL1gAAAgAElEQVRbntzghkVRIKP5NpQv37xDvjZTbFlCj7EAgVblc6JGoYyimS7dfoQqfU136hatZVZpStvyyJg8vlk1Y7wrM9n92bESUic2Hxnjvi5cuICffvpJhImf0kkAstT9AFY14+B56cfLdDM6xtJZs2bFvn2y2s7Jq/Zj6hrRe4UK2FpXgIBKs5mSXWbiru4mZxPqbSvmQtUCskqaLE3HwvcDmTC12BsB1Wx6Vw3TD6j/GwpnIsGpeXHVz1/8GJGwsl9t8xsCwPB83rx5sXPnTpG+n1JxAJYnyJh11kztNN0qKXz48Hj16pVo87cfPUfpbrNEulrJsQjodrGOwbtu0UxoWjq7aLFC7abi6St95SUCT6B0aGILMQ9Ir1kbsXrfOcGq9lVpUzEXfhe+YGZrNg7eLthNToWciFfQnp6eKqDzjZsdpB6rTPI1XbMOfjiANmaN8PDwAEsIpAw/ef6YhNfvvMwuq8c7GIE40SJi9QCmapgXVz2tmN+J/TXK5kyFrtVlVNW6x4P9n4//FfrWLYyiv6YQLXrv8UujbtzVSG+qFcyA1hVyifaUvfl4eLlYP3iPEN9h1YA64AFFInv27EHOnDklqh91dgOQARrIqmYdvKizHG04evQoMmSQhRXLdJ+FWw9ZpafFlRFIECMSVgjDXEU7TsfD569deXsuYxvLeFjOI5HagxbitG7qI4FOpBPBMzS2j5Sx2nHBsj3+wk0Xa7qVP0NSDGkk+/zlbDkB77x8RFjaSynF9zExp2tV0fQfPnxAypQpjTt4BckPwC4EFWYdPAsEL0k2Urt2bcycOVOiiu4zN2DdAVFDO9F6WkmGQMofYmF2FxIxmZciHabh8Ys35hWDoUb6ZHExrV1F0c5bjFmJfWeui3S1kgwBlTC9K+YgpUwYC2wZKxE2m2HTGVeSDpXzoFI+WX4bOV7Yc0VBGJ5nfptdMozNOnjyY5I71jSNFvl5nz+XncIPnr2BpqNXKGCoVR2BQOafEmBi63KipQq1n4qnuhzSJuySxo2GhT2r2zT280GuzpIm2pSLK/WqXQglsqYUWcnacfbk8HahsHaiOFGxpFcN0X5+6zANj1zoRT582NDYNrIRQnxn1hX+b/tjxoxBq1atRFj4Ka0DIKvNs2FVya7Y4q2aDXN/MoR18O/fvzer9t94V03OEG8oCCrmTZ8EwxqXEO1M9yq3HTaVXIfeszZh1b6zti+mRyojwGz6vWObIUQIyc8tUG/oYpy4bElzMeW9cIK40SNiVX9Zrk2LsSux7x/XiSAVyfwj+tfjzbN58fHxQbhw4Yz8MgVhHeUxBf0AVSWfOPaqXCYx6MWLF4gY0TwDEtfSSVgSxB2rUyZHKnSrIUv+yt9mMl68kb8AOnanzl2NvbjZk1sig+dvw+IduqOcBDsVnW0jGiFiOBkRyt7T19By3N8qy1uqq0JJPW7FXvy5/rCl9qhMNqNDRaRNElc0xY0bN5AwIdu0iMUXQBQAshIzG5aVOHhW84tqNwYPHowOHTrYYNaXQ5qMWoZD5yzj4BfZoJUCRqBesV/RpFRWEUy6UsJ22EKH9MDecc1sV/A3cuSSXZi72W4HBpFNwUGpVuGMaF42h7iSyJU6azKsvUPYDnfb8UtoP8nycm/RR0jlqoG17/Xr18eMGabJXf3bOgGA7Its444lDp737y8BmG4IzLeda9dETemw6fAFdJ623sZt6WHOQKBjlbyomFfWK8EVs2udgaGta0oTtyas3IcZ6w7ZuoweZyEC+8c3B8P1EhmzbDf+2nhUomq5jkeIEGDLYknZ8/2nr4xorCtIo5JZ0KB4FpEpr1+/RoQIsrI6fwvGA2DXuxeJg6d9rNvLYRYZlcYzfGPK1mw8fD58MLusHu8gBIY2Ko58GWSdmLI1HwdvH/1sbX1UBye0EN3pumJWtq17dvdxf/erjXgxIom24eXtA0a5XIUkRtpwhpv/telYfHAymyJftLaOaIhwYWTtXQ8ePIgsWWQvB34fANYERwbAML3dROrgmTY4yqxVqo1nSnf7E7cfMYlfiysiMKN9RaRNKrvPcoUvvSti+i2bDkxoDp6kzMq0NQcxadV+s2p6vAUIZEgWD+Rxl5x8uXyz0Stw4OwNCyxRn2Jks5LIlSaxaCJXiNZlT5UQY1qUFtnPw2a6dOlw6pRSLktriQ81a7DUwTPz74jZxTh+3LhxaNZMdu3QYswK7DvjGh9wyd6Dus7f/WsjXnTzJxSSRfza1HXbSLric2OINKQHq1bNiXbw5vCyevSeMU0RJnRI0bQnr9xF3SHs2u18aVwyK+oX/1VkSL42k/HSyQm1Y1uURrZUsgS5x48fI0YMWTc9f4BxAsupaT9/IFIHH92vrZ1p/QQJEuDmzZuiD8a6A+fQfeZGka5Wsj8CBye2ENWT3n/6EsU7y0iQ7L8r11xBO3jXfC6BWdWrViGUyCariefclXrPwZW7TwJbxu5/z5suKYY1kbHZOZvUSqWxDIEdMWIE2rZtq4LxHQCydnwmVzXtoP3NT0Y70YUrQxwS8fH5gGwtxhvde7S4FgIhmXgzobnIqKMXbqHhCFHlpWi9oKAkdfBT1xzA5FUHggIEbrsHaf4EN7xkx0kMmr/d6XtnLgFzCiRStvss3HQi9Xid3zKhWRlZsyYLGssQsoIAtkiwM6uj4uD7AOhudkGOJ0EAG9BIpESXmbin24pKoLOrTphQIbFnbFPRGqv2nkHvvzaLdIOr0uFJLUVbH79iL2a6UB2yaBNurrR5WANEiSDvPlag7RQ8f/3OqShEjxQOG4bUF9nQedo6bDrMxqSOF3INbRvRGOE9Zcl1x48fF/dU8dstT6e8x7Rb7bt/VFUcPC9gREeBOXPmoFo102R4ht0Nhy/F0Yu3Hf/J0CsGiIBKbeykVfswbY0u3bL1IxYmpAf2COvgRy3ZhTm6Dt5WqO0yLuOP8TG5dTlxsl2/OVuxYvdpu9hm66Qk7SF5j0TmbDqKUUtZiOV4KZAxGQY3lDHDMnJcoEABbNum1BdmJYAyjtq5ioOP7VfDZ3qOFClS4OxZGV3m8l2n0X/uVkfho9exEQEVdjXdTMhGkP2GqXQoG7JgOxZtP2luQT3acgTIRMjvjES8fHyQq+Uk+DqxZFglYnfs4m00GL5UsnVlnWntyiN9Mtn197179xA3rqxKyJ/h3wNwGGObaef8GcL3ANDRmxbpPfp7bx/kaEECIC2uhECMyOGxfnA9kUl1hizCqSv8KGmxBYGYkcNjnRDrfrO3YMWef2xZRo+xIwKNmIVeLLP4FN912jpscFKYm7CwN8uB8TIuhnde3sjZcqId0f361MniR8eC7rLIMWe0oLEMSetJFOewfrmqDn44gDaSJyV18FxL38NLELevTvzokbCyvyzpRj9Pc88mWbzoWNBD9kPVacpabD4q6vhszkg9OlAEmLPCk7BE7j5+gZJd/5SoWqaztFcNJIwTVTRf1mbjwE55jpTWFXKhWsEMoiWZNxYqVCiRrj+lJgAmqU5iRl/VwTMVcY+ZBT+OXb58OcqUkV1FNBq+FEf0PbwEdrvpkPSC5BcScXbZjMRmZ+r8wjvcNuVFJjQbvRwHzsrKVEULaqVvIqDS6ISTOpsXpE/twiiWNYXoCeduNRFv3it1YTO17v86+jVFCAE5FBc6ffo00qRJY2rNrwzm6f2t6iRm9FUdPC8zRPcJadOmxYkTJ8zY+t/Yv/eeQR+ddS3Czl5KKqUnupOcuaeSP0NSDGkkq0GuOXAhzly/b25BPdouCJDwZvfoJuIw/dnrD1Bj4AK72GbLpFXzp0PbSnlsGfrFGEe3hy6d/Wd0r8nqNJnkypULu3crJQYy8SWdbHW5lqqD58rkjhX1gGV/ePaJNyvkMc7SbCx0ObxZ5Ow3vn+9IiiSmY0GzUuuVhPx1oFv8+YtdC2N8rnToPPv+URGObsGWWR0EFZaPaAO4kQT/XwaqDizV3z6pPEwrX0F0dMp1mkGHjxzSKWYYd+y3jXwQ2zZdcKdO3cQP74sMc8fOHZvLPO1B2GFgx8BgLy6puXZs2eIHJl8++ZF89Kbx8yeGgt7VEPSeCQ4NC/OuI8zb6XraDQrnQ11imYWGeTo0KjIyGCklOKHmJjduYr4FO/MXvGxokbA2oF1RU+r9uCFOH3VMZGkTD8lwKTW5UR2Uql///7o1q2bWB8Aa995gW/XxjL2cvBiXvpZs2ahZs2aIuBajl2Jvf9cF+lqJWsRYEYt2bkkTTS8fXyRrfl4aw0K4rP1rlMIxbOYpzt95+UDNvrQ4loIbBraAFEjyohvmKxcpe88XL5jd1rzL0CLGsETm4Y1EIE5YO4WLNvlmGqOgQ1+Q6FffhTZybawPIT6+ir55h4A+ooMUFSy4gTPMjlRjdNPP/2Ec+fOibaw5egldJyyVqSrlaxFIFyYUNg5mgmi5uWfa/dRa9BC84rBWGNcy9LI+rP5RhmukHkdjB/bN7deMltK9KxVSAzN+oPn0W3GBrG+VFGF3GrB1hMYtmiHdGmb9cg7v7xvLVGPDC6yZcsWFCwov7v3M5SN49ke1uFihYOn0eRNDCOxXuUenqcRLx+lNyuJyVrnMwRUaCsXbD2OYYt2akxNIDC7c2WkTGiefuLMtfuoqV+mTCDtuKHkkCCXhER4iq/Wfz4u3HokURfrhAoZAvvGyfpPHD5/C41H2r//RLtKuVElf3rxHhMnToxr166J9QHwBGs+3Kayoj9dqxz8GFZtSGx6/vw5IkUy32KUa/FDff7mQ8myWsdCBL6PFRnL+9QSzdh12npsOHxBpBtclVb2q4X4Mcznruw5dRWtxq8KrrC59L5rFMqIVuVzim3cdOQiOk9dJ9aXKkp7Ijx58QaFO0yTLmuTHkvjdo9pImqrzAUsKo37AYDT6lKtcvC/ADhsE+qfDVLpDz94/nYs3qFpNyW4W6mTOnFs/NmxsmhKknUwdKzFdgS2j2yECJ7mA2bLdp7CgHlKPNq2G6lHmkKAeSykr40UTkZf++Hff41WstfuPTW1rurgpb1rIKEgO50VUFmajgXttpdUzpcO7SvLyvhoU61atfDXX3+pmkcmI6eFma1y8LEAiFIiY8WKhfv3Rao4feUeag9ZpPoAtL4iApXzpkX7KnlFs+isbnOwscnH1uENRQmNE1buxYx1ovdwc0bq0SIEOlTOg0r55KXSq/edRa9Zm0RrS5XIx0BeBonkaDEe773t5/ukkS7uhT4pTpw4km3512F7Tcdz8vqzwCoHz3meS+vh2WM3TBjzJxKju0/bKXjx5r3qg9D6Cgj0rl0IxbPKrpmytxgPLzt+yRW25ZKqv6b4HhP+KCuyrcfMDVh74LxIVyvZHwGGlLeOaAQmrUrEGad4cuo3KM7GouYlzx+T8Pqdl3lFGzRUyKA4/dixY9Gypawlsx38qw07/voQqxw8Zx8KoJ3EksePHyNatGgSVdQftgTHL90R6WolaxBY3LM6EseVPT+G6Xw/2C9MZ80OXWeWWkV+QYuyOUQG1R+6BMcv6++KCDwHKfWtUxhFs8joX2nihkPn0XW64zLqC2VKjoH1i4rQKdh2Cp7Zqa/9jPYVkTaprPPb27dvESVKFHh5Kb18bAGgnH4vAtZObxhk8T8qMah79+7o06ePRBXT1hzEpFX7RbpayRoEDkxoDg8BxzMjMJmbjLXGiGAyy6AGRVHwl+Si3WrOfxFsDlUKGzokNg9rCP5XIjzFV+kzF1fuPpGom9ZJHj8G5nf/3bQeFX7rMA2PXrwR6Qak9HOi2JjVsZLoGovzst97/vz5Ve1i5vhL1UlU9a08wZPGTFSn4enpCRIKSIhSHjx9iWKdZ6rioPWFCKj0hdY18OZB/6tTZfAHzKy8euuFvK0d2sjKrIl6vB8CQxsVQ74MycR4bDp8AZ2nrRfrm1GMHTUC1gjZ7Ip3noH7T62nq1UhtuHekyRJgqtXr5qB4fOx7KJjnoNdZcVv6Frp4LkEywESSOx88+YN6OglUrLrTNx97PSXJYnpbq/DpK9tIxqJ9rFkxykMmq+zus2AJ62XPnP9AWo6sTGJmT0G97GeoUMaDHFhQ8vu4hkZqz14EfgCbW9R4cCwR5lzwthRsKhndVFEkVgdOHAAWbNmVYWN9Y6iLquqC3+ub7WD7wqgn8TIU6dOIXXq1BJVtJmwCjtPKr1xidbVSoDKF3zQvG1YsvOUhtFGBMgctm1kIxEr16p9Z9B71mYbV9LDnI3AgHpFUFjYvIm27z9zA83HrLD7NqJECGtcKUik9fi/seuUEonMF8uqJPxysuLFi2PtWmWGVKv9qgReQ8dqQ34GICIYrl69OmbPni3aiKMTS0RGBlEldsJiRyyJNB29HAd1b3KboVNJaBq1ZBfmbD5m81p6oHMRiOAZGhuG1AevwCTCU3zDEUtx7KJ9kypVIngD5mzBst0id/FVSKKED4s1g+qKMbt8+TKSJZNfjfgZxeZrbSXPzB46Vjt4JhawXM60hAgRAsxelLSP9fL2QZ7Wk8HGJVoci0CCGJGxop+Mxa5y77m4fNfxTTIci5B1q/Wv9xuKZJY1zWg+egX2n71hnTF6JrsjoHqXfOLyHdQbusSudoYLGwo7R8n6UExZvR9TVh+0zD4yAZIRUCrt2rXD8OHDperUY9o975k/qExipa7VDp62kUmDzHam5d69e4gd23wCEReyx32O6Q0EQwXeeS3tLesIqLO6zX1gFnT/HcnixzCn5De6YLspePaKLSO0uAsCvJJZP6QePIV38dynPcLg/vFjvsCuMeRzMS/zthzDiMW7zCt+RYO8+LwqIGYSefjwIeLFiwcfHx+J+kedjQCKqExgta49HHx5AKLXRtIC1qhRQ7THEYt3Yt6W4yJdrSRHIHGcqFjcS/bMmNXN7G4ttiHAZEaGRM3K7UfPUbrbLLNqerwLIKB6p3z59iNU7jvPbjsJHcoDe8c2E81vJfMeyXZIuiOVMWPGoFWrVlJ16jF8zEoyUQRbZeGAdO3h4MW0tT///DP++Ud2J3Px1iNU7We/D7K9HoC7z5skbjQja1Ui2sHbjlrSeNGxsEc12xX8jXRWIxKRsVrpEwR4F792UD0xux0n6zxtHTYdvmgXZFU6ym07dhntJ6+xxK4NQ+oheiRZNz5WcMWPHx/Pnj1TsYUt02XMOiqrBqJrDwfP2g7xsezly5eIEIHtc82LveoqzVsSfDTIYEcmO4loB287aq0r5ES1grL7xZGLd2HuFp1gZzvarjWyZ82CKJmd+csyYTMnNnWyh5Bed/94WcvYPaevotU49e6GlfKmRQdhLwxismzZMpQvz8CzWEjFyWtpl/uS2cPBE6WFACpJ4Lpy5QrYg1ciHaesxZajlySqWkeIQKI4UbFEh+iF6NmuNr/b70ieQHb/XmPAApy98cD2xfRIl0LAM0woo1IlcnhZpzluZtyKvfhzvfWNhshgSSZLiRw8ewNNR6uX8qk0lfH19UXChAlx+/ZtyRY+6pCtJ6LKBPbStZeDF9PWtm7dGiNGsNLAvDiSwcm8dUFT44dYUbCsjyzJrmSXmbj7RBMU2fLJ2DW6CfhDb1bYzCNfm8n4oPn+zULnUuObls6GukUzi216+eY9inaajndeSklkX6yv4uAPnbuJJqOWi/dERdXT++rVq1GyZEklGwDUBuCSSS72cvBRAIgaE4cPHx7Pnz+Hh4eHadDfeXkjf5sp8NLlcqaxkyrEjxEJK/vx821eqvefj3M3H5pXDGYaudMmxoimsh+hfWeuo8WYlcEMsaC3XYbC1w6si2iRwok399fGIxizzFqCNZUQ/f4z19Fc8bO5vE9NfB+L7kYmGTNmxLFjSpF1XtxHla1ufy17OXjOy5igKKbIkoUYMUSqqDdkMU5cuWt/5PQKBgKxokTA2kF1RWi0m7gG209cFukGJ6UxLUoje6qEoi2PXb4HszYcEelqJddCoHaRTGheNrvYqLfvvVG2xyw8em5dgxcVB7/r5FW0niC/gy+RNSV61S4kxmPXrl3InTu3WN9PkV1UO6hOYi99ezl42iumrWXYhJSBEpmy+gD4T4tjEIgawdPgzZYITxM8VWgJGAEp/zxn1VGSoPPp4o/1qgF1QPZIqazdfxY9/twkVf9CL3RID+wdJyuTY74U86akotKmmmsWKFAAW7dulS5PPb4p8WG4DLHN55uxp4P/HoCIOitz5sw4eFDGcHTn0QuU6mafjFGVT0JQ1VVhstIUw4F/Kn5OGAt/da4S+MCvjHj84jV+6zAdTPHVEjQQKJMzFbpVLyDejO+HDwYp2KXb1jBIsq3tbiHRzYrd/6DfHLZNNy9kdCSzo1SOHDmCTJkySdU/6pHvpaLqJPbUt6eDJ2WfOBb06tUr8D5eImW6z8Kthy7FNyDZhlvoqITo9MtY4I9Ypf/7ij3/oN9s2Q9o4JbpEc5CYGnvGkgYW37ta2VeRrgwobBztIyqViUnQIXVkc+tSpUqWLiQxV5iYSk4aVeViufFq9uoaE8HTxN2ABBdcqiUy/WatQlkSdLiGAS2Dm+ISMISnsxNxuBffcT85oNaN6guYkaR8UK0nbgaO05cccyHQK/iMARUki4/Gtl6/CrsOqXegTOiZxijw6FExizdjb82HTWtWiBjMgxuWMy03keF8+fPI0WKFGJ9P8V9AOQJEaqr26hvbwefH4DoCEHawFGjRtm4jU+HHTh7A80sqK8ULR4MlSb+URaZU/BGxrxkaz4O3j4ue4VlfkMWamT6MT4mtZERcDAUy/K4N++8LbRIT+UqCExpWx4Zk8cXm3Pt3lNU6CXr3ul/0SgRPLFZmIPTaepabD5inrdE9fRev359TJ8+XYydHy1tEukVtMrCZnXt7eCjARBd9oQJEwYvXrwQdZdjq8QCbafgxZv3ZvHQ4wUItCibA7WKiPoLIVeriWB2r5YvEZjevgLSJY0ngmb3qav4Y7w8Q1m0qFZyGALJ4kXH/O6/47vv5D/hwxbtwIKtJ5RsjhE5PJgEKpEaAxfg7HVzBEzFsqRAnzqFJcsZOufOnUPKlCnF+n6KfCtJrjqJI/Tlnw7brAsB4AmAyLYN/3TU1atXkShRIokqWo1diT3/XBfpaiVzCKiEDCv2moOr9/gR0fI5AmzDySRGifT8cyPW7D8nUdU6boLA8CYlkCcdD5IyefT8NUp0mQkfX3kELWGsKFgqJLoq0XkG7j0lCZztopp/0LBhQ0ydOtX2Bb8cyQtFdrWRZYGrrCzQtbeDp0mdAQwQ2IZp06ahXj3Z2+HKPf+gr04wksBuWocJP/ziSYT0maTR1PIpAioMXYxgFWo/VbeHDeIfKpbL8XsXJlRI8U5Vv38FMibF4Iaykmaz7aJLZkuJnrXkde/Xrl1DkiRJwO+HgrjN6Z17dISD5+ldlGnI0zuT7SRhKFJ0Fmo3VbPaKXySbVWNFtETG4fKauEfP3+NIh2V7sNsNdOtxqnwa+85fQ2txv3tVvvVxsoQ6FQ1LyrkSStTBvD6rRdYdfT01VvRHC3L5UDNwrLrOeaIkELXVlnRtxYSxBQFg40lmjZtiokTJ9q63NfG8c2AbxiivDKVhaW6jnDwfL0UX7Lev38fsWKxA615aTpqOQ6eu2leUWuYQoClcvvGNRO9iHEhfQ//Kdxxo0fEyr61ECIEb7jMizR5yfxKWsPZCLBMbVX/2ogcgVXJMll34By6z9woUp7duQpSJpT9PudoMQHvvW3jxq+QJw06Vc0nspFK169fN5qYKZ7eyesio5QUW66m6AgHTwvXARCxEpBpKF8+2YOdu/koRi7ZrYaQ1rYJgcltyuGXHxPYNPbzQWyC8fDZa5FuUFQa0qgY8mdIJtqal7cPCneYhldvxR2bRetqJech0LBkFjQsnkVsgI+vLyr2noObD8xxhzC/78D4FggRQuZGfm0yFh9sDJerRLQIDJuYSauy/AFLTu6ZYqCdoCh7MuYNTQfguHk1oGjRoli7VkZnSKdRrJNm8pLgblZHhRd69NLdmC2ohzVro7uM3z6yESJ4hhGZu2rfGfSetVmkq5XcEwE6Woav48eQh6+PX7qD+sNIzGa7sLshuxxK5Mqdx6jUZ65NqlULpEfbiiI6FWN+toJlS1i2hlWQewDiKug7RdVRDp6NjGWXPIBRLhcxoox/uebABThjshTDKU/CzRdVKZd5+vKNceq08WXezZEK2PxqBTOgdYVc4j02GrEURy4o9bYWr60VnYdAoUzJMbB+UbEBDF03Gbkchy/csnmO6JHCYcOQ+jaP9z9wwdbjGLZoZ6C6Ib77DmsG1hGTPXGBP/74A6NHjw50rUAGtAAwTnUSR+s7ysFzX7y/ELGhnDhxAmnTyhJJJq/aj6lr3KKiwdHP3tL1VDipaUh+8ha8fmepTe44GX/MYkeVvczefvgcpbu7ZFtqd3wUbmfzzA4VkSaJ/JB5+fYjVO47z+Z9Z0weD1PaVrB5vP+BbSasws6TgTPp/VE+J6oXyihag0ostU6WLBk+fJCXAvp1RiUtrduJIx18dQAi6qTmzZtj7NixInDNhIJEC2il/xBY0qs6EsUht5F5aTtxFXacCPwLb35m99HIkIw/mOXFyYoD523D0p2n3GfD2lJLEVD9/PAU333GBqw/dMEmuzpUyYNKeXn7al5sybsJHcoD6wfVE9Ng06q6deti5kzla/MeAPqa36XzNRzp4Nk5xhyrgR8+IUOGxOvXr0WsdpyifM/ZuH7/qfPRDuIWlMr+M3rULCja5e1Hz1Gm26xg3fns7/61ES96JBF+vr4fwB/NJy/FN2GidbWSayEwomkJ5E4rJ7+59fAZynT/K9BN0XGQg16aK5K39aRAE0G7VMuHcrnSBGrLtwZcvnzZOL0ryl0AMjpJxYWtUHekg2fNDx28qJ7j4sWL4oc1cvEuzN1yzAq89BwBIBAtUjhsFN7JcVrSCy2kWk8AACAASURBVD8PpmH6GJHCYc2guvAQlsaptN7UH+qgg8APsSJjYY/qCBXSQ7ypQfO2YUkgkaDwYUNjx6jGojXYJyFbs/EBZtBHDh8WqwfUARP5pFKtWjXMm2f7lcM31ukEYLDUBmfrOdLBc6/9AXSRbLpfv37o2rWrRBXnbjxA9QELRLpayXYEWA/P3tD8r0RGLtmFuZuD54uYSsMeYl1jwHycvfFQArvWCWIIqJLf3H38AiW7/hkgKsniR8eC7tVEyO04fhltJ60JUHdY4+LImz6paH4q/fPPP0idOrVY30/RrU/v3IOjHTybGIuIx6NFiwaS3jBcb1Z4t1Sq65+4++SlWVU93iQCXX7Ph3K5ZWE1Hx9f5Gg5EXzDD07C0xZL46SUo+dvPkS1/vODE2R6rwEgEDl8GKzsV1scPjdOYnO2YPnuf765SvcaBVA6RyrRc2g5diX2BtAnhBU5JO9RiUJUqFABS5cuFdnnT6k7gH6qkzhT39EOnt6ZDByiddkJ6KeffhLhZUvYSTSxVvoEAfJjM7QmlSp95+LSbVEDQumSTtfrWCUvKuaVVYnQ+LYTVmPHSd333ekP0oUMqFk4I1qWyym2KKC7+FAhQ2DP2GZgCZtECrefGmCuyLR25ZE+mbwV7uHDh5E5c2aJaf517gOIozqJs/VlT0jNambSM6PetIwYMcJgJJLIict3UW/oYomq1jGBQCiPENg1pglCesjuAC/e4ml0gc0MVyZMc9mhO0Y2RnjP0CL7nr96a3D5q3QEEy2slVwaAbLLrR1YBzEiRxDZyagnqb4Pnf+yLv6HWFGwTNhBjlwX2VuMg7fP16N0qRLFxp8dK4krSbjZwoULY9OmTaJ9+1PiVfJA1Umcre8MBx8dwCPJxuPGjYubN2/CQ+A8+IFlU4Xbj15IltY6JhBoViYb6vwmf4Ou0mcuLt0JHqf4CrnToNPvMipmPpKhC3dg4Ta1nt4mHq0e6kYIlMiaAr1qy3unn7l2HzUHLfxixyRiIiGTRHaevII2E1Z/U5Wh+bjCShJOStbT4sVl3e38GXUHgDyEIAHGTjrOcPDcirhfH0sf2PJPIpoSVYKaeR2V7nJc7cTl/9FmBgdmO1YdsPpAIt4+vijeeYYujZOAF0x0VvStiQQxo4h2y1yY3zpM/6TTnBGeH9NMzD9fY+ACnP0Gs+hvv/6EvnUKi0/vPMRlypQJR48eFe3Xn1IHvjurTuIK+s5y8OwAk0MCwNSpU1G/vowe8VtvpBI7tE7ACKgwsnHmyn3m4nIQP8X/9H1MzOlSRfyD9uf6Qxi3Yp/+KGoEvolA4UzJMUCBwpZsc2Sd+yg/JoiBed1+FyOeo8V4vPf+khOejoi0t9KXXRo0d+5cVK8uuv31vx+ybclOkGJU7KfoLAfPTLlzkm0lTZoUFy5cELXSNML03Wbh9mMdppdgb0YnBZ1X16pmVD4ZS+dete+8IH0Xv35wPTBjWCL8LJfuNgt39GdZAl+w0lnauwYSxmYBk3lhd0LmeHzs2z6meSlkT53I/ETsKfL6nUFJ/TVpUTY7ahXJJJqXSt7e3kiZMiUY4VUUt+sYF9B+neXgaZM4TE9+4USJZB+yscv3YNaGI4qfAa0eGAIeIb4zOk2FDmW+rPHj3A2GL8Gxi7wOC3pCBrCtwxuKQ52bjlxE56nswqxFIxAwAmVy/IxuNWQMk5z547151Iie2DS0gRhu0uCuO3j+C332tF8/pB7ChZElmnLCkSNHok2bNmLb/BR56EypOokr6TvTwZ+Rgjlr1izUrFlThKMmvRHBJlIqlys1ulTLL9Kl0jsvH+RrPQnevkGvLn54kxLIk04eCSRxEz/LWjQCgSEQMkQIbBnREGSfkwj7xbPbY7Fff0K7ynklUxg6OVtOML7Tn8vIZiWRK01i8bxv3741DnwPHih9H3jgrATAXM9csdWOUXSmg2ea9QFJTXzy5MnBmvgQQlpPzU3vmA8XiSr2jm0qvmOmlcMX7cD8rUEvS3zvuGYILaQTvXL3MSr1tq2XtmOetF7F1RGoX+xXNC6VVWzm9XtP8H3sqOLad7aELtR+2hfrx4gcDmsGyimaOWGnTp0weLAymyx/ZNKLAXJRRWc6eELCzhjsFW9aVML0U1YdwJQ1fLfQYm8EmpfJhtoKJXO0r1yPv3DjwTN7m+qw+Ytk/hH96/0mXq/FmBXYd4bdl7VoBGxDgMlrawbUUWKHs22lr49qPHIZDn+lpp42xY4ma4/MlR49eoR48eIZd/AKwhBhEQCbFeZwSVVnO3j2thQRBs+YMQN16sgY067de4IKvea45AMJakbxlLpH8RTPPufle80OMmQu7MIV0TOM6FG/fe9tJCqxRE6LRsAMAu0r50HlfLL2rmbW+XysQW7TfNwXV235MyTF4IbFlCJ8pUuXxt9//61iHnX38AZBdRJX1He2g2ep3C5JmJ5tAM+fPy8O0//ebx4u3BLx7bjic3Rpm1qVy4EahX9RsnH0st2YvVG5vlXJBiuU2YiH1xbS66URi3dhnu6MaMWjCHZzJIgZGct61xQndkoBW7v/LHr8+SmzHB3P1hGNEDGc7EWXtpw5cwapUsn48P3thW/KvC4Okl2unO3gifM7AKKnzI5BP//8s+hz99fGIxizjC9uWuyNAO/i94yhU1P7uNUatBD/XCNFtPtKxyp5UDGv7BTF0rhinWbg4fPX7guAttypCPSsWRAls8t+M6WG52o1EYw8+Zd2lXOjSj75lTe/Czlz5sTevXulZn3UWwagvOokrqqv9otrza5OAxC9hg0aNAgdO3YUWfHg2SuDBSw4sKWJALJYqdAvyTGwQVGlWT98+ICC7acZ9bTuKuTp9wwt63G9Zt9Z9JylzLHtrtBpuy1AgKd41sV7CBOUzZrA67XS3Wd9ohY2dEjj9C5NMuVkixcvRqVKTHpXEr51JACglH6vZIGdlV3BwWcBQDou07ZEjx7daCEr4aYnrn+M/xu7T12zM8R6+o8I7BzdBKx5VZGrd5+gar95bnkfz0575Nr+TtiFKzhx9Kt8RrRuwAg48i4+Z6sJePf+09K4RT2rI0ncaOLH5OPjY3QVvXJFuYMi0/rlhf3iHThO0bRTtZNp4jD9sWPHkD69LNSz8fAFdJm23k5b0tN+jgCdO528qqzYfRr952yVMyWpGiDUX9D9dySLH0Ok/fadN3L/MdHt9izarFayKwLsFbFuUD14eISw6zpMBM3WfPwna5Dqdm7XquKXXE42YMAAdO3aVdV2VnBFAvBlYb7qzC6k7yoOnjWIoobY3bp1Q9++fUWQvvf2Qa6WE4M0HaoIGDsqkeoyW6qESl9wmjd84Q7Md7MuaocntRQjO2DuVizbxdssLRoBdQRUuxjaYkHJLjNx98nLT4buGt0YngqMdV5eXogaNSrevHljiwkBjaHT6KE6iavru4qDZ9YRsxhN2xMqVCjjYYcMKaNE7fPXJvy996yrP6cgZd/OUY0RTsiq5R+IztPWYdPhi26BTZ50iTG8SUmxrcwXuf/0lVhfK2oEPkdApRdCYGh+7fTeqlxO1CicMTDVAP/OVrBsCasobHL/veIcbqFu2qHacVd8JfOUzL97927kyCFqTocjF26h0QgmUmpxFAIJYkbC8j61lE/xtLftxFXYcYINoFxb9o9vDpbISeTU1XuoM3iRRFXraAS+iUD6ZPEwtW15S76H/hdhhjupbZ++ZBT8f8LPPvkwVJL7Tp48iXTpZBUo/uwjJS0byvwZHD4aruTgWQ8vIhtg+1i2kZUIP4xFOkzTPbUl4CnojG9VBllS/qAww/+rdpq6FpuPXLJkLntNohKe/xYLmL1s1fMGHwQG1P8NhTP9aOmGHzx9iWKdZ34y57rBdREzcgSldTJmzAjmXCkKKUzlnL2Kizta3ZUcPH/tr0sBePHiBSJGlFEeTltzAJNWaepaKfZSvd1jmiCssGTs8zX7z9mC5bv/kZpiV716RTOjSels4jXytp6EV2+9xPpaUSPwLQTIqEhmRauEpay/Nh33yXRpksTBjPYVlSIFM2fORN26PHgrC6u2DirP4iYTuJKDJ2SklosuwW7Dhg0oXLiwRBXX7z01qFC1OBYBtpTdN665MgHOR6tnrDuECStZcelacmhiC/GP26p9Z9B7VpCjyHatBxTMrcmXPimGNi5uCQrrD55HtxkbPpmLJFdhQstypD5OFDNmTIN3XlEW+3WMU5zGfdRdzcHTy1aXwFewYEFs2iQnAak7ZDFOXrkrWVrrKCCg2njl86X3n7mO5mNWKlhkvapKeL5a//k4f/Oh9UbpGTUC/hAY3KAoCvySXAkTXney++OCbSf/m2dMi9LIniqh0rzVqlXDvHnzlOYAjArTqACeq07kTvqu5uDZWY7JdiK7Ll26hKRJk4rwX3vgHHrM3CjS1UpqCLDhRIGMydQm8af9+p2XkVfxtd7Tli1i40Qq1KAfPvyLrM3Hgf/VohGwJwLhw4bCjlHqHBV08oXaT8WzV+8QJlRII7FORW7cuIGECdVeEPzWHwSgs4ot7qgrcqR23ijJxmNJ1hg9ejRatpTVGr/z8gY5kzV1rQR5dZ01A+sgdlRZDsXXVifHQevxq3Dw3E1144Qz8AqC2fNS5jr2SmDPBC0aAUcgkCXl9xjfqqzyUvwtzdlyInaPaQrS0qoIScxOnCBNipIwth83qJPafA0hV3TwfNMSEcwnSJAAN2/Kf9BHLN6JeVuOK32StLIMATrDTUMbIFJ4BnGsEZ4mth69hI5T11kzoclZuJetwxua1Pr/4br2XQydVhQi0LFqXlTMI+Ic+29Ffu/evPdGeEWui1mzZqF27drCnXyiVh/AdCsmCmQO1sEyZMEvPa8DWDYQmlWCfv8+VyeLHvnwmUH7FMBCACTg+f/6QkWjXdHBEwyG6UWk5fv370eWLEyUNC/nbjxA9QELzCtqDUsQCB3KA5uHNVTmq/dvDCMyPFHwNH/4AvktHCf96hbBb7/+JFrw/tOXKP5ZqZFoIq2kETCBgIfHd1gzoC5iRA5vQss+Q9lr5MmTJ6qTs/w6t+okX9GPCWAiADobOnNyuNCfqvpU3sfR6bMBTnMASglFqsbYATdjSv4Sx5dM3rRpU4wf/yn/sa3z8M2zSt+5uHxH+UNl65J63GcI8C5w/eD68FRsSvM5sHy2F249AlvO+vh+sDvuquH5jpPXYssx167ttzuIegGnIBA/RiSs7GfJyVlsf+nSpfH333+L9f0pkhnn/7P+zM/IU3kFAF0AxPHjr2d7cyuceWDWfHT2DCvnlZzsXdXBszBzUmC7/9rfSV3Lt74IEWSkCmv2nUFPXZYkgd4yndhRI2BF31pgH3mrhXfzq/edxcB526ye+pP5GJ7cMaqxeA0ygT15ocy3LV5fKwZvBLL9/APGtizjFBAuXLiAn3/+Gb6+vqrrzwBQz8ZJyKHLsTyRR/E7lbMZDR28jILSxoVtHMYw/hYApf1O+DapuaqDp10k3g5n0y4+G7RkyRKUL19eoorXb72Qp7Xo3UK0nlb6OgLxokcy+lbbw8nzNP/WyxvrDpy3m6NvWjob6hbNLHq8V+4+RqXec0W6WkkjYBUCzUpnQx3hZ1jFhlSpUuHMmTMqU3zUZTMZZu6Sqi82AJ68meTDcDp9C0+B/N/owF3VF36OA/0i7/jn2wKQK2+KnISiPrBZs2bFvn1ywpMh87dj0Q6VqI4t0OsxgSHA/unLetdA6FBqmbgBrcMTPbneW41diffeyicGYyl+qVgeJLX7j/F/Y/epa4HBo/+uEbArArxm+rNjZaRMKCpqEtnWs2dP9OnTR6QbjJQYut/jl1sQYA2tKzv4DACOSh8a3wBTpkwpUtfJdiLY7KIUPVI4LO5Z3dLs+q8Zylrze09fGmVpS3acUtoLS4NYIiSVwu2n6t4IUvC0nqUIRPAMjS3DGtq9dzyNZivYSJEi4f3795buIQhPxpLyTH45a1/dpis7eBp8x69+0fQz6tWrF/g2KBGGcKv2m4dLtx9L1LWOxQhEjeiJOV2qgnfz9hY+ey9vX1y59wTbjl7CjPWHTS+ZJnEczOxYybQeFW49eo4y3WaJdLWSRsAeCKT4PibmdK1qj6k/mTNbtmxgFZQWUwiwxp95A1e+puXqDp6X4aJOCOHDhze4i8OGldVVbzh0Hl2nf8qpbAp2PdhSBJb0qo5EcaJZOqctk7F5xtNX73D74TOcuHIXk1cdCJQhb2SzksiVJrEt038xptefG7F6/zmRrlbSCNgLgVxpE2Nk05L2mh7Lly838qb4gq3FNAIs+0oN4AuudVd38Dyy0XhRTfzcuXPx+++/m0aLCu+9fJCv7WTjNKfFuQj82bEiUiWKI2aEs9J6/gD5fvgXb955GXScL9++h5e3D7x8fOHt64u3730M2t0Q38m+WiU6z8C9p8yj0aIRcB0E+GluWyk3quQXpUUFuhGLat4DXScID2DSDkk3Pmk7KfsVcixKPM6I2EJ+/fVXHDggbwM7d/MxjFxCngQtzkJgWvsKSJckrks4d3tjwBeEHM0n4IM+xdgbaj2/AIGQHiGwqGd1/BCLVWTWSfHixbF27VrrJgy+M5EJr4r/7buDg+cRXFwzRB7jtGll1Iv3nrxEiS4zg+/Hxck7ZwvLvOmSBAvnTqjnbzmO4Yt3Ohl1vbxG4NsIxIoSAWsHWdKX3ViE1U65cuWyouZdP7b/dcxjLf9/TssdHDwfHMP0pAM0LWw+wyY0EmE4tvPUddh8VDOKSfBT0eleowBKZf852Dh3YlW+51/GfsvlSo240SKBZUoUnw8fcOHmQyzdeRpPX1lGU63yeLRuMEQgfJhQ6PR7PuRIkwiRwslymz6HLUaMGHj8WCczW/hxegYg0ce2uO7i4JcDENEqeXp64u7du4gcObIIw7PX76PGQEY+tDgKgeZlsqNWkV+ClXMntr6+HxAixHff3DdfOEmze/3+U5y+et847b99T9pqLRoB+yDAks/Ov+dD+qTxEDd6JOPzaZVUqVIFCxcGj99Wkvd8ZFf18fHByZMn4e1tt+/uOAAt+Jyse1pWPfWvz0MWIpbMiSgDJ0yYgCZNZL2OeR9aY8ACnL/50L471LMbCNQsnBHNymSHRwjRow5WKPp++ICrd59g+e5/sHCbckvNYIWd3mzACDAU37duYaRLGg+8e7eHnDt3DoULF1bqAGoPu6Rz5siRA82bNwcTBtnD/vvvvwep0z08PL54aTde1n188Pz5c6Md7ogRI6zMQ3jnd4q/7y4OnpgzTp5UAn7y5MlBfmOp7Dp5Ba0nrJaqaz0bEcibPikGNShqtx8UG81wy2FPXr4x7vBnCur23XLD2mi7IBAxXBj0rl0IOVIncshLNvnmN23ahNatW4MO3x2E12i//fYbKlasiFixYiFjxozgVQOduYpcvXoV3bt3B6u/LBDSAfZ0JwfPzA5xT98tW7Ygf/78ItxIZ1q80ww8e80XIy32QCBtkjiY3Ka8ZdzzkyZNQqJEiYwvYnASJoYOX7QT245fDk7b1nu1AIHKedOiRbkcCBtazVFJTDG6PV64gD179qBfv36gs3O28OSdL18+lClTBjFjxkTSpEmRIkUKg1uFf7OHEIeNGzeC3fQUGf0Y8Y7vTg6eeJKaT0SMzIdEMgWp/L33DPr8tVmqrvUCQCB+zMhY2L0aeN9nhUyfPh0NGzYESWp++eUXg9u6WLFiVkztFnPwR2L7iSvoOGUtSMGrRSMQEAKhQ3lgWKPiyJYqoUvkvfDz+/r1axw8eBC3bt3Ctm3bjLv6t2+tTTClk+bdOJ04K61IjsaTeJIkSRA3blyEDh0aIZx0VXjkyBEw5K/o5PO4m4PnCV5Uo8GwyunTp402hBJ5/c4LBdtOgbcDeolL7HNXHfZ9Xz+oHsJ7hrZkC7Nnz0bdunWN+y3/wufOiopGjUTEiJbY5uhJeD/fZuIq3Hzw3NFL6/XcBIG40SJi4h9lkcDi2nart//xzpoO7+HDh//9o9NnmJ//+EL/UUKGDGk4ZzpxJlpHixbtv3905Pw7/+YsB24LPrNmzULt2rVtGfqtMcPdzcEz2e6mlNmucePGmDhxohgwJjINXbhDrK8Vv0Rg87AGiBKB3RvVhXd5pUqVwrt3375KiRMnjnF31q1bN+P+LKjL05dv0HLc3zh7/UFQ36ren0kE6NxJJBU7KjuqanE1BPhSQ44AXlsI5aC7OXju8yAAUaPtcOHC4caNG0aWo0Sev3qLAu2mSlS1zlcQWNanpmWsWGxSwYzcly9f2oQ139wzZcpkhO47dOhgvOUHVXn55j0aj1ymK0GC6gMW7CtqBE/M7FgRCWJay0onMEWrBIAAf9fYhEco3u7o4Jkpt0W4YfTv3x9dunSRqmPyqv2YuobvGFpUEJjevgLSWkRBy9bAfNN98oR8SOaFoTo6e87BMD7LW4KaPH7xGvWHLsHNhzpcH9Serdn9hArpgZkdKiLFD0E/gmUWG1ccz5I7Hkwl4o4OnvtkiiXZekxL7NixjcQN3sFI5PGLNyjSYZpEVev4ITCscXHksYiC9ubNm8iSJYtBZmSVRIkSxai4SJw4MUjGQecfFOTWw+eoMXABeKLXEnwRIBtdhdxpgi8AbrZzRiZ5/SgRd3XwvVjjJ9kwdebMmYNq1apJ1TFi8S7M23JMrB+cFTtWyYsKedJYkq3LcDyzX69dYyMl+wnrW5mkkzt3bqP0jkk6zL6l4+fbNRM43UX2nr5m3MlrCZ4IZEgWD1Palnerz2zwfFL/v+t69ephxowZIhjc55fp0+2xUJPUciL+WToFsgdJ5f7TVyjeWQa4dM2goFercEa0KJfTkq0wSz59+vT4559/LJlPZZKPGbs1a9bE1KmunaPBxB0mii7aflJly1rXDREgI93iXtXxvb53d6unxxyhoUOHimx2VwfPzc4DUFW0a8CgBSxatKhInT+SQxZsx+Idp0T6wVGJPdIHN7SuFp335bt373YZKMkzzasfac8DR27k9VsvVO47B/ee6L7zjsTd2WtVzJMGHavms4sZvPZhe+3jl+/gxOU7aFoqG2oU/sUuawW3SVkqx5I5ibizg4/jdxcvamuUJ08ebN++XYKZofPg6SsU06d4m/BLnywupratYFlYsGzZslixYoVNaztiEAkxDhw4YEQU3EV2nbqK1uNXuYu52k5FBEKH9MCqAXUQPVI4xZn+p85DzrFLd7D9+GVsOHQBzE36XHKlTYRBDYohTChZvpMlhgaBSQoUKICtW7eKduLODp4bXg+giGjngHECJFuQRP79F5iwcq/m/g4EPDatWD2gtmWEEg0aNMC0aa6T5Mj7d9pDch2rZOnOU/hzwxE8ePrSeCmKEy0iimVJgfK5UyN6pPCWLMMf6EYjluHoxduWzKcncW0ECv2SDAMbqEfQvH19sWDLCSzYdhy8qgxM2PK4QfEsqFM0k0O47QOzxx3/Hhyz6D8+p4wADku74hUpUgTr1/MdQSbPX79DgbZTZMrBQCtsqJDYPLyhZRS0bMRAnmpXEjLjkffeCmGYs+no5d8kpWEuX45UidC0THb8mCCG8pLHL91G/WFLlefRE7g+An92rITUiRn0lMu+f66j2/T1eC6owggTOiQaFPsVNQpnDBaOni/QViTfkp//p59+Ej80dz/Bc+NHANDRi+Tw4cMGX7lUZq4/hPEr9knVg6weE3pW9qtlGUsWGQibNWtmhAZdRTJnzmyE5q34IpspYaOjr1/8VzQsnkVpbWLZcPhSI9SqJegikDx+DMzrVlX8WeHnZPbGIxizfK8ySKE8QqB8njQokCEZ0ieLJ7ZJ2RALJ/Dy9jWuKm4/eo4rd59g96lrmNauApLGlxGq+TetevXqSt3lgoKDLwNA3EWmePHiWL1a3gr21dv3KNB2KtibW8v/EAgVMoTRGY5ENlYImwRVqlTpC355K+aWzkE2RNbgW8GAx3yOir1n4/U7b1PmlMuVGp2q5kOIEPKvMU9lLcauNLWuHuxeCDQqmcUIk0tlyY6TGDRfnq/0rXUjeoZGhTxpkS5pXGRPldCyazzpPgPT8/H1xbGLd3Du5gO8euuFg+du4uKtR3jn9f99LyJ6hsHyvjUtod9mr3iSbtnKzvkV+2/JfxkCQ8Oxfxf3iufpi0xobAMoFd6ZDpy3TaoepPRCfPcdetYqgOJZZU19Pgfj0KFDRrcndpdyFQkTJgx27NhhEOyoipe3D0p0mYknL2WdshqVyIIGJeR28PRRtOM0UdhVde9a3zEIkLUujfBl+/ajFyjd7U+7G8oQfsZk8Yw+9DGjhEe6pPEQI7I1+SZmjH/73htX7z3B9fvPwGqTO4+f49D5W7j14Dl4mAsofsiW1xNbl7MsqbBWrVr466+/zJj/+diFQcXBtwIwSooEm48sWrRIqg5+KIp1moGXbzVDmKrD8f8QLl26ZFyfvHjxQvxsrFbkC+GoUaMMSlsrpHKfubh857HSVGNblka2nxOK5xi/QieLisFzccVwYUJh28hGontvhuZbjf8be09fd8ou6fRjRAqHjMnjI1n8GOBe2NqWPPoxo0RApPBhED5saIQLw7auX7qy994+xm8z/7148x5PXrzBs1dvjY6g3j6+xv9+4/4zXLn72KBwfvXOC+/9ncbNbLpS3rRoXzmPZVcO7HyaMWNGeHubi+p9ZnOToOLguQ+mA4tiwqqtZAnqrpNX0XpC8C47KpE1JXrVLmTme/HNsY8ePTJa+7I1pCsJWaWsyuJvOmq5EeZTlSgRwmJ5n1qIGC6MaKqTl++i7tDFIl2t5NoIZPv5B4xtyVtM83Lr4TOU6a50gjS/qFDjc0fmqEwdtrnuX68IcqZOLLT8SzW2vU2ePDmuXLmiMqcvgPhBxcETiAEAOksRKVmyJP7+W07hyfuZKn3n4dq9p1IT3Frvlx/jG/fucZWz8gAAIABJREFUVgh7PjNz9Pp155wcvrUHllTu2rXLkrf0oQu3Y+E269jkGpfMgvrCe9Z3Xt7I13qycbLRErQQqF8sMxqXknUjm73pKEYvdR0yKVd7MoV+SY5etQqBkQYrRYXYxp8dbMhWMCg5eB5fmA4cTQI2T/G871XJqL/z6DlKdZMxDklsdhWdRLGjYmHPaqIw4Od7YFiQ7RGZne5KwmSXixcvgvfvqsKM23aT1qhO84k+s5PXD6mPyOFFvE+wKppg6ab0ZMoIDGpQFAV/SW56ng///osSnWfiwbPAa91NT+7mCmFDh0SrcjlQMW86y3dCznlGCS0QTjIjKDl4YjIYQAcpOKrsdnROXaatx6YjF6UmuJ0eHcrqAXXgGYbtAdSldOnSSpEUdQu+nCFGjBgG532sWOrtNRnhqdxnDnw/WB9E7F6jAErnSCWCYM7moxi1RJ/WROC5sNL87r+DZXJm5fHz1yjScbpZtSA9ns6yUKbk6FGjIMJa9HvnHzBWc5Glk302FOURw/MAvIKag/f0O8VHkQK0efNmkBpQKiQryddmslTdrfT4JrugezUkiCnq+fPFXtu2bYsRI0a4FAZkkdq/fz/ixFEjCeGmmPRDYiT/ZTVWbjZlwliY3bmKaMr9Z26g+RjXof8VbUIrfYHA9pGNEMHTfNTp/M2HqNZ/vkbUD4H4MSKhR81C4FWkPWTv3r1GtZCXl5cV03cD0J8TBTUHzz3RQ7SWosROc8ePH1e6Z12+6zT6z5VxB0vtdrQeiWxGNSuJrArZ2/5tHj9+PJo3b+7obQS4XsGCBY1oghW17lyI5XD3nry06x4ZTSG1rVm5+eAZyvZwj4Qqs3sLruP5Ar57TFPR9u1xjSQyxMlKETxDo2r+9GhQ/Fe71enzOjJv3rx49+6dFbt9AoAZf0bpUVB08JH8MuojSNFS7RfPEoxSXf/Ew+euU7stxeJresxXaFk2u2XdorZs2YLChQuD2aOuIJEiRULnzp3RsWNHpRc9/3sZNG8bluy0f/fB0c1LGbXEZoVETVmajjOrpse7MAJxo0fEqv51RBZOXrUfU9ccFOkGBSXmtBTO9CM6V8uHsKGtuX78Gi4HDx4Er4Ytcu5cgiXjYz6uFRQdPPfGDbaQftCSJEmC8+fPg32+pULawtJBNOGuSr50aFc5jxSaT/ROnTqFTJkyWRWaUrKJ7HRVq1bFkCFDLDu10yBHdm7rUCUPKgmTf3K3mog375XqbpXw18rWIpDih5iY00XWUbvz1HXBKpfoI/Jk4cydNgm6Vs+PSOFkCau2PkXeuZcrV0611t3/cif8aNv/OykFVQfPnojMqBdfDrOpSdeuXW19Vl+MC6o94/OkS4LhTUqIcfGvyP7pfJlSJHNQsoXRCBJKsDSFjWNChbL2bf3u4xco2dX+TGAfQWhZNgdqFpH1VsjRYjzee7N8VktQQCDTTwkwqXU50VYaDV+KI8Go0yAJdPKlT4qOVfIikrASxQzQJMtq06aNlb01+GbOekj2ZvlPgqqD5waVMuoZpr18+TKYQS0VhuoLtZ9q8BYHBWES16yOlZW4zz/i8OrVK8SNGxf8r6PFw8PDKIfMmTMnunTpAp7c7SGv33khf5vJdsmY/5a9rcrnQI1CMgf/a5OxYHmUlqCBQM7UiTCqeSnRZphgx0S7oC7RInoib/qk+KN8ToQLG9ru2+VhhsypK1da3v+hk5/P+2QPQdnB82ndldbFE6VSpUopP4jr95+ifM/Zdv/g2HsBfhFWDahjCc8y79qZnc4TvKMkXrx4SJQoEZo0aWKUooQPb1+ea95pl+/5F249dCzNbrfqBVAmp/lSOTp2OngtQQcBlWhblb5zcem2GoWyqyLJfhnJ4kfH7wUyoGiWnyzh77Blr2xOxUPFjRs3bBluZgxJQ3h6/+LtPCg7eALUHsAQM0j5H8vw7dGjR5E+fXrpFEYIpv+crVix5x/xHM5WJAf0gu6/I14M8Y3HJ1vInz8/tm2zb3OexIkTGxGCatWqGZ3oVCIxZvGns2Tf7I2HHc+HMLNjRaRJbJ6xmdGmbM3Hm92qHu/CCGgH//8PxyPEd0gaLzqyp0qE2r/9IiodVHnUe/bsMZLpfH0tvwJj1jwZd756WgrqDp77I6Gv+bRiv6eZKlUqnDx5UqlEwsf3A4p3noHHL96ofEacosukk5FNSyHrzz9Ysj5L4VgSZ6VEjBjR4G6mQ2/durXR5S1CBHERhZJpdO6z1h/G+JX7lOaRKMeOGsEgHZL0p3/zzgu5/5gkWVbruCgCOVInxOjmpUXW1RiwAGdvPBDpuopSzMjhET9GZLARTO50ie2aDf+tPZO0hnftY8faJTrGurqCAPZ8a/2g7uC5798BzFX50A0cOBCdOvGKQy5sC5q9xQT5BE7Q/O47oG2l3KiSTx7B8G/2zJkzUbduXaWdhAgRwnDmPJEz4533WTFjxhQ5NSVDvqLMaM2yXWwdbH3vbFtsHdKoGPJnSGbL0C/GvHj9DvnbThHpaiXXRODXFN9jwh9lRcaNXLwTc7ccF+k6Q4mOLH7MyIgeKRzyZ0iKEtl+FtM2W2U/O8KRvIaNs+wgzJRngkWAnNfBwcET22MAxF6KJ0TeFzPxTkU2HDqPrtM3qEzhUN0S2VIazRRUhY6PVK9p0qQRTRU/fnzjdD5o0CDjDssKPniRIQEocY8bDl1AtxnOeb7sGjamRWnxi86Tl29QuP00q2HR8zkRAZUGUPw8X7r9CF1nbMDth89dqrqCd+h05BHChUHSeNFQvWBG407dnvXqZh4jc4x4mKlfv74ZNbNj2a860LBAcHHwDGPwlzeEWRQ/jicRy4YN6j/ezUYvx4Gz6i1CpfuwVY89mKe0taY73NWrV41yODPCO3R2+OvRo4fdstzN2BPQ2A8f/sWSnScxZMEOq6Y0NU9EzzBY2b+WUt3uw2evULTTDFPr6sGujUDe9EkwrLF6SSsd1tV7T43OcncevcDjl29ASm57SqiQHogULgzIJBfSwwOkiuWBg/klUSOGNf43VxPjpejSJYPX48ULuybX9gHQ05b9BxcHTyxItC27kPJDcuHChUbClqoUajcVT1+9VZ3GbvoJY0fBoh7V4eEhfh/6z7bHjx8bIXR++AMTNnNhAh7vqxyZFBeYXQH9nfzyff/ajPWHLqhMI9Zl8tD09hWROrEaV/6dxy8M9kUtQQeBcrlSo0u1/HbZEK8cn716h6v3nuDIhds4eeUunr16a3zP+cLLbzu/8v/7v/5Hmfod/9/vAJ7AmSfCK0Dy5CeLFx0pfoiFNIljG2H18J5hQJpdSS6JXTZrw6QvX77EH3/8AXaDs6MQzH4Aeti6RnBy8MwSOw9ATE8ULVo0o8RBtcSKSXfsv/3Wy/VYw/jGvLJvLUSOwL49akL6RWL29m3ALzM//PADxowZY5zYecfuLsLQZfUB8/HSiTwHPWsWRMnsPytDdvPhM5TtrrnolYF0oQnqF/sVjUtldSGLgp4pTKIj1XaxYsXsTbVN5052VlMZysHJwfPT1dvM28/XPo5FihTB+vXrlT+pDIkW6zzDeMt1FfEIEQKTWpdFhuTqHZMY1kudOjXOnj37ze0xt2Hq1KlGVMSd3tZ9fT9g+4kr6DhlrVMfHZtgMAnSCrl27wkq9JpjxVR6DhdBoGPVvKiYJ62LWBO0zGCk4sKFC8iaNSuePXtm780xoY793U2H2IKbg+fFzW0AsVWeyKpVq1CihPrd1vYTl9FuYoBJkCpmmtJluKxDFWt+EOjcSfs6bdq3k7aYLLdjxw63OrEz9Hjx9iM0GrHU6eyEmVMkwPhWZY1wpxVy5c5jVOqjVGxihRl6DgsRGNqoOPJlSGrhjHoqOvbbt2+DnSbZr8QBQhpUlkKIThPW/Do4YJcWLlEZwAKV+Rh2JitRuHCkvFeTP9cfxrgVe9UmsUD79wLp0aai+mmQX4CJEyeiWbNmX7WKIfhly5YZLIHucmqnY7/18BmajVmBu4/t2+7VlkeZOG40zO/2O9iy1yq5eOsRqvabZ9V0eh4XQGBmh0pIk0QtN8MFtuESJvB37d69e0a0cffu3Y6y6TkA/iiflC4YHB08sdoCQCn7hKGZvXv3WuKkxizbjdkbj37JMyh9qib1Suf4Gd1rsNBATfglIGNTrly5vjoROeD5JXGXBLp3Xt44d+Mh2k1cjWevLenVrAYwa31jRMLintUROpS80+HXjCDvOPnHtQQdBEh6FCdaxKCzISfshL9pd+/eRfXq1e3OvvnZ9lhqxeQapWYdwdXB/wjgDAClWgvWZbNnuBUydvkezNrwSSMgK6YNdI686ZJgmIXd4b7//vtvrskExYD+HqixDhhADvnXb70wZMF2o67dhVIkQKa65X1qWu7cCevZ6/dRY+BCByCsl3AUAgfGN7ekEsZR9rrSOrxmJEFN8eLFXx4+fNiRb0n8yWHFVwUA/7V9lWITXB088eoLoJsUOOox3EynRSIWK2Tu5mMYuWSXFVPZNAcZn4Y0Km7T2MAGPX/+3MiY5xfjazJ8+HCDstEVhVUNpGodtXQ31uw/69Dub7bikThOVMzvXs3SsLz/tU9fuYvaQxbbao4e5+IIkAhmwxC7Eq24OAIy896/f48TJ07gt99+w9OnTzkJC/7ZuMwRvtIHQDUAi2TWf6nlCKOtstXqebj3ywASq0zMcPOdO3cs6yN+6NxNNB293O7Z9VaF5Ymdl5cX4sSJ8/EL8QWcbMdqJ7pG0aMjX/y799648eAZeszciCt32a/BdYVtP0c0ZQmh/b6uJy7fQb2hS1wXBG2ZKQTY2nl25yqmdILrYLZwffjwIapUqYJdu744YPFEfR+AvZMZGIpnRqSlDQDs94vhHp8WFomSqF8pWylt2rQ4fvy4JffxhI2EEWW6zcKrd9b3kWfWdfsqeSwrn+GJnRmlAXWHI7tT0qTOy+Zl2P2dlw/uPHqOwfO3459r9+Htqxz9csgnvGGJLGhQ/FfLPlvfMvroxdtoOHypQ/akF7E/Aiqd5OxvnfNX4KHkyZMnBp3s2rVrAyPiIpGHOjHI17fNFwiGzqpaEZL/fIng7uCJx0gAf6h+5NhnfMIE65rJMLmjUu+5BlOUVcKKqvndqhm8zVbJ4MGDA2zEQ1KgV6+U8kTEpu46edWg1+RJnad2d5Pp7SsgXdJ4DjH78PmbaDxyuUPW0ovYH4GKedKgY9V89l/IzVZgZ1A2qTpzhilYNgtPA/cA2OPLyB4pJ2y2xORA7eD/l2inXBtP3OfNm2d8eKyUkwydDluiHLLPnTYxhjYuDpLZWCWsY8+bN2+A05UuXRorVjBnxL5y99ELDJi7FUcv38F7L15lua+wRe/moQ0Myk5HycGzN9B0tP2fk6P2E9zXaVo6G+oWzRzcYTDKmdnBkr9VDMUrCC/koyrof65KAhR2g7NrKFE7+P/BngXAftWHx7puhqPNNlaxZV1pln3UCJ6Y360qYkSxtj+6rQ1kNm3aZITwrZZdp65i6ILtuOMCdelW7q1JKf4wZ7J7SP5zm/eduY4WY1ZauRU9lxMR6F27EIpnTelECxy/NGlj2dqb7Jjs/mlL/wsTVvK+lKH6yCZ0vjU0IYAbFswT6BTawf8/RF39iPwDBS2gASFDhgQbD4QNK6a8D3D9w+dvodW4lYG2b8z8UwLjxM5mDlYLkwptrRwg61O8eOqRLX5Z205cjT2nr7lklrsqxqE8QmDz8AYIH9b652WLbcS11bi/bRmqx7gBAhP/KIvMKb5dsvqtLZCdLUWKFIgSJQq6du2Kdu3aueRuN27ciAEDBhgZ7w6giv2IAZOyVZKJ2CSGzWIcdl+oHfynH1+e4nmaVxI69zdv3tj9FPbq7Xs8fv4Gj1++hmeo0Iga0RMxo4S3a+0rX17YHY7lJLYIG82ovOzsOH4ZXaavD/SFxhZbXHXM5DblwPa8zmT20w7eVT8dMruW9q6BhLHNR5T379+PbNmyfbEoP5uslOGVXOfOnZEmTRqZYTZqXb9+HXPnzjVYL3kaZ5b7t0pwbZzSimFv/JqVmb3nJCNdLBYcWWGEmTm0g/8ULb7yWhI6cbXSMDMfim+N5R1WsmTJjNp/W+X06dNIlSqVrcO/GEea2C3HLqHL1HWOe+0VW2tOsU3FXCifOw1Ch/RwqnOn1UxIbD1hlbkN6NEui8DOUY0RLizLt80JG2kVLVo0UCU6fPKA8B+jlmSp5L8IESIgTJgwxr+Pf/s4GUPozF7n7whf/Nlt0tfX95N//2s3a9dr6UD3FsAAnrxPAzDzdpMJwFFHntr9268d/JdPszwASwqCI0WKBBLABAXhFzF9+vSgwzYjVrH9efn4YvmuUxi6cKeZ5V1ybLfqBVAsy08I5QKO/SNAO05cMa5AtLg/AhHDhcHW4Q1FL41sENWgQQP3B8F+O2BJkC0JTfQjTGrxtZ8pgc+sHfzXMZoIoHHg8AU+Iig4eTr3jBkzgiUmZiVWrFi4f588EdaIj68vzt18iNbjVuHpq4D7zFuzojWz8JQ+s2MlJI0XHR4hvhP9+Fpjyddn2XHiMtq6SGdDe+4zOMyd4vuYmNNVVs3Tvn17DBs2LDjAJN0jT/EHv3GVy791ADAagFLKvtS4z/W0g/86kuzkwaPqT1YAza5zPMkzlOVuwpAaQ+ysDpBIqFChjLCc1cJQ3tv33iBBy4C52/DgmXNq7QPaF0mFetQsiPwZk8EzdEiHOHWGQSWfs63HLqHDZFFHSqsfrZ5PEYECGZJhcKNiollKliyJ1at1JCcQ8HgX77+VKB17LwCDnHHPHpCt2sF/Gx3ex19VbUjzcfrQoUPj8uXLSJAggeiL5wylFy9eGGF5lsSpSPfu3dGnTx+VKQLUpbN/7+2LJy/f4Oz1B5i18QjOXLMuamDG8JQ/xELzstnxY4KYiBQ+jKW8AwHZQQyyZMmChQsXInFi8+zL2sGbecquPbZ6oQz4o/zXOzoGZnny5MnFL/OBzR2E/k6HzoRsMqHyh41kaS55F6sdfMCfOqaTWtasnYkp7JXeqFEjl/+sX7lyBZkyZfomv7yZDfDlxtasezPzfmssnZ3vh3/Bdq+PX7zB7YfPse/MDaw/dB5PX1oX1o8bLSIq5U2LDMnjIV70yODdJ+/VHS2k3CRdMksSmX38ww8/mDZh85GL6DR1nWk9reB6CLSvnAeV86UzbRiv4hhxs7h+3LQdbqDAe/Xafl3fXC906A9A7eAD/zT9DmBu4MNsH5EzZ05s377dyDp1RZk9e7bB0WxlaJ0ngwsXLjh1u0aGLp2/7wcwae+9tw+8vH0Nzn82n2HI3/vDB/j6/AsS/oX0CIEwoUPCM3Qog0+A/3fYUCERJhQzhkM47HQeEGgkEipbtixev35tDCNzlyRKtOnIBXSeut6pz0cvbg0CQxoVQ/4MyUxPxlI05sxo+SYCdwGUBXDM1ULx37JYO/jAP83EqDuA3oEPtX0Ey+jo8Nhi1VWE5Snly5fHypUr7fIWT2IK1tBqsQaBZs2aYfLkyUaZ0UdhzbCtJET+rdh46ILBN6DF/RGY2aEi0iSJa3ojH0luTCsGbQXyXvN+fSqAh84qd5NCrB28bcgxO24hgHK2DbdtFJOh+CM9cuRIhyRgBWQVy99KlChhhHjtKUuXLkW5cpbCaE9zXXJuRlYYBTp06NAX9t29e9cgJDEr6w+eR7cZG8yq6fEuiMCq/rURN3ok05bt27cP2bNnN60XBBV4x86e7MMBsHTINlYvFwRCO3jbHwq5Z7cAsPwbwJAqk6Oc8eUi2USlSpWMlon+T4K2w2J+5JQpU3StrXnYDI3Fixcb2H2LX0E7eCGwQUht37hmolyQNWvWGC/5wVRY6jPUjwOFd4nMlHd70Q7e3CMM78dK9KM5NdtGsxyN4XFH9E5nOL5t27ZGY4aP97e2WWnNKJ7i6azIdqUlcARY/lagQAHs2rUrwOsT7eADxzIoj4gZOTzWDa4n2uLYsWPRsmVLka6bKp3yC78fBnAHgHu3ofzKQ9AO3vwnk7Ev1sib7+Rgw1rMtGezh6FDh6J48eI2aJgbQo58ZvGvWrXK6Sx7TLwjeY4KV7253bvn6F69ehnkI7a8iGkH757P2Cqr0yeNi2ntK4qma9q0qVHlE4TlCACy+LD/Ou8ig8QpPaDnpR287NMc3e9DEl+mbpsWm7rkyZMHffv2NZy+VHhaHz9+PJgdz+5LVmbHS236qOfp6YlOnTqBtfLObLaiug976C9fvhwdOnQwVZesHbw9noT7zFn015/Qt24RkcGMEG3dulWk64JKt/0S43g6Z8j9ll+7Vxc01X4maQcvx5atmvYAcEjT5ciRIxuMcjz1sr86Gaf4v31NTp06ZXRhOn78OM6ePWsQ1biSU/+azUmSJDGuC/Lnzy9/IkFE88CBA0aUhdENszXJ2sEHkQ+BcBv1i2VG41JfdoOzZTq2debnx83kHQCWf5CGke1crwAgy5V1hBduBoh/c7WDV3t4vJNn4p1yi1mJGSSlYCb+x5MvT+rs1OSoZDmJzYHppEuXDrwLzJVLxsQV2Pyu/HdyIzAv4tixY6Yd+8d9aQfvyk/Y/rZ1rZ4fZXOmNr0Qiahc9KqMyW/sxsbD1FkA9/wcON9Envo5cof1VzcNrJMVtINXfwDMrp/nR4CgPpuewUDgxx9/BO8EW7RoEeQT8QYPHmzUs6tSAhM37eCD9xdodLOSyJHGPFUxPzc8wZsUNl1hRh+jmVH8/nkCYJ9aHn7473PhifulH1EMnTfvwXnaJlPTCwDP/P7L/z//bn0jC5ObdOfh2sFb8/RCARgMoLU10+lZPiIQNWpUFClSBOxyxY52QUVIKtK7d2+sW7cOz57xN80a0Q7eGhzddZZ5Xavix+9jmjafPBhp0phpc24sMUr/5pmG2qEK2sFbBzexJK3tHOumdPmZGBqbDqC+IywlgQvv6KtWrWpUGLhbUt7FixfB0/qGDRtAxjl7iHbw9kDVfebcNLQBokbkIdqc7NixA3nz5jWnBFS3msbbrAF6fMAIaAdv/SeEF2AHPmsnaP0qzp+RYTXyMpP+rCmA8Y40idn3TDjMkCED8uXLZ5D18H9zJWEuxPTp07Fx40bs3LkT5Pq2t2gHb2+EXXd+9kjYPaap6MV30aJFqFy5stnNsZ22cxtMmLU4mI3XDt4+D5y18mxQE1RpodgcvrBfO10iyM9RWz8mKPsgGsisJMxhOD9lypSG4+d/yavP7HxHCBMcSUKzYsUK4y79yJEjxn24oxMetYN3xNN2zTWSxI2GRT15qDYvvC4i34IJYQMEXk3qBDcToDl6qHbw9kOcFG1MQJlivyUcPjO/zGMAdPwKPzM/Sx0ADHK4VQEsyMxgOn46ev6LESMGokSJgkSJEiFZsmTGf9lBi9UI3xKWqpEalo6bYfZLly7h8ePHxr9z587h8uXLxt9ZweBs0c1mnP0EnLd+rjSJMLJZKZEBVapUMeiyTQiT476WRGdiCj3U3ghoB29vhAF2/pgGwHpaOvvb7n8FXhrzeLAjkGUbApjsWNPUV2PrXkYB/FPn0rHzH2lizdajq1skm0Hs4A9fQJdpupucDHXX0KqSPx3aVcojMiZt2rQgf4YJYWYos+e1uDAC2sE77uGwhRrL6cI4bklLViI/M9vljjTRVYlF7OQHYAhPiwMRYDfAH374wfSKm49cRKep60zraQXXQaBtpdyomj+9aYN4jRQuXDizZFjawZtG2vEK2sE7FnPWhzIhjc7SHYQvJF0BXBMYy7f7TQB+EehqFSEC165dQ8KECU1rbzl6CR2nkAxMi7siMLhhMRTImMy0+Q8ePEDs2LHN6pEtznxfYrOr6PFKCGgHrwSfWDkigDZ+J2MP8Sz2U/wbQD8AXzYcN7cm8xB4+jeVvWNuCT3aPwJXrlxB4sTmiU62HruEDpO1g3fnT9OMDhWRNklc01tgaJ4hepNCJjnTzDgm19DDFRHQDl4RQEV1OvomANoDiKE4l6o6M8SYK8D7c3ZbslKSA/jr/9o7D+ioqu2NfyahE5q0R2+GJkpRCL0XaaLSIiJN6ag0RUX4ExAEKYKUICgoIOUJSheIotLLo0gNPHpH6RACaf+188b3RANzzpmZO3cm31mLhS72d/a+vzOZnXvvOXsDCHXnpJzr7wRkA6BJu+H1e45hYMRKIvVhAitGdkLubPKVojciIyNRv359PREgzVzy6Ypoby0BJnhreT/Mm6xDbQBhADoBsPKuXrotSbGa+QBueBiHFMSZ7IP7EDyMxX3THzlyJOmYoO74ee8x9J/GBK/LzS72AY8Bmyf3QlCg/lfHvHnz8Mor2sfrzgDQ3+xhF2ApJA4mePstdHoA9QBUA9AZgLSmdeeQTXPfAfgJwFJHG0V3zu9sLtmH0BvASCZ6Z6j0/12O7RUvLvVH9MYve4+j37QVeiJa24bAP7IFY/lIuTfQH+Hh4Rg6dKiuUPbl6L8L0vVCe5cIMMG7hM8ScX4A0kNVCkXLrZk85s6p6FkaNcjj9t0ATjk2vR1wNHhQnMJjZlJ2brCjQI6vnSzwGBRXJ5b2wCVKlNCeZsOvJ9B36nJtHQX2IPBMSF5E9HvJKJj27dtj7lztCtv7Hd9JRj4psoYAE7w1nN3tRRJiRscfucP/I0FKQr/teNQuf0tHJrtXmpLYuwF4HYB+n0t3k7XXfGsdv5gJG6Vx4MABlCpVSsn2z0Yb953EW1NkbyWHLxJoUbUUBreXB3/6o2LFitixQ3s/7QYANfS9UWElASZ4K2nTlzMC5QBIoZyOAKQNb0occr54FoBPHaWAGwJQrkCzd+9ekx3R2HLgFPp8Km9sOHyRQO8WVdCx0TNGoUtlR6nEqDnkw9JCU0NziwkwwVsMnO6UCEhyl0Y2ktykA4a/J3vZFzEHwDeO5j1S5/uPUQXAJiVqQFINfJO2uttTDhobAAAgAElEQVQOnUavibI1g8MXCYzo3BCNKurvvZDELgneYMiJG+UnSwbzU+IGAkzwboDIKTxKQB7hywmDlgAk2ckLZn/43P7uSOaydV0yq3TnS27I3otfVQlv27YN8shVd+yMOovuE5boymhvEwKf9XsR5UP0T61Jb4WQkBCTq5CeE++aCKmxjoA/fFFaR4ue7EBA9hxUBdAIgJTtkk2H+od/rb+Se47yvQcdj+Dlb5UhO5WPqxiKzebNm1G5cmVV8//a7T56Dq+PW6yto8AeBJYO74C8OTJrByMdEGvUMHqVPgDAOG2HFFhKgAneUtx05gEC8hmWWxdJ+nK0UM7mSlku+dtbn29J5lsAHHOcYpDNctI322TDo9QQvajKTfrOV68urQD0xt5j59HlY3lDwOFrBB57DNg0qSdSp3p4R8SHXZNhH3iZroOjeJWv4UpR8XrrCzBFQebFeoWA1BPIC6A0gKcdZTUzOeoKyC8EUmZT/5bnP0laTiicByDFPuRRu+xQkv/eDCAKgJTxNEnmyYGS0xK3VAmuX78etWrVUjX/r92+ExfRafQibR0F3ifgyhn40aNHY9CgQSYX0cBx7NZES41FBJjgLQJNN7YkIN3uJOnLmXz5I7dA8uePnwtJ0gkAZBOcvCOXP5LM5TiiVUPq+Yt/pZ/VdevWoV49/eNSB09dwqujtPqBW3X99OOEQGipApj8htmG9s6dO2PWLDm0oT3kKZlWf1ltDxS4TEDpS8NlL5yABEjAFQKS4JVqkK5evRqNGsn2BL0RdeY3tPtQqhVz+BqBsDpPo79hH3jZr7F161aTS87heHploqXGIgJM8BaBphsScIFAjGpZ3+XLl6Np06baro6e+x1hw6U7MIevERj0ci20rKHdDQ6JiYnIli0brl+X0gtaQ55qyZMud72G0nJOY3UCTPDqrGhJAt4iIO/8M6g4//bbb9Gihf7j2uMXrqL1MO1ypSoh0cbDBCb0bIbqT+mXhb958yYyZzbZhgLZROrvtSk8vGrWTM8Ebw1neiEBVwjIe3/ZK+B0LFy4EK1bt3Zq91eD05ev48Uh0tGXw9cIfDmoDUoXksMWekM6D5o0JnJs+lT6POpFRGt3E2CCdzdRzkcC7idwBUA2lWnnzJlj0voTF67cRLP3Z6u4oI3NCKwc1Qm5suqXgpAjlTVr1jS5Gvk8ZjcRUmMtASZ4a3nTGwmYELik2kHw888/h+yM1h2Xr91G43e/0JXR3ssE5Az85k97IVWQ0h7MB6KVpz1t27Y1uQI5BirHTDlsToAJ3uYLxPBIAMA51S/UiIgIdOsmzfn0xtWb0WjwtpQX5/AlAnkez4RlH0pvJv3x0Ucf4d13jarNSuvpQvoeqbCaABO81cTpjwT0CcgXqlTmczomTZqEPn36OLX7q8HNOzGo0/8zbR0F3iVQuVQBfGp4Br5Tp06YPdvotYxUZdTvbONdVCnSOxN8ilx2XrSPEZCSt0VUYv74448xYICUCdcb0fdiUePNaXoiWnudwMt1y6JfK6Na8ggNDYU0JzIYUuBG/1yegSNKXCPABO8aP6pJwAoCh1XvmIYPH47Bgwdrx3Q/Lh5Vek/R1lHgXQLvt6uDF6o/qR2EnIHPmjWrSR948fUjgLraTimwnAATvOXI6ZAEtAnsd9TUdyqU5C5JXnckJCSiYs9PdWW09zKBSb2bo8qT+q/DpbiNJHjDIbsxuxhqKbOQABO8hbDpigQMCexxNMxxKh84cCDGjBnj1C45g9BekxEXL0XKOHyFwLz3w1A8v1SN1RuHDx9GyZIl9UT/sx4CQP+3SFNv1BkTYII3RkchCVhGYCeACireevbsiSlTzB611+43HbeipUgZh68QWDvmNWTLJI0T9YZ0HaxTp46e6H/W7QCwrrEpPQt1TPAWwqYrEjAkIL3lQ1W0HTt2NO0OhsaDvsDl61IVl8MXCKQKDMDmyb3wmByG1xzz5s0zKojkcFMJwHZNlzT3AgH9T4YXgqRLEkjhBH4GoLRVulWrVli0yKyve8v/m4OTF6+lcNS+c/lP5MuO+YNfNgp46NChCA8PN9FKgxmpYnfVREyNtQSY4K3lTW8kYEJgFYDnVIRNmjTBihUrVEz/ZtN+5AIcOn3ZSEuR9QQaPBOCka/ptwaWSOUXwW+++cYk6FgAqU2E1FhPgAneeub0SAK6BOYBULpVq1WrFuT9qsnoNn4x/nVEiuZx+AKB7s1C8VqTikahli5dGgcPHjTR3gRg1ILOxBk1rhFggneNH9UkYAWByQB6qTiqWLGiafESvDV5GTbuP6nihjY2IDCySyM0eDZEO5L4+HikSZMG8rfBuAjgHwY6SrxAgAneC9DpkgQ0CciRJKXqNXJntn+/HJvXH+/NXI21O4/qC6nwCoHP+r+E8k/k1fZ9+vRpFCxYUFvnEJxQrapo6oA69xFggncfS85EAp4i0B/AWJXJCxUqhBMn5DtYfwz/KhJLNxs9ttV3RoXLBBYPa4+CufSL1WzatAnVqlUz9X8AgH7pPFNv1LlEgAneJXwUk4AlBDoBUOrlmiNHDly+bLZRbtyinzH/x72WXBCduE7gl0+6I31a/f1uCxYsQFhYmGkAawE0NBVTZy0BJnhredMbCZgQeAHAEhVhunTpEB0drWL6N5uIZVswc9UOIy1F1hLIGpwO6z5+3cipC21ixZ88SRpo5JgiywkwwVuOnA5JQJtAVQAbVVWxsbEICgpSNf+v3dzIXfjkG2U32vNT4D4CFULyYnq/l4wm7Ny5s3ExJAAdAHxl5JgiywkwwVuOnA5JQJuA9N6WjnJKQxqJZM6sf5Jp6aYDGD7nByUfNPIugVY1y+CdsNpGQVSvXh0bNxr/IlcGgNkuTqNoKXKFABO8K/SoJQFrCMhOKuXKYefOnUOePHm0I1uzIwrvf75GW0eB9QQGhdVGy5qSa/VH7ty5cenSJX0hIJ2IAk2E1HiHABO8d7jTKwnoEpBDywEqoiNHjuCJJ55QMX3A5ue9x9B/2kptHQXWE/ikVzNUK1NY2/Ht27cRHBysrXMIWOTGlJyXdEzwXgJPtySgSUB2zqVT0ezevRtly5ZVMX3AZuvB0+g96TttHQXWEzBtE3vgwAE8+aTxKbfzAPQP3luPhx4dBJjg+VEgAd8gIF1gsqiEKu9Xq1aVfXl6Y8+/z+O1sUb1yfUc0dplArKDXnbS645Vq1ZB+hUYjigAJQy1lHmBABO8F6DTJQkYEJASoblUdGvXrkX9+vVVTB+wOXTqMtqPWqCto8BaAmlSBWLjpJ5GbWIjIiLQo0cP04Clq2EtUzF11hNggreeOT2SgAkBKRKvVF90yZIleOEFOTqvN05cuIpWw+bqiWhtOYEyRXJj1tutjfz269cPEyZMMNICGA1gkKmYOusJMMFbz5weScCEgByTk+NyTsfs2bPRoYMcV9Ybl67eQpP3ZumJaG05gVY1n8I7YWY30o0bN8bq1atNY24OYLmpmDrrCTDBW8+cHknAhMAeAE+rCCdNmoQ+ffqomD5gczM6BnX6faato8BaAh+0r4fnq5YyclqkSBHjXgUAHtc5rmkUIEVuJcAE71acnIwEPEZgC4BQldmHDRuGIUOGqJg+YBMXH4/QXlO0dRRYS2DaWy/g2RL5tZ3ev38fadOmRWJiorYWgJziyGAipMZ7BJjgvceenklAh4CUmKujInjzzTfxySefqJj+zabGW9MQHRNrpKXIGgKLhrRDkTxyM603jh49ipAQ/f7xDi8XAOhXT9ILkdZuJsAE72agnI4EPERgDoBXVOZ+5ZVXMGeOmOuPFh98ibO/3dAXUmEZgcixryNLRv0jcuvWrUODBg1M4+QROVNyXtQxwXsRPl2TgAaBkQDeVbGXjVQrV5pVpOs8ZhF+PS4n8jjsSCBN6iBsnNjD6IjcjBkz0LVrV9PLkg9UU1Mxdd4hwATvHe70SgK6BOTw8lQVUWhoKLZskVf2+qP/tBX4ee9xfSEVlhB4qkhufGF4RG7gwIEYO1a6vRqN/gDGGykp8hoBJnivoadjEtAiIOXHVqgopA691KM3GSPn/YglG9gszISdFZq2dZ7GgNY1jVw1bdrU+MmO4wTHr0aOKfIaASZ4r6GnYxLQIiAFxPepKDJlyoQbN8zeo3++ajumLduq4oY2XiAwvFMDPFfJrFqsC0fk7jp20Bttv/cCJrp0EGCC50eBBHyDQHoAd1RDjYmJQZo0aVTN/2u3fPNBDPsqUltHgTUEZgxoiXLF9Dez3717FxkyZDA9IncKQCFrrpBe3EmACd6dNDkXCXiWgNxJpVVxceHCBUjfb92xcd8JvDWFxcp0uVllvyT8VRTIqdRz6IGQDh8+jJIlS5qGuQNARVMxdd4jwATvPfb0TAK6BH4DkF1FJG1BS5XSr3a26+g5dB23WMUFbbxA4JdPuiN92tTanuVUhbyDNxzTAXQ31FLmRQJM8F6ET9ckoEnghOqj0g0bNqBatWqa0wNRpy+j3Uh2lNMGZ4EgZ5aMWDmqk9EROSlfLAWQDAdr0BuC87aMCd7bK0D/JKBOQHYxl1ExX7p0KZo3l+9lvXHm8nW8MOQrPRGtLSFQt3wxjO7a2MhX9+7dMX263Ihrj3gAGQHEaCsp8DoBJnivLwEDIAFlApsAVFGxnjVrFjp27Khi+oDN1VvRaDBwpraOAs8TeKtlNbxSr7yRoxo1akCe6hgMlqg1gGYXCRO8XVaCcZCAcwKLALRyboakgib9+0ttEr0RGxePyr3ZcEaPmjXWk994HqGlCho5y5Ili+nRyZ0AnjVySpHXCTDBe30JGAAJKBP4AEC4inW/fv0wbtw4FdO/2dTt/xlu3OETWSN4HhQtHNIORQ2azJw5cwYFChQwjexTAG+YiqnzLgEmeO/yp3cS0CHQAsC3KoI2bdpgwQKzzXKdRi/CvhOsR6/C2Uqb9eO7ITi9fm2DNWvWoFGjRqah1gBg9Gzf1CF17iPABO8+lpyJBDxNoBiAoypOZAe94TtXDJm1Fqu2HVZxQxuLCOTMkgErR3U22kEvrYP79u1rEqn0gA8GkGAipsb7BJjgvb8GjIAEVAnIz6sUu3F6G1ewYEGcPHlSdd4H7Fiu1gibR0XPVSyO4Z0bGvmQDnLSSc5gsEWsATQ7SZjg7bQajIUEnBM4AyCfM7PAwEDcu3cP8rfuWLfzCN6d+b2ujPYeJDCkfV00r1rayIN0F9y2bZuJVioetTQRUmMPAkzw9lgHRkECqgR2ASinYmxarpbV7FToWmsz+53WeLKwfunhhIQEBAcHIzpanrZrD0nuLGuojc0+AiZ4+6wFIyEBFQJya630rHb37t0oW7asypwP2Bw7fwVtwudp6yjwHIE1Y7rg8UwZtB0cPXoUISEh2joA9wFkZoEbE3T20TDB22ctGAkJqBCYqHpsacWKFWjSRNrI640rN6PR8G0Wu9Gj5jnr3NkyYvmHZiVq5SRFWFiYSXDHAMimTg4fJsAE78OLx9BTJIFXAXypcuVSmlQ2WOmO+IQEVO0zFXHx3Dyty84T9u3rl8ObL1U3mlqKHY0fP95EuxSAHMvk8GECTPA+vHgMPUUSKA5A6QzboEGDMGrUKCNIYSO+xtGzvxtpKXIvgen9XkSFEKf7KpN16kKJ2ucBLHPvlXA2qwkwwVtNnP5IwDUC8jMrO6ac9oV/8cUXsXix2R6p8K/WYdnmQ65FSrVbCEgHuVxZ5Ti63oiNjYWUqDXYYHcHgDSdj9PzSGu7EWCCt9uKMB4ScE7gOIDCzsxKly6N/fv3OzNL9t+XbNiHkfPWG2kpch+BbMHp8P3o1xAQoP9VvX37dlSqVMkkmO0AjIQmzqjxHAH9T43nYuHMJEACagR+AeD0pWzq1Klx584dBAUFqc36J6udUWfRfcISbR0F7iXwepOK6NYs1GhS6UUwYMAAE630OxhqIqTGXgSY4O21HoyGBFQIRADopmIYFRVldEyKfeFV6HreZu57bVGiQE4jR02bNsXKlSt1tbKzshAAKajE4eMEmOB9fAEZfook0A7AXJUrX7ZsGZo1a6Zi+oBNzP1YVHtjmraOAvcRkMfyP43vhvRpU2tPGhcXhxw5cuD69eu62n8DeEJXRHt7EmCCt+e6MCoSeBSBHACk3VuAM0yyi15205uMdh/OR9SZ30yk1LiBQKOKIRjR2awL3I4dO1CxYkWTKL4A0MVESI39CDDB229NGBEJqBA4ByCPM0MpcvL11187M0v236d+txlffL/TSEuR6wRmDmiJssWcLnGyjkaOHIn3339fN4hEAOUB7NEV0t6eBJjg7bkujIoEnBGQHt3VnBmVLFkSBw8edGaW7L9vPXgKvSdJvRMOqwkEBQbgx3FdjR7PS6zSLnjTpk26YZ8AUERXRHv7EmCCt+/aMDISeBSBMQAGOkMUEBCAGzduIGPGjM5M//bvl67dRpN35Ykth9UEWtYog0Ev1zZye/XqVeTMmRPx8fG6+lkAOuuKaG9fAkzw9l0bRkYCjyLwLAA5r+x0rF+/HrVq1XJq91eDxETg5Q9Z0U4bnBsEC4e0Q9E8jxvNNG3aNPTs2VNXK7vnnwZgVjhB1xvtLSHABG8JZjohAY8QuOaoOPbIycPDw/HBBx8YBRD5r6MYNGO1kZYiMwL5smfC4vBXERjgdA9lsg4aNmyItWvX6jo/CsCo7ZyuI9pbR4AJ3jrW9EQC7iawVaXiWN26dREZGWnk+/rtu6g/cCYS5XaewxICEX1fwDPF8xv5unbtGnLnzo3796Xbq9YYB8CoKo6WFxpbSoAJ3lLcdEYCbiUwAcBbzmZMnz495ItfKtuZjGFfRWL5ZrONeib+UrImY7rUWDPmNaRJpV99ULhNmTIFvXv31kUovw1IcZsLukLa25sAE7y914fRkcCjCJQGsA+A05/jdevWoV69ekY0j52/gjbh84y0FOkRGNOtMeqUM2/DXrVqVWzevFnPKfAjgLq6Itrbn4DTLwb7XwIjJIEUTUCp8UyfPn0wadIkI1AJiYloPWwuTl6UV/4cniKQOUNarPqos/Hd++HDhyHHIg1GawD/NNBRYnMCTPA2XyCGRwJOCHyucrQpV65cOHPmDFKlSmUEdPuh0+g58TsjLUVqBCL6vohnipv1fRcPPXr0QESEtCnQGlJzvoCWgsY+Q4AJ3meWioGSQLIEpNiNdJdz+rO8YsUKNGnSxAhjzP041B84A3fvxRrpKXo0gcK5s2LBkHbGO+fv3r2LPHnymNSeH6tST4Hr55sEnH4p+OZlMWoSSFEETgNwuu1auostX77cGMx3Gw9gxNwfjPUUPpzA0hEdkDd7ZmNE48ePR//+/XX1dwH8A8ANXSHtfYMAE7xvrBOjJIFHEZip2iDk+PHjKFy4sBHNO3fvo+E7MyF38xzuI9D3pWpoV19KwJsNqVgn796PHpWj7FpDmhRIZ0IOPyXABO+nC8vLSlEEnnFUtXP68yzvaadOnWoMZ+3OI3hv5vfGegofJBCSLzvmvNfW+NG8zDZjxgx07dpVF638llYKgPZvBbqOaO89Ak6/ELwXGj2TAAloEFDaTZ8pUyZcunQJadOm1Zj6f6b3YuNQf8AMRPNdvBG/P4vkrPv3o7sgOH0a47kSEhJQqlQpREVF6c4hlY/q64po71sEmOB9a70YLQk8jMB0AEq3cfK+tm/fvsYkd0SdQY8J3xrrKfzPjsh//t8rKJQ7m0s4DO/epe58DQDa7eZcCpZiywkwwVuOnA5JwCMEpPnMNpXd9MWKFYOcmQ4MDDQKRO4aWw2bh1OXeC7eCCAAVwvaiF8pR1u0aFGcPXtWNwwpVN9QV0R73yPABO97a8aISeBhBKSft5QcdTrmzp2Ldu3M91ed//0Gmg/+0qkfGvydwJBX66F5FXn97dp4++238fHHH+tOIj1kKwPYoSukve8RYIL3vTVjxCTwMALSvL2TCp7y5ctj586deOwx86+ACd9swLzI3SruaOMg8EH7uni+qlQYdm1cvnwZ+fPnN2kqswqAWTEE10Km2gsEzH+6vRAsXZIACTySQCUAW1Qe08ssS5cuRfPmzY2R3o+NR9P3vsDVW3KcmuNRBAIeewyfvvE8KpV0vWicdParU6cOfvrpJ13osnNefrs4oiukvW8SYIL3zXVj1CTwMAKynVqpr3e5cuWS7uIDDPuOSwBXb0Wj0TufIyGB7WQftiDp0qTC/PfDkC9nFrd8ag2L2ojvGaobMd0SKCfxOgEmeK8vAQMgAbcS+AjAO6ozzpw5E126dFE1T9Zux6Ez6DGRu+qTg5MneyYsHd7BpVchf55XHs0XLFgQMTExumt201G1LlpXSHvfJcAE77trx8hJIDkCRR3FS5R+tuU97okTJ4x31P8RwJgFP2HRT79yRRwE5JH8a02eRdemoW5jIqcXZO/E3r17TeZ8G4D2jjwTR9TYh4DSl4B9wmUkJEACCgSkIbjslFYagwYNwqhRo5RsH2Ykj+g7fLQAh07/5tI8/iB+PFM6LBvRCWlSB7ntcuS9e7du3ZKq1hkM+Y2grIGOEh8nwATv4wvI8EkgGQI9AUxRJSMtZM+fP4/s2bOrSpK1i49PQNiIr3H8wlWX5vFVcdrUQfjo9edQrYxZrf9HXffs2bPRqZPSAYm/TiNFbaRGwi5f5cq4zQkwwZuzo5IE7EpAbh2vA8igGmDNmjWxfv16l98VJyQm4uUR8/Hvc7+ruvZ5uzSpAtGtWShebVDBI9eyfft2VK5cGfKI3mDIY3l5PM+RAgkwwafAReclpwgCymfi/6Ahd4kdOnRwGY48Tu7z6VJsPShdbP13SAmBPi9U9VhiF3LSN6BAgQIm591FLgsghY94xMF/P4aPvDIm+BS68LxsvyfwhO555+DgYMgubdNGNH8mKkl+buRuTFy80e9Ay7G3T3o1Q4WQfB69tujoaOTKlQu3b9829VMOwB5TMXW+T4AJ3vfXkFdAAg8jIH1dtWqOV6pUCVu3bnUb0VvR91C7n/TB8f1Rp1xRhHdugLSpUnn8Yu7evYvcuXPj5k053WY03gPg2s5JI7cU2YkAE7ydVoOxkIB7CdQG8KPulIMHD8bw4cN1ZY+0HzH3B3y38YBb57RishL5cyK8c30U+cfjVrhL8nH16lUUKlQIt27dMvUpv9g9Zyqmzn8IMMH7z1rySkggOQK/AKiui0Yq3FWo4N5NY7Fx8WjxwZe4dM34kbPuZRjZN3w2BG+8WA25smY00rsiOnDgAMqWLYu4OKkqazRuAMgDgAVtjPD5l4gJ3r/Wk1dDAn8l0BTAcl0sWbNmTWpDmj59el3pI+3l3fz1OzHoPn4xjp23x3G63FkzonPjZ9HgmRCkTZ0KQYEBbr1m1cmkw1/Hjh0RHy8N34yHVNaRtsEcJAAmeH4ISMD/CUgDGu2SasWLF8ehQ4dcPjqXHF5J9DH34/DPn3/F1KVbEBdvdATMaOWeyPs42tR+GrXLFUP6NP9J6K501TMK4i+isLAwLFy4EMLFhSFHIL5yQU+pnxFggvezBeXlkEAyBGoC0G49JvM8+eST2Ldvn0ehShW8e7Fx2HvsPOau24Vth8/AtTz3v3AL5sqC+hVCII/dc2cLRqqgQK/doScH8d69e0nv2y9evOgqY9k0McTVSaj3LwJM8P61nrwaEngYgW8AvGSCp0qVKti0aZOJ1EgjBV1i4xIQl5CAazejcejMZZy6eB0Xr93ClRvRuHsvFolITLr7zhqcDtkzZ0SBnFlQKFcW5M+VFamCAhAUEIDAwAAEutApzyh4DdH8+fOT6g7ExsZqqJI1jQAg1Qtduv13NQjq7UeACd5+a8KISMATBAoCOA7A6AXzc889h1WrVnkirhQ3p7xjDw0NTWrV64ax3nEU0uXfEtwQC6ewGQEmeJstCMMhAQ8SkHPRg0znr1evHtatW2cqpw7A0KFDMXr0aMijeTeMfwGoCsAtk7khHk5hMwJM8DZbEIZDAh4kkBpAlKN8qZGbEiVK4ODBg17flGYUvBdF8vRDHsf//rvbavRLcq8GQLsxvBcx0LXFBJjgLQZOdyTgZQJyx+dS/VjpOrd7927ky+fZUq1e5uQW9/v374c8+ZCa8m4cUryoMe/c3UjUT6digvfTheVlkcAjCIwBMNAVQlKvftasWWjbtq0r0/itVk4etGzZEkeOHHH3Na4A0JLJ3d1Y/XM+Jnj/XFdeFQk8ioA8qt8B4ClXMAUEBKBBgwZYvXq1K9P4jVbOsM+bNw9S6vfUqVOeuK4ZAHoB4IY6T9D1wzmZ4P1wUXlJJKBAoCiAwwCkd7xLQzqeLVq0CDVq1HBpHl8V37hxA7169cL333+PK1eueOoy5InLBAAulbnzVHCc154EmODtuS6MigSsINAawEJ3OJJKcNWqVUs6Spcxo/U13N1xDTpzyNn1iIgITJw4ESdPnnS1vOyjXEuJPylU5NK+CZ1ro63/EGCC95+15JWQgAkBqX42zESYnCZ16tRo06YNZs+eDXmE709DGsBIcZrJkydDmsLcuXPH05d3xpHcT3jaEef3TwJM8P65rrwqElAlEAjgCwCvqgpU7DJlyoTWrVtj6tSpSGVB/3SVmExspGXr9OnTkxK7bJi7fduyTnizAPRmVziTVaPmDwJM8PwskAAJpAUgu7PruhuF3NFLqduxY8eifPnytj8/L1XmfvjhB8ycORO7du3y9OP35HBLn1jpACgVhazrwOPuhed8tiDABG+LZWAQJOB1AvLi/GcA5T0ViZybl414Us0tJCTEU2605o2JicGaNWuSOrnt2bMnafd7dLTXWqkvBtANgMd26mnBobHPE2CC9/kl5AWQgNsIZHH0jpcKaR4dhQsXRpkyZZLOirdo0QLBwcEe9SeTyzt0SeKRkZHYsGEDjh07hhMnTuD+/fse9+3EgbzMDwOwknft3l4K//LPBO9f68mrIXYVkwwAAAK6SURBVAFXCWQAIHeSDV2dSEefN2/epMp40jq1UqVKSY/zpSxuzpw5tR7r3717NylxR0VFQarIScGZs2fPJrVjvXDhgh2S+V+xfATgQwCWvdzXWRfa+jYBJnjfXj9GTwKeIJAOgGzyauOJyXXmlHf4cnefLl06pEmTBkFBDx7bl7tyuQOXxC672uVvHxnLAQwA4PZSdz5y/QzTAgJM8BZApgsS8EECkknfBRDug7HbOeQfHIl9j52DZGz+QYAJ3j/WkVdBAp4i0ALAIgCpPOUghcy72fEL0y8p5Hp5mTYgwARvg0VgCCRgcwLFACwFUMrmcdoxvAUAxjtq/9sxPsbkxwSY4P14cXlpJOBGAnJWXh7ZS+U7jkcT+A3AKADfAJBqdBwk4BUCTPBewU6nJOCzBOQufjaAZ332CjwTuDSB+Q7AFAA/AUj0jBvOSgLqBJjg1VnRkgRI4D8EZANeVwCjAfh/Z5mHr7okcWm7K6V+lwG4wA8ICdiJABO8nVaDsZCAbxGQ6jTSn3woAHmEnxKGlJJd79h4GAngZEq4aF6jbxJggvfNdWPUJGAnApkcjVHeASD/7W/jvGOT4RpHOd/r/naBvB7/JMAE75/ryqsiAW8QSA1AjtXJXX0NbwTgJp83HM1e5A5d+rAfcNO8nIYELCXABG8pbjojgRRD4CkA7QG8BKCwza9a3p1vAiBn1SWh7wIgm+Y4SMCnCTDB+/TyMXgS8AkCZQA0dtS3r+7YpOetwKVVnFSR2+74s4Xv0b21FPTraQJM8J4mzPlJgAT+TEAe41cCUAFAWQDlAJT0QKW8ewBOAIgCsB/APscf+X/enfMzmSIIMMGniGXmRZKArQkEACgKoACAPAByA8gF4HHHpj3ZoS+lcuX7SpJzAoAYAHI3fs3RP/0iAPkjj9vPOv4WOw4SSLEE/h8kfSCTAt1h9wAAAABJRU5ErkJggg==;" parent="1" vertex="1"><mxGeometry x="158.5" y="690" width="83" height="85" as="geometry"/></mxCell><mxCell id="UID2tYNRAP9tnTUfMCMo-10" value="" style="shape=image;verticalLabelPosition=bottom;labelBackgroundColor=#ffffff;verticalAlign=top;aspect=fixed;imageAspect=0;image=data:image/png,iVBORw0KGgoAAAANSUhEUgAAAiYAAADcCAYAAABEWGoQAAAACXBIWXMAAAsTAAALEwEAmpwYAAAKT2lDQ1BQaG90b3Nob3AgSUNDIHByb2ZpbGUAAHjanVNnVFPpFj333vRCS4iAlEtvUhUIIFJCi4AUkSYqIQkQSoghodkVUcERRUUEG8igiAOOjoCMFVEsDIoK2AfkIaKOg6OIisr74Xuja9a89+bN/rXXPues852zzwfACAyWSDNRNYAMqUIeEeCDx8TG4eQuQIEKJHAAEAizZCFz/SMBAPh+PDwrIsAHvgABeNMLCADATZvAMByH/w/qQplcAYCEAcB0kThLCIAUAEB6jkKmAEBGAYCdmCZTAKAEAGDLY2LjAFAtAGAnf+bTAICd+Jl7AQBblCEVAaCRACATZYhEAGg7AKzPVopFAFgwABRmS8Q5ANgtADBJV2ZIALC3AMDOEAuyAAgMADBRiIUpAAR7AGDIIyN4AISZABRG8lc88SuuEOcqAAB4mbI8uSQ5RYFbCC1xB1dXLh4ozkkXKxQ2YQJhmkAuwnmZGTKBNA/g88wAAKCRFRHgg/P9eM4Ors7ONo62Dl8t6r8G/yJiYuP+5c+rcEAAAOF0ftH+LC+zGoA7BoBt/qIl7gRoXgugdfeLZrIPQLUAoOnaV/Nw+H48PEWhkLnZ2eXk5NhKxEJbYcpXff5nwl/AV/1s+X48/Pf14L7iJIEyXYFHBPjgwsz0TKUcz5IJhGLc5o9H/LcL//wd0yLESWK5WCoU41EScY5EmozzMqUiiUKSKcUl0v9k4t8s+wM+3zUAsGo+AXuRLahdYwP2SycQWHTA4vcAAPK7b8HUKAgDgGiD4c93/+8//UegJQCAZkmScQAAXkQkLlTKsz/HCAAARKCBKrBBG/TBGCzABhzBBdzBC/xgNoRCJMTCQhBCCmSAHHJgKayCQiiGzbAdKmAv1EAdNMBRaIaTcA4uwlW4Dj1wD/phCJ7BKLyBCQRByAgTYSHaiAFiilgjjggXmYX4IcFIBBKLJCDJiBRRIkuRNUgxUopUIFVIHfI9cgI5h1xGupE7yAAygvyGvEcxlIGyUT3UDLVDuag3GoRGogvQZHQxmo8WoJvQcrQaPYw2oefQq2gP2o8+Q8cwwOgYBzPEbDAuxsNCsTgsCZNjy7EirAyrxhqwVqwDu4n1Y8+xdwQSgUXACTYEd0IgYR5BSFhMWE7YSKggHCQ0EdoJNwkDhFHCJyKTqEu0JroR+cQYYjIxh1hILCPWEo8TLxB7iEPENyQSiUMyJ7mQAkmxpFTSEtJG0m5SI+ksqZs0SBojk8naZGuyBzmULCAryIXkneTD5DPkG+Qh8lsKnWJAcaT4U+IoUspqShnlEOU05QZlmDJBVaOaUt2ooVQRNY9aQq2htlKvUYeoEzR1mjnNgxZJS6WtopXTGmgXaPdpr+h0uhHdlR5Ol9BX0svpR+iX6AP0dwwNhhWDx4hnKBmbGAcYZxl3GK+YTKYZ04sZx1QwNzHrmOeZD5lvVVgqtip8FZHKCpVKlSaVGyovVKmqpqreqgtV81XLVI+pXlN9rkZVM1PjqQnUlqtVqp1Q61MbU2epO6iHqmeob1Q/pH5Z/YkGWcNMw09DpFGgsV/jvMYgC2MZs3gsIWsNq4Z1gTXEJrHN2Xx2KruY/R27iz2qqaE5QzNKM1ezUvOUZj8H45hx+Jx0TgnnKKeX836K3hTvKeIpG6Y0TLkxZVxrqpaXllirSKtRq0frvTau7aedpr1Fu1n7gQ5Bx0onXCdHZ4/OBZ3nU9lT3acKpxZNPTr1ri6qa6UbobtEd79up+6Ynr5egJ5Mb6feeb3n+hx9L/1U/W36p/VHDFgGswwkBtsMzhg8xTVxbzwdL8fb8VFDXcNAQ6VhlWGX4YSRudE8o9VGjUYPjGnGXOMk423GbcajJgYmISZLTepN7ppSTbmmKaY7TDtMx83MzaLN1pk1mz0x1zLnm+eb15vft2BaeFostqi2uGVJsuRaplnutrxuhVo5WaVYVVpds0atna0l1rutu6cRp7lOk06rntZnw7Dxtsm2qbcZsOXYBtuutm22fWFnYhdnt8Wuw+6TvZN9un2N/T0HDYfZDqsdWh1+c7RyFDpWOt6azpzuP33F9JbpL2dYzxDP2DPjthPLKcRpnVOb00dnF2e5c4PziIuJS4LLLpc+Lpsbxt3IveRKdPVxXeF60vWdm7Obwu2o26/uNu5p7ofcn8w0nymeWTNz0MPIQ+BR5dE/C5+VMGvfrH5PQ0+BZ7XnIy9jL5FXrdewt6V3qvdh7xc+9j5yn+M+4zw33jLeWV/MN8C3yLfLT8Nvnl+F30N/I/9k/3r/0QCngCUBZwOJgUGBWwL7+Hp8Ib+OPzrbZfay2e1BjKC5QRVBj4KtguXBrSFoyOyQrSH355jOkc5pDoVQfujW0Adh5mGLw34MJ4WHhVeGP45wiFga0TGXNXfR3ENz30T6RJZE3ptnMU85ry1KNSo+qi5qPNo3ujS6P8YuZlnM1VidWElsSxw5LiquNm5svt/87fOH4p3iC+N7F5gvyF1weaHOwvSFpxapLhIsOpZATIhOOJTwQRAqqBaMJfITdyWOCnnCHcJnIi/RNtGI2ENcKh5O8kgqTXqS7JG8NXkkxTOlLOW5hCepkLxMDUzdmzqeFpp2IG0yPTq9MYOSkZBxQqohTZO2Z+pn5mZ2y6xlhbL+xW6Lty8elQfJa7OQrAVZLQq2QqboVFoo1yoHsmdlV2a/zYnKOZarnivN7cyzytuQN5zvn//tEsIS4ZK2pYZLVy0dWOa9rGo5sjxxedsK4xUFK4ZWBqw8uIq2Km3VT6vtV5eufr0mek1rgV7ByoLBtQFr6wtVCuWFfevc1+1dT1gvWd+1YfqGnRs+FYmKrhTbF5cVf9go3HjlG4dvyr+Z3JS0qavEuWTPZtJm6ebeLZ5bDpaql+aXDm4N2dq0Dd9WtO319kXbL5fNKNu7g7ZDuaO/PLi8ZafJzs07P1SkVPRU+lQ27tLdtWHX+G7R7ht7vPY07NXbW7z3/T7JvttVAVVN1WbVZftJ+7P3P66Jqun4lvttXa1ObXHtxwPSA/0HIw6217nU1R3SPVRSj9Yr60cOxx++/p3vdy0NNg1VjZzG4iNwRHnk6fcJ3/ceDTradox7rOEH0x92HWcdL2pCmvKaRptTmvtbYlu6T8w+0dbq3nr8R9sfD5w0PFl5SvNUyWna6YLTk2fyz4ydlZ19fi753GDborZ752PO32oPb++6EHTh0kX/i+c7vDvOXPK4dPKy2+UTV7hXmq86X23qdOo8/pPTT8e7nLuarrlca7nuer21e2b36RueN87d9L158Rb/1tWeOT3dvfN6b/fF9/XfFt1+cif9zsu72Xcn7q28T7xf9EDtQdlD3YfVP1v+3Njv3H9qwHeg89HcR/cGhYPP/pH1jw9DBY+Zj8uGDYbrnjg+OTniP3L96fynQ89kzyaeF/6i/suuFxYvfvjV69fO0ZjRoZfyl5O/bXyl/erA6xmv28bCxh6+yXgzMV70VvvtwXfcdx3vo98PT+R8IH8o/2j5sfVT0Kf7kxmTk/8EA5jz/GMzLdsAAAAgY0hSTQAAeiUAAICDAAD5/wAAgOkAAHUwAADqYAAAOpgAABdvkl/FRgAAH8FJREFUeNrs3XuYHVWdr/G3uTMg0CAIiIAJgijDAImAKBIx3KQFxUmYEREOHBMUiTIiCUoS7nTwOs0RTY84Z5TxQhSEJCKQ0QYHAU1MCKhHIEHuAQaiMWAIhD5/rBUN0Jfau2rvXav2+3me/YyjqeqqX63a9d1Vtdbq6O/vR5IkqQzWswSSJMlgIkmSZDCRJEkGE0mSJIOJJEkymEiSJBlMJEmSwUSSJMlgIkmSDCaSJEkF26CsGzZpzph2PB6bADsBewN7Am+In37gJZtrQ4J5B/Bw/PwOWAw8Aqxqt2L0dPXZIiQZTATAwcDbgKOBQy1Hy/0UmAv8Cvi55ZAkg0m7+Cfgn4FjLEWpHLpOQLwe+C7wPcsiSY3nOyat8T7g9njBM5SU2zHxON0ej5skyWBSGTsAV8Zf4QdajqQcGI/blfE4SpIMJkk7lvC+wimWImmnxON4rKWQJINJqqYCPwJGWopKGBmP51RLIUkGk9T0ABdYhkq6IB5fSZLBpPQ6gF7gDEtRaWfE4+y5JEkGk1L7IvBRy9AWPgpcYhkkyWBSVicCZ1qGtjIZ+JBlkCSDSdnsCnzVMrSlrxCmFJAkGUxK4wLgNZahLW2Lj3QkyWBSIocTHuOofZ0Y24EkyWDScv5alu1AkgwmpTABGGUZFNvBBMsgSQaTVukEplsGrWN6bBeSJINJ050N7GgZtI4dY7uQJBlMmmpPHN1VAzsjtg9JksGkac4HNrMMGsBmsX1IkgwmTXE4MM4yaAjjsPuwJBlMmsRuobKdSJLBpBROwe7BymZUbC+SJINJQ2wLXGQZVIOLYruRJBlMCncWsINlUA12iO1GkmQwKdTuwGmWQXU4LbYfSZLBpDCXAltYBtVhi9h+JEkGk0KMBY6zDMrhuNiOJEkD2MAS1BTifOFVRbgI+CnwkqUo3qQ5YyYTxo9pRK+5ecAsoHeYf3dzEwLogrgtM1q8HcvjNvTG/zyYyUB3hvX1AhNz7M8sYHzGbV8CjMjw70YCS4f5NxNiu2tUvXuBWT1dffPa4WKrbE4GDrAMKsABsT2p2EDSOWnOmPnx4teorvxjgZnxAtlqo+K+zqe1E0Z2xu1YQjmGUBjXgnpcHdtFI0PgBODmGLwNJmJrYJplUIGmxXalYr+4m3VhHBv/XhmMKsm2rA0oZWkLzfxbzRwBvHvSnDEjqnwiG0yyORvYxTKoQLvg7MON+KXc7EDQrvs+VGBrt2Ayto2Pt8GkRd4MfMIyqAE+EduXivvF3q7KFJJGlGQbxla43VW6rfvy6/CcPXh4t8fPM+ucNPsA77E0Q1o7+/DxlkIq3DjCy8qGcINJpRxB9re729FPgQsIL989O0DbehtwJs7APJTxwDeBGy2FVHgwmcLQPYVUQj7KGbo20y3DoC4GjgRuGSCUALxIuIsynvDIYrUlG9R0z0WpIXcVJlgGg0mVfAR4u2UY0EXAucALGf/9V4GTgH5LN6C3x/YmqVjerTWYVMb2wIWWYUBzgKl1LPc94GuWb1AXxnanxpvY09XX0dPV1wEM9Olt4rZMGWQb1n4mlmQ7RiZ6rEdRnheDX1Xjte1wnfY4z9PTYDKYfwF2sgyv8kKdoWStS4BllnFAO8V2J6lY3jUxmCTvrfhccjDzgEU5ln8UuN4yDmpCbH+Sij2vOi2DwSRlU4EtLcOA5hSwjrnAGks5oC3Jd0dK0qt14l0Tg0nC3oNjSgzlngLW8RD20BnK8Tj+i1Q0g4nBJEkbEMbk0OCKGA9gfcs4rAtwjCGpSGMpx4i0MpjU5FTgIMvQ8FDRYRmHdVBsj5KK47uDBpOkbA981jKoRD6L3YcbxRchDSYymJTeWcDOie/DMuBXwDWEoeIfbZNjtwK4E/g3wpTr1wB/qMB+7RzbpYrXPWnOmMmWoS0Dqe+aJMDn2LAnad82XwJ8gzB42Z/W+e83B94PfBR4V0WP3f8FvgTc/Yr/fkPgn4BPUq5ZV2t1KnAl8DtP00xqeQeqe9KcMQAzBvjfJtK8gc3UXOOAWWXduJ6uvsM8RN4xAfgcsFWi2/594J3xTsGfXvG/rQSuAg4BplGt4eD/GL9g/tcAoQTCQHDfBg4kDIefqq1i+1Q2tY6a2Q1456T9gokvwRpMSu0I4IREt/3ceFcgy0iqFwKfqtBxOxn4QYZ/9yJhAsETgL8kuq8nxHaq4oPJ2nDSbenaLpzIYFJKHfFOQmqWEyZ8u7jG5XqAH1bguM0Erqtxme8ARwOPJLrP07A30/ANvKtvHgM/mhnO5Niu1B58CdZgUlqnk1734MeBQwmPKer67ibtwc2WE2Y2rsfPCHceFiS43wfF9qrhw8kU6puEb4LhpG2MIIxrIoNJqWxPes+W5xNeYl2UYx23EXrupOoO8t31+G0Mdj9LcN8nY/fhrOFkYo5wcrUVbAs+zjGYlM4nSWv24DuA9wL351zPmpzBptXuLmAdKwi9lW5JbN93iu1WjQ0n44Cb2/QuQv8QnyUV218n9iuxduwuvCdwWkLbuzB+WT5V0PpeSvjYPVTQelYA4wnvqhyY0P6fBnwLuw9nDieT5oxZTu13R8fGcGLXzWpr5bsmS4ARsct6PXpj+K6kdrxjMp10ugc/TLhTUuRLmynP7FvkIHhPAu8jPN5KxVax/Sp7OJkCTKlj0bGEx6f+qq7d0kS208c5BpNSOJJ0Zg9eFi+cywpe764JH7+iB0v7H+BYYHFCNTg+tmNlDycz6gwnowh3ThoZTroZ+hFKai/kzktoW0fhmCYGkxLs64WJbGs/8DHgroLXuwvwjoSP4b7AyILX+TRhXJTnEqrDhTgGUZXCSVUsr7PGjbDUw2EwScFHgdGJbOvpwI8asN5TgW0TPoZbEwZMK9ra93hSMTq2Z9UeTup5Lj+K8FjHX9dDB5LRlKc7fq+HxWBSdq8DzklkW68gzHtTtCOpxqRwEwmDpRXtx4nV55zYrlVbOOmtM5yMINw5qWo4WU72uYaWEwb8W/vZmjCw3dKS7c88W7zBpMw+TXiMUXa3Amc0YL1dhImrNq3AsdyUMIPwBxuw7i8C30ukDrvEdq36wsl4w0ndF/JO0higbJat3WBSVruTxkyhq4GPU3x33o8R5pXZvELHdKO4Txc3YN1nks7Q9RNj+1bt4WQW9XUHHkE5H+sU8Qillgt5Co8+Z1HbjNMymDTNJcAWCWznmcBvClzfJsBXCI+GNq7osf1sDChbFrjOZYTxDVLoVr1FbN+qL5zMqzOcdFK+EWJnFbSOrBfyFILJcrxrYjApoaNozC3/ov0wBoiibBov2O0wUugHgWsLvnNwA/DNhPb/KL/K6lZvOBlVoovzAop72TPrhbyTdO6alNFIoKOnq+9lH3wvpi2CyXkJbONfgM8UuL4Nge/SmBdEy+rdMZzsWuA6p1DcSLO28/KHk9HUftt/VIu3ewF/6w1T1COLqj3OmUeaE3caTCpqIrB/Att5PvBAQev6O2A2YdCwdvMW4EaKe/b/DOHxWgr2J433qMpsAeHOSS0X+CLGNpnCy3u41PIZTegNU/SFPGsNxpLG+C4+zklMVefK2QaYlsB23gNcXtC6tiD0KDmijdvz7sAc4BCKmVvoGmAuadx9mkZ4fPd0ux78SXPGLMkYTCfGnjmDhZN2H1Ctl2zzC619nNObwP50e7lPR1XvmHwa2DGB7ZxOcSOOXoXvGkCYpPEqwiOtIpxPGi/C7ojdh4uwwF/YNe1/Ct2GfQnWYNJyb6UxY4EU7RfxF3kRLiPMq6PgcODfClrXr2LQScEZsf1LecNZ1sHSxuHjHBlMMv3CTWHMjrMLWs+JFPvybFWcVOAdhPOAlQns8+ax/Ut51fJ4xjFNZDAZwmGk0T34GuC2AtazT4F3BqroMuDgAtbzB+AbiezzB6mv+6u0rlq6raYyz5Tz5xhMWiKVF5yKGCNjU8KcOhvbjIds31cAmxWwrq8TZn32PFA7WED2brb2zpHBZBCnAPslsJ2/oJhBdM4BDrQJD2svihm6/l7gW4ns837xfJCadSGfULGwJYNJbtsBFyayrf8OPJ9zHfsC/2LzzewM4O0519FPOqPBEs+H7Tz0alIw8XGODCavcCZpdA9+mDAqa14XU8zjiXZq50XcNfklsDCRfd6RdAaIUzktJfvd3VGkMeuyL8EaTJpiD8KsvCmYCzybcx3H4Hgl9Xg3cHzOdayifJO3DeXj8fyQ6lW1l2Ad0yQBVRj59VLSmD0YinkUYHfQ+p1LmFNndY51fJcwKuZWCezvFvH8OM5D/zIzJ80ZM9MyZFLLqKnjKH6I/EaYRWveiel+ZS0nzRljCxtA6ndMDgU+kMi2/pIwWFceHyJ0EVZ99iL/XZMHSesFug/E80Rq9B2GUbR+YsMs5pF9ADkZTGrSEX8NpuLaAvb3DJtsbmfFWuYxO7F9vrSAfVb7ckwTGUwyOpU0Zg9e69acyx9CGt2hy25v8j/a+CH53xVqpv3j+SLVo5YXRscltE8ymBTqtcDUhLb3nvjJ4yRgI5tsIU7KufwjhEdzKZkazxupVsvJftdkBGlM7FdLj6OyHhODScl8Btg5oe3tA1bkWH477IlTpHcCb8q5jp8kts87U/05lewGWo47DGMruE9la3cGk5LZCzg9sW2+q4AL6ev8bixMJ/nnk7kzwf0+PZ4/XjyLMa+NzplaHudMqOA+la0dVPpRVIrB5ALSGlzsz+TvxXGsWaJwXcCGOZa/D3g8sX3eLJ4/VdVL83pMzaL93lPIur+dpDOmSW9B7a6ZbWFKT1dfpXsVpRZM3ks63YPXegD4XY7ltyYMqqZiHQm8McfyjwF3JLjfH4jnUeX0dPUt7+nqGw1MaWBAmQdMBMa34TlTy8W3s4L7NJTxsV00Mhj3Aof1dPXNqHpD6+jvL+eEqQMMPNMB3A4ckFiNryVfL5CjgTkl2Zd9gUU51zGa0ENp0xLszzjgBzmWvzReBFNzJ2HuoP5XXNiNq5JaLqU7Jh9PMJQALM65/CE204Z5V87l70t0vw8gnWkcJBlMSmkHYFqiNb4/5/L720wb5hBg/ZzH9vlE931aPK8kyWBSh8mkOYX7KsIQ5vXaGtjFZtowuwHb5lj+CdLttrddPK8kyWBSoz2BUxKt70pgSQsvnBrapsA/5Fj+ftLrmbOuU+L5JUkGkxpMAl6TaH1XEXpv1GsEaXWNTk0HsHuO5dcAzyS8/6+J55ckGUwy2pX8w4e30r05l3+9TbQpbSyPFYnv/0kF1ECS2iaYHEE5upXWa3XO5X2M03jb51z+wcT3f9N4nkmSwWQYm5D+iKd53z/otIk23Micyz9XgRocG883STKYDGEX4ODE65v31/SONtGGezHn8h0VqMHB2PtLksFkWHsDmyde341zLt9vE224TvI9LvxDBWqweTzfJMlgMoTRHh6DSRNsAvxdjuVXVKQOnm+SDCbDeIOHp3ReLGAdL1Us/HVU5Nh6vkkymAxjKw9P6excUJvrKNk5kCecvFSRY+v5JslgMozdPTyl+zW+bwHreCvl6gHyZ8IIvfXariJtzfNNksEk4W3L6oWcy5ft1/hRBazj8JLt0wryjTfzBr8LJKk4G5R426rw4uceOZd/tGT78w7gaGBuncv/A/CPFTuHnq/IfjTtfJs0Z8zNwNgG/5nlwIz4yWICMK6B27V2e3rJPvFjK7dpBPnm+arHYcC8Bq17cqzniBIc13o1uj3MAGb1dPUt8FfS4DYmfXnnufljCffpImD9HA1/o5Ltz/05l9+mIsFkY6qlE+iOF9fhLkZXAzMbHJbWbs/8jBfHMm5TitYGrO4G7WMt7SyPZrSHycD8SXPGjDOYDO7xCpwUeS9aT5Rwn/YBvl9noCnj0OdP5ly+Ko9yHqeaRsQv3OF+hTZze7oz/jIu0zalanKTQldnDA6N0Oz2MHPSnDEtHXW8zMHkgYp8KeaxhPzvqTTCB4GfAG/M8G+3BL4NfK6kx+i+nMtvTjU8QHUN9aU+tmTbU9ZtquKxL9pYGjONSLPbQ2eL2mASweTPFTgp1iPfJHH/j8Y/t6zXEcAdwBeA3V5xgd4UeB3wKeCXwIdLug8vxRrXa2Ng64p8gT9V4WDSOcQFo1W/DEcMs70p/pAq4w/Dzha0tRTWWca/+Vdlfvn19xU4MTaPdxWW1bn8Q8AzlLdL6nbAp4FJwG+AhbFNvQnYK4G7CSuB3+ZYfheq0134D1RbZ4lDvqREgskv4i/alLsxbgr8PXB7ncu/EAPam0u+nxsS3j3ZJ7Hjs5h8LxjvDLy2At8DLxHufklSy5X5on8f1XjuvVvO5W+xmTZMH/nGitmj5OE+qweAe20OkgwmQ3sCuLECNd6rgGDykk21IfLeJRhZkTrcSDl7gEkymJTO7ArUeAShZ0q9FvprtiFWAnfnWH4D4C0VqUVZz7MphGkZBvscVqJt6WhBUG3kNi0teN0jM6xvXgvb2nDbloKJJa9xZYJJH+E9gJS9Edg7x/L9hK65Kta1wMM5lt8ZeHsF6rA4nmeSZDDJYBXw5cRrvBH5J7+71qZauJvJNwz7HsAWFajDl+N5JkkGk4x+QL4unWWwT87l5xMe6agYTwK35lzH2ypQh9/G80uSDCY1WAmcn3id30W+4emf8wJSqLnAgzmW7wCOrEAdzo/nlyQZTGp0NXBDwnUeSf67Jldhz4kirAGuzLmONwMHJF6HG+J5JUkGkzpNoZzzxmT1npzLPwTcZJPN7b+B23Ku41DSHvjvhXg+SZLBJIfFwOUJ1/ofyT+1/OeB1TbbXC4sYB2pT3h2Oen3dpNkMCmFy4BHE631m4B35lzH3cB/2mzrdhPwXznXsS9wYMI1eDSeR5KyqWVyw6WWq/2CyRPAJQnX+9QC1jGDtB9ptdL0AtZxDPnvfLXSJfiuktpDlkHisgyg1p3x782z5O0ZTAC+CdyTaL0PB3bMuY7fA5fadGv2HfIPQb8ZcHzCNbgnnj+SshlL9ke3syxX+waTVaT74t42wIkFrOcLwP0238yeAj5bwHqOAPZMuA5TqNZgaqNq/PUs1Srr3ZLlBpP2DiYQxqG4JtFtPxHYKuc6/gycYfPN7DzyjVsCsD5wWsI1uCaeN1UwgjByby0XDalWE2oIvzNsZwYTCIND9Se43W8lf9dhCPPnfN0mnOmCfEVBv84PS7QG/aQ/SOG6F4slhFvsWfnsX7XqrCH4Lo3BRAYTFgP/mui2n1lQ7c8BFtiMB/U48ImC1nVWwnX4V9LsHtwdQ9W6n5l1rKfXU0F1BODOjP92ouUymKzrImBZgtv9DkLvjrz+CJwc/69e7i/AP8dwkteBhHFoUrQsniftqhfvmKg2I8h+t2SW7ctg8kpPk24PlW7CzMN53QOcblN+lSnALQWt63yG71JYVpfG86Rd24C/ZlXPd3MtbUwGk1eZSZoz7+5BuF1YhO8An7Q5/9X/AXoKWlcXoZt3ihZS36OP1C0FRuNzf9Wulu7BM7C3l8FkEM8D0xLd9qnATgWtqwdH9AT4KsX1WNqEYoawb5Vp8fxoNyPx3SvVp5aeXgZfg8mQ5gDXJbjd2wHnFri+yYQxTtrVFRT3siuER2T7JFqL6+J50Y6WUNsYJxLU1j14CnYPNphkcC5pdh+eCLy7wPV9pk3DyVcp9l2b3Uj3Tlx/wYE3NSOA+TGoS1l01tBeFmBPL4NJRvdQzHgVrdBDGO68yHDSTu+cfJFi75RAGCNmi0TrcQXpTttQpG7a8x0b1W4C2Sfr84VXg0lNpgGPJbjde1H8XY4e4Diq3SPjpRhIih5jZBLFDILXCo+R7p2eRl1wJlgGDcHuwQaThnqGdF8APQ14f8HrvBY4hGq+CHgvcBThEU6R9ge+lHBdLovnQRVM4dWzwI6n9p4QBhMNZXKNbVIGk5p9gzRHuQT4CrB9wev8Tfz131OhYzyL0K3vpoLXuwnwNcK8OClaHNt/lc0i9Lqp5QIxiuy36dVextYQXKdg92CDSZ2eJd2X3nYBrgY2Lni9fyK8c3JMDCqpegj4WPzV/HAD1n8lsF/iv/yebZPvrhmEOyhZe0YYTDSQWubD8YVXg0kuPwFmJ7rtBxMGCGuE2YRHOzMIMxSn4oVYk4No3MSF04EPJdzmZ8d2324MJqqXswcbTJpuKrA60W3/3zSuu+fThFuS+xFGjH2uxHVYRRiP412EQdMebdDf+TBwXsJtfXVs75KysXuwwaQl7kq8MZ1PmISuUe4HTiAMtz6Tck0EuBr4NuHl1vcDdzTwbx1G+u9l9Mb2LikbuwcbTFrmYtKcfXjtsfkPGj+r7W2EHkEHA2cDi1q4z0sJdy7eAXwE6Gvw33sbjXmnp5mWxXYuKZtaugc7O3ULbFDx/VsGXEK6PVI2jBfOE4H/bPDfuid+ZgK7E+5UHAe8nsYNNLYKeBz4L+D7MRT9T5Nquy+hO/VWibfxSxIO31IrZH2E43w4BpOG6QVOId05TzqAbxIeb8xqwt9bQRjOez7hPZd9CO947A/sCuwM7FBH23mJ0KvmKeCBuP5f0fi7IgN5M/DDGLpStgiffUu1qKV7sLMHG0wa5nlCj4vrEt6HjQh3TF6Mv/KbffFbtM7/P4IwI/L28bM5oZtzB3+bq2g9YA2hS+9Kwgu3jwH3xV/3L7Swll2EsUp2qkDbnk57zh4s1cvuwQaT0rg+XtA/kPA+bAj8gNbPILw04V8RHwa+FUNU6q6N7VpSNnYPTsR6bbSvF5Ju9+F1j9fnYzBZ3+Zbk/MIPX2qEEpWx/YsKZtaugfPw7slBpMmWUh1huv+NGFAre1twsPaEvh3wmOPqvhGbM+SsrF7sMGk1L+aH67IvhwF/Bw4wmY8qINijU6u0D49TNqDwUnNVmv34AWWzGDSTE+R7uzDA9mNcOfkAsIEdPpbuz6NMMnf31ds3y6L7VhSNq3sHjyB0ClguM9MD1P7BhMIXW/nV2h/NiQMR34D2V/sqrI9CS8Jfw3YrGL7Nj+233bRneELfUSJtmVJCeuzpM2/D2rpHtwZ69Wf49PKOZlmZti+sQaTcnou3mHor9h+jQH+G7iItEcyzeNTwK2k3ftqMP2x3T6HpFrCmxKzXpvu9+x4h6FqNgE+B/yaMM9Ou/TcOQr4JfBl4LUV3ccbSHfGbKkVaukeLINJKVR5cKq3EGYO/jHVfjl2b+AqYC5h3puqWjtIoKTsDCUGk+TMB66o+D4eDvyEMBDXsRXarzHAlYQRaU+gGmOTDOUKqvVelCQZTAYxA3iwDfbzfcCPCPPSnJrocV8POJ5wd+QmwvxHHW1w7B7EicSKMFgX0FaN7jnU6Mll3Ca1zvI2+ZsGk+iJNvvSP4QwONfvCbPS7k3o1VNWGwEjgbOAu4HvAe8t+TY3Ijw/4Xdz7gvuYMGkFVPaDzcZZxm3Sa3T7PawvEVt0GCyjm/TfqNo7gacA9xFmNzwY8CBJdq+0YRxSK4H7iUMw/+WNmybC2P7VD4Th/jfept8UV7K8COLlnGb1DrNbg8Te7r6WnrHZAOPOSsJ845c06b7f1T8rAFuIby3sRC4DXigSduwI7AfYaTWfQnvkDhgXGiXKy1D3abEL/ThHlGMJ/TgGEfjxnlYO3hXL9luk5dxm9Q6zWgPM4BZPV19LR/5tqO/v5zDeUyaM6bZf/JHVOsF0byWAY8RHqHcDdwfQ8sKYBVhIrk1WdsZ4bHMJsA2hEGI9gZ2B/YBXh/DiXfw/uY64P3N/IM9XX1WXVLLecfk5b9Oj7Ymf7V9/Oy3zn/3PGGArwdicHk01msZ8EgMFh0xsGwD7Aq8CGwL7ADsAmwdQ0qHJR7Uizh7sCSDSdtbAHwJONtSDGrj+Om0FA31JZxITFKb8tb5y32R6sw+rDQ9HNuhJBlMxJPAFyyDWugLsR1KksFEQBhR9NeWQS3w69j+JMlgor96FjjfMqgFzo/tT5IMJnqZ64FrLYOa6NrY7iTJYKIBTSd025Qa7UWcPViSDCbDuBu43DKoCS6P7U2SDCaWYEgzCAOHSY3yCM4eLEkGk4yeAC6zDGqgy3D2YEkymNTgSmCxZVADLMbuwZJkMKnRczgluBpjSmxfkiSDSU1uAK6xDCrQNbFdSZIMJnW5ALsPqxgvxvYkSTKY1O0uoMcyqAA9sT1JkgwmuVwCLLMMymFZbEeSJINJbk8D3ZZBOXTHdiRJMpgU4uvAQsugOiyM7UeSZDApzPPAVMugOkyN7UeSZDAp1FxgtmVQDWbHdiNJMpg0xGeBNZZBGayJ7UWSZDBpmHuAKyyDMrgithdJksGkoc4DHrUMGsKjsZ1IkgwmDfcM8HnLoCF8PrYTSZLBpCl6gUWWQQNYFNuHJMlg0jR/wdmHNbApsX1IkgwmTXUjdgXVy82N7UKSZDBpiXOBFyyDYjs41zJIksGklRYBMy2DYjtYZBkkyWDSahdj9+F291hsB5Ikg0nLLcMxK9rd1NgOJEkGk1L4FnCLZWhLNwL/YRkkyWBSJquB8cDDlqKtLAVOwvmTJMlgUkJPAh8BVliKtrACOBl4wlJIksGkrPqAccBKS1FpK+Nx/rmlkCSDSdndBIwFHrEUlfRIPL43WQpJMpik4k7g3cDPLEWl/Cwe1zsthSQZTFJzP9AFdBNejlW6Vsfj2BWPqyTJYJKk54Bz4gXtVsuRpFvj8TsnHk9JksEkeTcDhwIn4mOAVNwZj9eh8fhJkgwmlbIGuIrw4mQX8GPgKctSKk/F49IVj9NVOEaJJDXcBpagpVYCc+Nne+B9wGHACGAHYGtgE8vUcKuAZ4DHCQOl3QzMxqHlJanpOvr7+62CJEkqBR/lSJIkg4kkSZLBRJIkGUwkSZIMJpIkyWAiSZJkMJEkSQYTSZKkvP7/AIxEDfbSpvqiAAAAAElFTkSuQmCC;clipPath=inset(2.5% 51.67% 0.83% 4.67%);" parent="1" vertex="1"><mxGeometry x="-200" y="119.5" width="90.91" height="80.5" as="geometry"/></mxCell><mxCell id="UID2tYNRAP9tnTUfMCMo-17" value="" style="endArrow=classic;html=1;" parent="1" edge="1"><mxGeometry width="50" height="50" relative="1" as="geometry"><mxPoint x="466" y="700" as="sourcePoint"/><mxPoint x="466" y="740" as="targetPoint"/></mxGeometry></mxCell><mxCell id="fKm2lqC4MkwiA_qFB0BJ-3" value="Service Layer" style="rounded=0;whiteSpace=wrap;html=1;" parent="1" vertex="1"><mxGeometry x="50" y="410" width="300" height="60" as="geometry"/></mxCell><mxCell id="fKm2lqC4MkwiA_qFB0BJ-4" value="Data Access Layer" style="rounded=0;whiteSpace=wrap;html=1;" parent="1" vertex="1"><mxGeometry x="50" y="530" width="300" height="60" as="geometry"/></mxCell><mxCell id="fKm2lqC4MkwiA_qFB0BJ-2" value="API Layer / Controller Layer" style="rounded=0;whiteSpace=wrap;html=1;" parent="1" vertex="1"><mxGeometry x="50" y="290" width="300" height="60" as="geometry"/></mxCell><mxCell id="UID2tYNRAP9tnTUfMCMo-19" value="RESPONSE" style="rounded=0;whiteSpace=wrap;html=1;fillColor=#d5e8d4;strokeColor=#82b366;" parent="1" vertex="1"><mxGeometry x="406" y="750" width="120" height="39" as="geometry"/></mxCell><mxCell id="UID2tYNRAP9tnTUfMCMo-22" value="" style="verticalLabelPosition=bottom;shadow=0;dashed=0;align=center;html=1;verticalAlign=top;strokeWidth=1;shape=mxgraph.mockup.misc.loading_circle_1;fillColor=#F7F7F7;" parent="1" vertex="1"><mxGeometry x="456" y="690" width="20" height="20" as="geometry"/></mxCell><mxCell id="UID2tYNRAP9tnTUfMCMo-16" value="DATABASE" style="rounded=0;whiteSpace=wrap;html=1;" parent="1" vertex="1"><mxGeometry x="60" y="500" width="220" height="40" as="geometry"/></mxCell><mxCell id="UID2tYNRAP9tnTUfMCMo-15" value="BUSINESS LOGIC" style="rounded=0;whiteSpace=wrap;html=1;verticalAlign=top;" parent="1" vertex="1"><mxGeometry x="60" y="380" width="220" height="50" as="geometry"/></mxCell><mxCell id="UID2tYNRAP9tnTUfMCMo-14" value="HTTP: GET, POST, DELETE, PUT" style="rounded=0;whiteSpace=wrap;html=1;" parent="1" vertex="1"><mxGeometry x="60" y="261" width="220" height="40" as="geometry"/></mxCell><mxCell id="UID2tYNRAP9tnTUfMCMo-24" value="REQUEST" style="rounded=0;whiteSpace=wrap;html=1;fillColor=#dae8fc;strokeColor=#6c8ebf;" parent="1" vertex="1"><mxGeometry x="271.5" y="90" width="120" height="39" as="geometry"/></mxCell><mxCell id="UID2tYNRAP9tnTUfMCMo-25" style="edgeStyle=orthogonalEdgeStyle;rounded=0;html=1;exitX=0.5;exitY=1;exitDx=0;exitDy=0;jettySize=auto;orthogonalLoop=1;" parent="1" source="UID2tYNRAP9tnTUfMCMo-24" target="UID2tYNRAP9tnTUfMCMo-24" edge="1"><mxGeometry relative="1" as="geometry"/></mxCell><mxCell id="6ihJbSwADSWcjfCOL8RZ-1" value="dao&lt;br&gt;Data Access Object" style="rounded=0;whiteSpace=wrap;html=1;" parent="1" vertex="1"><mxGeometry x="-120" y="500" width="120" height="60" as="geometry"/></mxCell><mxCell id="6ihJbSwADSWcjfCOL8RZ-4" style="orthogonalLoop=1;jettySize=auto;html=1;exitX=0;exitY=0.5;exitDx=0;exitDy=0;entryX=1;entryY=0.5;entryDx=0;entryDy=0;fontSize=11;rounded=0;" parent="1" source="6ihJbSwADSWcjfCOL8RZ-2" target="6ihJbSwADSWcjfCOL8RZ-3" edge="1"><mxGeometry relative="1" as="geometry"/></mxCell><mxCell id="6ihJbSwADSWcjfCOL8RZ-2" value="service" style="rounded=0;whiteSpace=wrap;html=1;" parent="1" vertex="1"><mxGeometry x="-120" y="380" width="120" height="60" as="geometry"/></mxCell><mxCell id="6ihJbSwADSWcjfCOL8RZ-3" value="&lt;font style=&quot;font-size: 11px&quot;&gt;In Java, a service is defined by a set of interfaces and classes. The service contains an &lt;b&gt;interface&lt;/b&gt; or an abstract class that defines the functionality provided by the service. There are multiple implementations for a service and they are called as service providers.&lt;/font&gt;" style="text;html=1;strokeColor=none;fillColor=none;align=left;verticalAlign=middle;whiteSpace=wrap;rounded=0;" parent="1" vertex="1"><mxGeometry x="-320" y="460" width="170" height="200" as="geometry"/></mxCell><mxCell id="NKB36Tx31hnz_e4N2-3s-2" value="api&lt;br&gt;(controller)" style="rounded=0;whiteSpace=wrap;html=1;" parent="1" vertex="1"><mxGeometry x="-120" y="261" width="120" height="60" as="geometry"/></mxCell><mxCell id="wR2gTWroeG-LEENdpprC-3" value="MVC and service" style="rounded=0;whiteSpace=wrap;html=1;" parent="1" vertex="1"><mxGeometry x="670" y="119.5" width="120" height="60" as="geometry"/></mxCell><mxCell id="wR2gTWroeG-LEENdpprC-4" value="&lt;h1&gt;MVC and Service&lt;/h1&gt;&lt;p&gt;https://stackoverflow.com/a/2763071&lt;/p&gt;&lt;p&gt;In a MVC pattern you have responsibilities separated between the 3 players: Model, View and Controller.&lt;/p&gt;&lt;p&gt;&lt;span&gt;The Model is responsible for doing the business stuff, the View presents the results of the business (providing also input to the business from the user) while the Controller acts like the glue between the Model and the View, separating the inner workings of each from the other.&lt;/span&gt;&lt;br&gt;&lt;/p&gt;&lt;p&gt;&lt;span&gt;The Model is usually backed up by a database so you have some DAOs accessing that. Your business does some...well... business and stores or retrieves data in/from the database.&lt;/span&gt;&lt;br&gt;&lt;/p&gt;&lt;p&gt;&lt;span&gt;But who coordinates the DAOs? The Controller? No! The Model should.&lt;/span&gt;&lt;br&gt;&lt;/p&gt;&lt;p&gt;&lt;span&gt;Enter the Service layer. The Service layer will provide high service to the controller and will manage other (lower level) players (DAOs, other services etc) behind the scenes. It contains the business logic of your app.&lt;/span&gt;&lt;br&gt;&lt;/p&gt;&lt;p&gt;&lt;span&gt;What happens if you don't use it?&lt;/span&gt;&lt;br&gt;&lt;/p&gt;&lt;p&gt;&lt;span&gt;You will have to put the business logic somewhere and the victim is usually the controller.&lt;/span&gt;&lt;br&gt;&lt;/p&gt;&lt;p&gt;&lt;span&gt;If the controller is web centric it will have to receive its input and provide response as HTTP requests, responses. But what if I want to call my app (and get access to the business it provides) from a Windows application which communicates with RPC or some other thing? What then?&lt;/span&gt;&lt;br&gt;&lt;/p&gt;&lt;p&gt;&lt;span&gt;Well, you will have to rewrite the controller and make the logic client agnostic. But with the Service layer you already have that. Yyou don't need to rewrite things.&lt;/span&gt;&lt;br&gt;&lt;/p&gt;&lt;p&gt;&lt;span&gt;The service layer provides communication with DTOs which are not tied to a specific controller implementation. If the controller (no matter what type of controller) provides the appropriate data (no mater the source) your service layer will do its thing providing a service to the caller and hiding the caller from all responsibilities of the business logic involved.&lt;/span&gt;&lt;br&gt;&lt;/p&gt;" style="text;html=1;strokeColor=none;fillColor=none;spacing=5;spacingTop=-20;whiteSpace=wrap;overflow=hidden;rounded=0;" parent="1" vertex="1"><mxGeometry x="820" y="110.5" width="510" height="559.5" as="geometry"/></mxCell><mxCell id="wR2gTWroeG-LEENdpprC-5" value="" style="group" parent="1" vertex="1" connectable="0"><mxGeometry x="-520" y="390" width="120" height="170" as="geometry"/></mxCell><mxCell id="UID2tYNRAP9tnTUfMCMo-31" value="" style="shape=umlActor;verticalLabelPosition=bottom;labelBackgroundColor=#ffffff;verticalAlign=top;html=1;outlineConnect=0;align=left;" parent="wR2gTWroeG-LEENdpprC-5" vertex="1"><mxGeometry x="45" y="110" width="30" height="60" as="geometry"/></mxCell><mxCell id="wR2gTWroeG-LEENdpprC-2" style="edgeStyle=orthogonalEdgeStyle;rounded=0;orthogonalLoop=1;jettySize=auto;html=1;entryX=0.5;entryY=0;entryDx=0;entryDy=0;entryPerimeter=0;" parent="wR2gTWroeG-LEENdpprC-5" source="NKB36Tx31hnz_e4N2-3s-1" target="UID2tYNRAP9tnTUfMCMo-31" edge="1"><mxGeometry relative="1" as="geometry"/></mxCell><mxCell id="NKB36Tx31hnz_e4N2-3s-1" value="model" style="rounded=0;whiteSpace=wrap;html=1;" parent="wR2gTWroeG-LEENdpprC-5" vertex="1"><mxGeometry width="120" height="60" as="geometry"/></mxCell><mxCell id="wR2gTWroeG-LEENdpprC-6" value="" style="shape=curlyBracket;whiteSpace=wrap;html=1;rounded=1;" parent="1" vertex="1"><mxGeometry x="-370" y="380" width="20" height="200" as="geometry"/></mxCell><mxCell id="wR2gTWroeG-LEENdpprC-7" value="&lt;font style=&quot;font-size: 24px&quot; color=&quot;#2ab326&quot;&gt;Spring&lt;br&gt;Boot 2021&lt;/font&gt;" style="text;html=1;strokeColor=none;fillColor=none;align=left;verticalAlign=top;whiteSpace=wrap;rounded=0;fontStyle=1" parent="1" vertex="1"><mxGeometry x="-109.09" y="125" width="120" height="65.5" as="geometry"/></mxCell><mxCell id="wR2gTWroeG-LEENdpprC-8" value="" style="shape=cylinder;whiteSpace=wrap;html=1;boundedLbl=1;backgroundOutline=1;" parent="1" vertex="1"><mxGeometry x="-700" y="460" width="60" height="80" as="geometry"/></mxCell><mxCell id="wR2gTWroeG-LEENdpprC-9" value="" style="endArrow=classic;html=1;rounded=0;fontSize=24;fontColor=#2AB326;" parent="1" edge="1"><mxGeometry width="50" height="50" relative="1" as="geometry"><mxPoint x="-490" y="500" as="sourcePoint"/><mxPoint x="-610" y="500" as="targetPoint"/></mxGeometry></mxCell><mxCell id="MEFubywyqh85JGEaS31g-1" value="Student class" style="swimlane;" parent="1" vertex="1"><mxGeometry x="-530" y="570" width="140" height="140" as="geometry"/></mxCell><mxCell id="MEFubywyqh85JGEaS31g-3" value="&lt;div style=&quot;text-align: left&quot;&gt;&lt;span&gt;- id&lt;/span&gt;&lt;br&gt;&lt;/div&gt;&lt;div style=&quot;text-align: left&quot;&gt;- name&lt;/div&gt;&lt;div style=&quot;text-align: left&quot;&gt;- age&lt;/div&gt;&lt;div style=&quot;text-align: left&quot;&gt;- dob&lt;/div&gt;&lt;div style=&quot;text-align: left&quot;&gt;- age&lt;/div&gt;&lt;div style=&quot;text-align: left&quot;&gt;- email&lt;/div&gt;" style="text;html=1;align=center;verticalAlign=middle;resizable=0;points=[];autosize=1;strokeColor=none;fillColor=none;" parent="MEFubywyqh85JGEaS31g-1" vertex="1"><mxGeometry x="45" y="40" width="50" height="90" as="geometry"/></mxCell><mxCell id="MEFubywyqh85JGEaS31g-4" value="StudentController class" style="swimlane;verticalAlign=bottom;spacing=2;startSize=50;" parent="1" vertex="1"><mxGeometry x="440" y="190.5" width="160" height="199.5" as="geometry"><mxRectangle x="430" y="190.5" width="170" height="23" as="alternateBounds"/></mxGeometry></mxCell><mxCell id="MEFubywyqh85JGEaS31g-8" value="&lt;span style=&quot;&quot;&gt;@RestController&lt;/span&gt;&lt;br style=&quot;&quot;&gt;&lt;div style=&quot;&quot;&gt;&lt;span&gt;@RequestMapping&lt;/span&gt;&lt;/div&gt;" style="text;html=1;align=left;verticalAlign=middle;resizable=0;points=[];autosize=1;strokeColor=none;fillColor=none;fontSize=10;" parent="MEFubywyqh85JGEaS31g-4" vertex="1"><mxGeometry x="50" width="100" height="30" as="geometry"/></mxCell><mxCell id="MEFubywyqh85JGEaS31g-9" value="getStudents()" style="swimlane;fontSize=10;startSize=30;verticalAlign=bottom;" parent="MEFubywyqh85JGEaS31g-4" vertex="1"><mxGeometry x="10" y="59.5" width="140" height="120" as="geometry"><mxRectangle x="30" y="59.5" width="120" height="23" as="alternateBounds"/></mxGeometry></mxCell><mxCell id="MEFubywyqh85JGEaS31g-10" value="@GetMapping" style="text;html=1;align=left;verticalAlign=bottom;resizable=0;points=[];autosize=1;strokeColor=none;fillColor=none;fontSize=10;" parent="MEFubywyqh85JGEaS31g-9" vertex="1"><mxGeometry x="60" width="80" height="20" as="geometry"/></mxCell><mxCell id="MEFubywyqh85JGEaS31g-5" value="" style="endArrow=none;html=1;rounded=0;exitX=1;exitY=0.5;exitDx=0;exitDy=0;entryX=0;entryY=0.5;entryDx=0;entryDy=0;" parent="1" source="fKm2lqC4MkwiA_qFB0BJ-2" target="MEFubywyqh85JGEaS31g-4" edge="1"><mxGeometry width="50" height="50" relative="1" as="geometry"><mxPoint x="410" y="350" as="sourcePoint"/><mxPoint x="430" y="240" as="targetPoint"/></mxGeometry></mxCell><mxCell id="MEFubywyqh85JGEaS31g-15" value="" style="edgeStyle=orthogonalEdgeStyle;rounded=0;html=1;jettySize=auto;orthogonalLoop=1;" parent="1" edge="1"><mxGeometry relative="1" as="geometry"><mxPoint x="230" y="650" as="sourcePoint"/><mxPoint x="230" y="590" as="targetPoint"/><Array as="points"><mxPoint x="230" y="630"/><mxPoint x="230" y="630"/></Array></mxGeometry></mxCell><mxCell id="MEFubywyqh85JGEaS31g-16" value="https://en.wikipedia.org/wiki/Business_logic" style="text;html=1;align=center;verticalAlign=middle;resizable=0;points=[];autosize=1;strokeColor=none;fillColor=none;fontSize=10;" parent="1" vertex="1"><mxGeometry x="65" y="400" width="210" height="20" as="geometry"/></mxCell><mxCell id="MEFubywyqh85JGEaS31g-33" value="Anterior pattern" style="swimlane;horizontal=0;fontSize=7;" parent="1" vertex="1"><mxGeometry x="-299.09000000000003" y="770" width="310" height="370" as="geometry"><mxRectangle x="-460" y="800" width="20" height="80" as="alternateBounds"/></mxGeometry></mxCell><mxCell id="MEFubywyqh85JGEaS31g-18" value="Service" style="rounded=1;whiteSpace=wrap;html=1;fontSize=10;" parent="MEFubywyqh85JGEaS31g-33" vertex="1"><mxGeometry x="30" y="121" width="120" height="40" as="geometry"/></mxCell><mxCell id="MEFubywyqh85JGEaS31g-24" style="rounded=0;orthogonalLoop=1;jettySize=auto;html=1;exitX=0.5;exitY=1;exitDx=0;exitDy=0;entryX=0.5;entryY=0;entryDx=0;entryDy=0;fontSize=10;startArrow=classic;startFill=1;" parent="MEFubywyqh85JGEaS31g-33" source="MEFubywyqh85JGEaS31g-19" target="MEFubywyqh85JGEaS31g-18" edge="1"><mxGeometry relative="1" as="geometry"/></mxCell><mxCell id="MEFubywyqh85JGEaS31g-19" value="Controller" style="rounded=1;whiteSpace=wrap;html=1;fontSize=10;" parent="MEFubywyqh85JGEaS31g-33" vertex="1"><mxGeometry x="30" y="41" width="120" height="40" as="geometry"/></mxCell><mxCell id="MEFubywyqh85JGEaS31g-21" value="Model" style="rounded=1;whiteSpace=wrap;html=1;fontSize=10;" parent="MEFubywyqh85JGEaS31g-33" vertex="1"><mxGeometry x="30" y="201" width="120" height="40" as="geometry"/></mxCell><mxCell id="MEFubywyqh85JGEaS31g-27" style="edgeStyle=none;rounded=0;orthogonalLoop=1;jettySize=auto;html=1;exitX=0.5;exitY=1;exitDx=0;exitDy=0;entryX=0.5;entryY=0;entryDx=0;entryDy=0;fontSize=10;startArrow=classic;startFill=1;" parent="MEFubywyqh85JGEaS31g-33" source="MEFubywyqh85JGEaS31g-18" target="MEFubywyqh85JGEaS31g-21" edge="1"><mxGeometry relative="1" as="geometry"/></mxCell><mxCell id="MEFubywyqh85JGEaS31g-28" value="&lt;font style=&quot;font-size: 7px&quot;&gt;- &lt;u&gt;Création d'un objet&lt;/u&gt; privé et final de type StudentService.&lt;br&gt;- Le constructeur de ce controller reçoit un objet StudentService comme argument. Puis, ce constructeur attribue cet argument à l'objet service privé du controller.&lt;/font&gt;" style="text;html=1;strokeColor=none;fillColor=none;align=left;verticalAlign=top;whiteSpace=wrap;rounded=0;fontSize=10;" parent="MEFubywyqh85JGEaS31g-33" vertex="1"><mxGeometry x="160" y="30" width="150" height="81" as="geometry"/></mxCell><mxCell id="MEFubywyqh85JGEaS31g-29" value="DAO" style="rounded=1;whiteSpace=wrap;html=1;fontSize=10;" parent="MEFubywyqh85JGEaS31g-33" vertex="1"><mxGeometry x="30" y="281" width="120" height="40" as="geometry"/></mxCell><mxCell id="MEFubywyqh85JGEaS31g-30" style="edgeStyle=none;rounded=0;orthogonalLoop=1;jettySize=auto;html=1;exitX=0.5;exitY=1;exitDx=0;exitDy=0;entryX=0.5;entryY=0;entryDx=0;entryDy=0;fontSize=7;startArrow=classic;startFill=1;" parent="MEFubywyqh85JGEaS31g-33" source="MEFubywyqh85JGEaS31g-21" target="MEFubywyqh85JGEaS31g-29" edge="1"><mxGeometry relative="1" as="geometry"/></mxCell><mxCell id="MEFubywyqh85JGEaS31g-31" value="&lt;font style=&quot;font-size: 7px&quot;&gt;- Représentation (blue print) d'un objet Student.&lt;br&gt;- Plusieurs constructeurs:&lt;br&gt;&amp;nbsp; &amp;nbsp; &amp;nbsp;- Student()&lt;br&gt;&amp;nbsp; &amp;nbsp; &amp;nbsp;- Student(id,name,email,dob,age)&lt;br&gt;&amp;nbsp; &amp;nbsp; &amp;nbsp;- Student(name,email,dob,age)&lt;br&gt;&lt;/font&gt;" style="text;html=1;strokeColor=none;fillColor=none;align=left;verticalAlign=top;whiteSpace=wrap;rounded=0;fontSize=10;" parent="MEFubywyqh85JGEaS31g-33" vertex="1"><mxGeometry x="160" y="191" width="150" height="80" as="geometry"/></mxCell><mxCell id="MEFubywyqh85JGEaS31g-32" value="&lt;font style=&quot;font-size: 7px&quot;&gt;- Représentation (blue print) d'un objet StudentService.&lt;br&gt;- La fonction de ce service est de retourner une liste d'objets Student. La méthode utilisée pour réaliser cette fonction est getStudents&lt;br&gt;&lt;/font&gt;" style="text;html=1;strokeColor=none;fillColor=none;align=left;verticalAlign=top;whiteSpace=wrap;rounded=0;fontSize=10;" parent="MEFubywyqh85JGEaS31g-33" vertex="1"><mxGeometry x="160" y="111" width="150" height="80" as="geometry"/></mxCell></root></mxGraphModel></diagram></mxfile>